<?xml version="1.0" encoding="UTF-8"?>
<svg width="439px" height="76px" viewBox="0 0 439 76" version="1.1" xmlns="http://www.w3.org/2000/svg" xmlns:xlink="http://www.w3.org/1999/xlink">
    <!-- Generator: Sketch 47 (45396) - http://www.bohemiancoding.com/sketch -->
    <title>Group 73</title>
    <desc>Created with Sketch.</desc>
    <defs></defs>
    <g id="Page-1" stroke="none" stroke-width="1" fill="none" fill-rule="evenodd">
        <g id="Desktop" transform="translate(-766.000000, -10603.000000)">
            <g id="Group-73" transform="translate(765.000000, 10600.000000)">
                <g id="Group-3">
                    <g id="btn_4" transform="translate(33.000000, 18.000000)">
                        <rect id="bg" fill="#FFFFFF" x="0" y="0" width="375" height="48"></rect>
                        <rect id="line" fill-opacity="0.09" fill="#000000" x="0" y="0" width="375" height="1"></rect>
                        <g id="promote" transform="translate(12.000000, 6.000000)">
                            <rect id="Rectangle-13" fill="#FF5722" x="0" y="0" width="351" height="36" rx="2"></rect>
                            <text id="BUTTON" font-family="HelveticaNeue, Helvetica Neue" font-size="14" font-weight="normal" fill="#FFFFFF">
                                <tspan x="147" y="23">BUTTON</tspan>
                            </text>
                        </g>
                    </g>
                    <g id="TOP#8CA9374B-FCCB-4648-A1FA-ECCD4F8C78F0#267566C9-2726-4377-A16E-80F932748776" transform="translate(209.000000, 0.000000)" fill="#FF5722">
                        <rect id="ruler-start" x="9" y="18" width="5" height="1"></rect>
                        <rect id="ruler-end" x="9" y="23" width="5" height="1"></rect>
                        <rect id="ruler-line" x="11" y="18" width="1" height="6"></rect>
                        <text id="label-text" font-family="HelveticaNeue, Helvetica Neue" font-size="14" font-weight="normal">
                            <tspan x="0" y="13">6px</tspan>
                        </text>
                    </g>
                    <g id="TOP#8CA9374B-FCCB-4648-A1FA-ECCD4F8C78F0#267566C9-2726-4377-A16E-80F932748776" transform="translate(209.000000, 60.000000)" fill="#FF5722">
                        <rect id="ruler-start" x="9" y="0" width="5" height="1"></rect>
                        <rect id="ruler-end" x="9" y="5" width="5" height="1"></rect>
                        <rect id="ruler-line" x="11" y="0" width="1" height="6"></rect>
                        <text id="label-text" font-family="HelveticaNeue, Helvetica Neue" font-size="14" font-weight="normal">
                            <tspan x="0" y="16">6px</tspan>
                        </text>
                    </g>
                    <g id="RIGHT#8CA9374B-FCCB-4648-A1FA-ECCD4F8C78F0#267566C9-2726-4377-A16E-80F932748776" transform="translate(396.000000, 32.000000)" fill="#FF5722">
                        <rect id="ruler-start" x="0" y="7" width="1" height="5"></rect>
                        <rect id="ruler-end" x="11" y="7" width="1" height="5"></rect>
                        <rect id="ruler-line" x="0" y="9" width="12" height="1"></rect>
                        <text id="label-text" font-family="HelveticaNeue, Helvetica Neue" font-size="14" font-weight="normal">
                            <tspan x="13" y="13">12px</tspan>
                        </text>
                    </g>
                    <g id="RIGHT#8CA9374B-FCCB-4648-A1FA-ECCD4F8C78F0#267566C9-2726-4377-A16E-80F932748776" transform="translate(0.000000, 32.000000)" fill="#FF5722">
                        <rect id="ruler-start" x="33" y="7" width="1" height="5"></rect>
                        <rect id="ruler-end" x="44" y="7" width="1" height="5"></rect>
                        <rect id="ruler-line" x="33" y="9" width="12" height="1"></rect>
                        <text id="label-text" font-family="HelveticaNeue, Helvetica Neue" font-size="14" font-weight="normal">
                            <tspan x="0" y="13">12px</tspan>
                        </text>
                    </g>
                </g>
                <g id="Group-96" transform="translate(335.000000, 21.000000)" fill="#FFFFFF">
                    <path d="M13,12 L13,1 L11,1 L11,0 L16,0 L16,1 L14,1 L14,12 L13,12 Z M13,25 L13,35 L11,35 L11,36 L16,36 L16,35 L14,35 L14,25 L13,25 Z" id="Combined-Shape"></path>
                    <text id="label-text" font-family="HelveticaNeue, Helvetica Neue" font-size="12" font-weight="normal">
                        <tspan x="0.162" y="21">36px</tspan>
                    </text>
                </g>
            </g>
        </g>
    </g>
</svg>