<?xml version="1.0" encoding="UTF-8"?>
<svg width="160px" height="29px" viewBox="0 0 160 29" version="1.1" xmlns="http://www.w3.org/2000/svg" xmlns:xlink="http://www.w3.org/1999/xlink">
    <!-- Generator: Sketch 47 (45396) - http://www.bohemiancoding.com/sketch -->
    <title>Group 58</title>
    <desc>Created with Sketch.</desc>
    <defs>
        <circle id="path-1" cx="14" cy="14.7272727" r="14"></circle>
        <circle id="path-2" cx="12" cy="12.7272727" r="12"></circle>
        <circle id="path-3" cx="14" cy="14.7272727" r="14"></circle>
    </defs>
    <g id="Page-1" stroke="none" stroke-width="1" fill="none" fill-rule="evenodd">
        <g id="Desktop" transform="translate(-1107.000000, -7148.000000)">
            <g id="Group-20" transform="translate(25.000000, 6209.000000)">
                <g id="Group-58" transform="translate(1082.000000, 939.000000)">
                    <g id="Group-57" transform="translate(132.000000, 0.000000)">
                        <g id="Oval-236">
                            <use fill="#FFFFFF" fill-rule="evenodd" xlink:href="#path-1"></use>
                            <circle stroke="#FF5722" stroke-width="1.5" cx="14" cy="14.7272727" r="13.25"></circle>
                        </g>
                        <path d="M13.25,13.9772727 L7.75270081,13.9772727 C7.33226082,13.9772727 7,14.3130592 7,14.7272727 C7,15.1443741 7.33699563,15.4772727 7.75270081,15.4772727 L13.25,15.4772727 L13.25,20.9745719 C13.25,21.3950119 13.5857864,21.7272727 14,21.7272727 C14.4171014,21.7272727 14.75,21.3902771 14.75,20.9745719 L14.75,15.4772727 L20.2472992,15.4772727 C20.6677392,15.4772727 21,15.1414863 21,14.7272727 C21,14.3101713 20.6630044,13.9772727 20.2472992,13.9772727 L14.75,13.9772727 L14.75,8.47997353 C14.75,8.05953354 14.4142136,7.72727273 14,7.72727273 C13.5828986,7.72727273 13.25,8.06426836 13.25,8.47997353 L13.25,13.9772727 Z" id="Rectangle-853" fill="#FF5722"></path>
                    </g>
                    <g id="Group-56" transform="translate(68.000000, 2.000000)">
                        <g id="Oval-236-Copy-2">
                            <use fill="#FFFFFF" fill-rule="evenodd" xlink:href="#path-2"></use>
                            <circle stroke="#FD9811" stroke-width="1.5" cx="12" cy="12.7272727" r="11.25"></circle>
                        </g>
                        <circle id="Oval-348" fill="#FD9811" cx="8.5" cy="10.2272727" r="1.5"></circle>
                        <circle id="Oval-348-Copy" fill="#FD9811" cx="15.5" cy="10.2272727" r="1.5"></circle>
                        <path d="M14.32,16.9072727 C14.32,20.7966421 11.6303443,22.9072727 10.32,22.9072727 C10.32,22.9072727 9.32000001,22.4072727 9.82,21.9072727 C10.7759051,21.5072727 12.8199998,20.0261866 12.82,16.9072727 C12.8200002,13.7883588 10.7759051,12.3072727 9.82,11.9072727 C9.31999999,11.4072727 10.32,10.9072727 10.32,10.9072727 C11.5945402,10.9072727 14.32,13.0179033 14.32,16.9072727 Z" id="Shape" fill="#FD9811" fill-rule="nonzero" transform="translate(12.000000, 16.907273) rotate(-270.000000) translate(-12.000000, -16.907273) "></path>
                    </g>
                    <g id="Group-53">
                        <g id="Oval-238">
                            <use fill="#FFFFFF" fill-rule="evenodd" xlink:href="#path-3"></use>
                            <circle stroke-opacity="0.54" stroke="#000000" stroke-width="1.5" cx="14" cy="14.7272727" r="13.25"></circle>
                        </g>
                        <path d="M12.997997,23.8366981 L17.3398505,19.9772727 L20.0074602,19.9772727 C21.2372943,19.9772727 22.25,18.9639769 22.25,17.7239215 L22.25,9.73062397 C22.25,8.48413119 21.2462426,7.47727273 20.0074602,7.47727273 L7.99253976,7.47727273 C6.76270571,7.47727273 5.75,8.49056854 5.75,9.73062397 L5.75,17.7239215 C5.75,18.9704143 6.75375738,19.9772727 7.99253976,19.9772727 L12.75,19.9772727 L12.75,23.7291714 C12.75,24.1883248 12.6514946,24.1447002 12.997997,23.8366981 Z" id="Rectangle-857" stroke-opacity="0.54" stroke="#000000" stroke-width="1.5"></path>
                        <circle id="Oval-99" fill-opacity="0.54" fill="#000000" cx="10" cy="13.7272727" r="1"></circle>
                        <circle id="Oval-99" fill-opacity="0.54" fill="#000000" cx="14" cy="13.7272727" r="1"></circle>
                        <circle id="Oval-99" fill-opacity="0.54" fill="#000000" cx="18" cy="13.7272727" r="1"></circle>
                    </g>
                </g>
            </g>
        </g>
    </g>
</svg>