<?xml version="1.0" encoding="UTF-8"?>
<svg width="373px" height="25px" viewBox="0 0 373 25" version="1.1" xmlns="http://www.w3.org/2000/svg" xmlns:xlink="http://www.w3.org/1999/xlink">
    <!-- Generator: Sketch 47 (45396) - http://www.bohemiancoding.com/sketch -->
    <title>Group 61</title>
    <desc>Created with Sketch.</desc>
    <defs></defs>
    <g id="Page-1" stroke="none" stroke-width="1" fill="none" fill-rule="evenodd">
        <g id="Desktop" transform="translate(-1110.000000, -7564.000000)">
            <g id="Group-20" transform="translate(25.000000, 6209.000000)">
                <g id="Group-61" transform="translate(1081.000000, 1351.000000)">
                    <g id="Group-35">
                        <g id="Group-5" transform="translate(210.000000, 0.000000)">
                            <path d="M3.75,13.0045899 L6.07917234,25.590946 C6.10110401,25.7094601 6.2044722,25.7954545 6.32499855,25.7954545 L18.1281738,25.7954545 L19.9090909,25.7954545 C20.0471621,25.7954545 20.1590909,25.6835257 20.1590909,25.5454545 L20.1590909,6.54545455 C20.1590909,6.40738336 20.0471621,6.29545455 19.9090909,6.29545455 L4,6.29545455 C3.86192881,6.29545455 3.75,6.40738336 3.75,6.54545455 L3.75,13.0045899 Z" id="Rectangle" stroke="#595959" stroke-width="1.5" transform="translate(11.954545, 16.045455) scale(-1, 1) translate(-11.954545, -16.045455) "></path>
                            <path d="M6.5,11.0454545 L14.5,11.0454545" id="Path-4" stroke-opacity="0.65" stroke="#000000" stroke-linecap="round"></path>
                            <path d="M6.5,15.0454545 L10.5,15.0454545" id="Path-4" stroke-opacity="0.65" stroke="#000000" stroke-linecap="round"></path>
                            <circle id="Oval" stroke="#595959" stroke-width="1.5" cx="21.0909091" cy="19.6363636" r="7.09090909"></circle>
                            <path d="M20.668982,18.5575823 L17.6447265,18.5575823 C17.3752821,18.5575823 17.1568542,18.7760101 17.1568542,19.0454545 C17.1568542,19.3148989 17.3752821,19.5333268 17.6447265,19.5333268 L20.668982,19.5333268 L20.668982,22.5575823 C20.668982,22.8270267 20.8874099,23.0454545 21.1568542,23.0454545 C21.4262986,23.0454545 21.6447265,22.8270267 21.6447265,22.5575823 L21.6447265,19.5333268 L24.668982,19.5333268 C24.9384264,19.5333268 25.1568542,19.3148989 25.1568542,19.0454545 C25.1568542,18.7760101 24.9384264,18.5575823 24.668982,18.5575823 L21.6447265,18.5575823 L21.6447265,15.5333268 C21.6447265,15.2638824 21.4262986,15.0454545 21.1568542,15.0454545 C20.8874099,15.0454545 20.668982,15.2638824 20.668982,15.5333268 L20.668982,18.5575823 Z" id="Combined-Shape" fill="#595959"></path>
                        </g>
                        <g id="Group-6" transform="translate(280.000000, 0.000000)" fill-opacity="0.65" fill="#000000">
                            <circle id="Oval-2" cx="8" cy="15.5454545" r="2"></circle>
                            <circle id="Oval-2-Copy" cx="15" cy="15.5454545" r="2"></circle>
                            <circle id="Oval-2-Copy-2" cx="22" cy="15.5454545" r="2"></circle>
                        </g>
                        <g id="Group-2">
                            <path d="M26,8.04545455 L26,24.5454545 L5.5,24.5454545 L5.5,8.04545455 L18.5211182,8.04545455 C18.5211182,8.04545455 19.4182419,6.54545455 19.0040283,6.54545455 L4.75,6.54545455 C4.33578644,6.54545455 4,6.88124098 4,7.29545455 L4,25.2954545 C4,25.7096681 4.33578644,26.0454545 4.75,26.0454545 L26.75,26.0454545 C27.1642136,26.0454545 27.5,25.7096681 27.5,25.2954545 L27.5,7.29545455 C27.5,6.88124098 27.1642136,6.54545455 26.75,6.54545455 L22.7097168,6.54545455 C22.2955032,6.54545455 22.8147864,8.04545455 23.229,8.04545455 L26,8.04545455 Z" id="Stroke-1" fill="#595959" fill-rule="nonzero"></path>
                            <path d="M14.1396484,11.7478471 L20.4225,5.73975455 C20.8425,5.43175455 21.4295,5.49675455 21.7705,5.89075455 L26.4995,11.3587545" id="Stroke-3" stroke="#595959"></path>
                            <path d="M10.4165,11.5454545 L26.7905,11.5454545" id="Stroke-5" stroke="#595959" stroke-linecap="round" stroke-linejoin="round"></path>
                            <path d="M21.5,15.0454545 L27,15.0454545 L27,17.5454545 L27,20.0454545 L21.5,20.0454545 L21.5,20.0454545 C20.1192881,20.0454545 19,18.9261664 19,17.5454545 L19,17.5454545 L19,17.5454545 C19,16.1647427 20.1192881,15.0454545 21.5,15.0454545 Z" id="Rectangle-6" stroke="#595959"></path>
                        </g>
                        <g id="Group-3" transform="translate(70.000000, 0.000000)" stroke="#595959" stroke-linejoin="round">
                            <polyline id="Stroke-1" stroke-width="1.5" points="5.0937 23.2954545 1.2497 23.2954545 1.2497 7.29545455 17.2497 7.29545455 17.2497 23.2954545 9.4057 23.2954545"></polyline>
                            <polyline id="Stroke-3" stroke-width="1.5" points="20.2192 23.2954545 17.2812 23.2954545 17.2812 11.2954545 23.7812 11.2954545 28.2812 23.2954545 24.4062 23.2954545"></polyline>
                            <path d="M21.1875,16.5454545 L26,16.5454545" id="Stroke-6" stroke-linecap="round"></path>
                            <path d="M9.5937,23.9673545 C9.5937,25.2093545 8.5867,26.2173545 7.3437,26.2173545 C6.1007,26.2173545 5.0937,25.2093545 5.0937,23.9673545 C5.0937,22.7253545 6.1007,21.7173545 7.3437,21.7173545 C8.5867,21.7173545 9.5937,22.7253545 9.5937,23.9673545 Z" id="Stroke-7" stroke-width="1.5" stroke-linecap="round"></path>
                            <path d="M24.5938,23.9673545 C24.5938,25.2093545 23.5868,26.2173545 22.3438,26.2173545 C21.1008,26.2173545 20.0938,25.2093545 20.0938,23.9673545 C20.0938,22.7253545 21.1008,21.7173545 22.3438,21.7173545 C23.5868,21.7173545 24.5938,22.7253545 24.5938,23.9673545 Z" id="Stroke-9" stroke-width="1.5" stroke-linecap="round"></path>
                        </g>
                        <g id="Group-10" transform="translate(350.000000, 0.000000)">
                            <path d="M26.25,16.2954545 C26.25,22.3704545 21.325,27.2954545 15.25,27.2954545 C9.175,27.2954545 4.25,22.3704545 4.25,16.2954545 C4.25,10.2204545 9.175,5.29545455 15.25,5.29545455 C21.325,5.29545455 26.25,10.2204545 26.25,16.2954545 Z" id="Stroke-1" stroke="#595959" stroke-width="1.5"></path>
                            <path d="M19,18.4204545 L19,11.0454545 L17.0601,11.0454545 L17.0601,18.4204545 L15.4981,18.4204545 C15.3281,18.4204545 15.2361,18.6204545 15.3471,18.7504545 L17.8711,21.7034545 C17.9501,21.7964545 18.0931,21.7974545 18.1731,21.7054545 L20.7721,18.7524545 C20.8861,18.6234545 20.7941,18.4204545 20.6221,18.4204545 L19,18.4204545 Z" id="Fill-3" fill="#595959"></path>
                            <path d="M13,18.192075 L13,10.5454545 L11.1211296,10.5454545 L11.1211296,18.192075 L9.4981,18.192075 C9.3281,18.192075 9.2361,18.392075 9.3471,18.522075 L11.8711,21.475075 C11.9501,21.568075 12.0931,21.569075 12.1731,21.477075 L14.7721,18.524075 C14.8861,18.395075 14.7941,18.192075 14.6221,18.192075 L13,18.192075 Z" id="Fill-3" fill="#595959" transform="translate(12.060565, 16.045455) rotate(180.000000) translate(-12.060565, -16.045455) "></path>
                        </g>
                        <g id="Group-4" transform="translate(140.000000, 0.000000)" stroke="#595959" stroke-linejoin="round">
                            <path d="M7,6.54545455 L23,6.54545455 L26,12.5454545 L4,12.5454545 L7,6.54545455 Z M4,12.5454545 L26,12.5454545 L26,24.5454545 L4,24.5454545 L4,12.5454545 Z" id="Combined-Shape" stroke-width="1.5"></path>
                            <polygon id="Stroke-8" fill="#FFFFFF" stroke-linecap="round" points="12.75 6.79545455 12.75 11.9406545 12.75 18.8576545 15.25 15.8314653 17.75 18.8576545 17.75 12.1076545 17.75 6.79545455"></polygon>
                        </g>
                    </g>
                </g>
            </g>
        </g>
    </g>
</svg>