<?xml version="1.0" encoding="UTF-8"?>
<svg width="464px" height="32px" viewBox="0 0 464 32" version="1.1" xmlns="http://www.w3.org/2000/svg" xmlns:xlink="http://www.w3.org/1999/xlink">
    <!-- Generator: Sketch 47 (45396) - http://www.bohemiancoding.com/sketch -->
    <title>Group 59</title>
    <desc>Created with Sketch.</desc>
    <defs></defs>
    <g id="Page-1" stroke="none" stroke-width="1" fill="none" fill-rule="evenodd">
        <g id="Desktop" transform="translate(-1107.000000, -7456.000000)">
            <g id="Group-20" transform="translate(25.000000, 6209.000000)">
                <g id="Group-59" transform="translate(1082.000000, 1247.000000)">
                    <g id="Group-52">
                        <g id="Group-5">
                            <path d="M16,32 C24.836556,32 32,24.836556 32,16 C32,7.163444 24.836556,0 16,0 C7.163444,0 0,7.163444 0,16 C0,24.836556 7.163444,32 16,32 Z" id="Oval-8" fill="#C982E9"></path>
                            <path d="M20.2916667,12.8005333 C20.2916667,10.7386667 18.5940833,9.0672 16.5,9.0672 C14.4059167,9.0672 12.7083333,10.7386667 12.7083333,12.8005333 C12.7083333,14.8618667 14.4059167,16.5338667 16.5,16.5338667 C18.5940833,16.5338667 20.2916667,14.8618667 20.2916667,12.8005333 L20.2916667,12.8005333 Z M21.9166667,22.9338667 C21.9166667,19.9882667 19.4910833,17.6005333 16.5,17.6005333 C13.508375,17.6005333 11.0833333,19.9882667 11.0833333,22.9338667 L11.0833333,24 L10,24 L10,22.9338667 C10,20.2293333 11.70625,17.9210667 14.1150417,16.9845333 C12.6297917,16.1616 11.625,14.5973333 11.625,12.8005333 C11.625,10.1493333 13.807375,8 16.5,8 C19.1920833,8 21.375,10.1493333 21.375,12.8005333 C21.375,14.5973333 20.3696667,16.1616 18.8849583,16.9845333 C21.29375,17.9210667 23,20.2293333 23,22.9338667 L23,24 L21.9166667,24 L21.9166667,22.9338667 Z" id="Fill-425" fill="#FFFFFF"></path>
                        </g>
                        <g id="Group-8" transform="translate(72.000000, 0.000000)">
                            <path d="M16,32 C24.836556,32 32,24.836556 32,16 C32,7.163444 24.836556,0 16,0 C7.163444,0 0,7.163444 0,16 C0,24.836556 7.163444,32 16,32 Z" id="Oval-8" fill="#F86969"></path>
                            <path d="M10,20 L14,20 L14,19 L10,19 L10,20 Z M15,20 L18,20 L18,19 L15,19 L15,20 Z M23,16 L9,16 L9,20.999 C9,21.5515 9.447,22 10,22 L22,22 C22.552,22 23,21.5515 23,20.999 L23,16 Z M9,14.9995 L23,14.9995 L23,12.9995 L9,12.9995 L9,14.9995 Z M23,10.9995 C23,10.447 22.552,9.999 22,9.999 L10,9.999 C9.447,9.999 9,10.447 9,10.9995 L9,11.999 L23,11.999 L23,10.9995 Z M22,23 L10,23 C8.8945,23 8,22.1045 8,20.999 L8,16 L8,11.999 L8,10.9995 C8,9.8945 8.8945,9 10,9 L22,9 C23.1045,9 24,9.8945 24,10.9995 L24,11.999 L24,16 L24,20.999 C24,22.1045 23.1045,23 22,23 L22,23 Z" id="Fill-764" fill="#FFFFFF"></path>
                        </g>
                        <g id="Group-9" transform="translate(144.000000, 0.000000)">
                            <path d="M16,32 C24.836556,32 32,24.836556 32,16 C32,7.163444 24.836556,0 16,0 C7.163444,0 0,7.163444 0,16 C0,24.836556 7.163444,32 16,32 Z" id="Oval-8" fill="#1FC5AC"></path>
                            <path d="M17.6363636,15 C17.6363636,14.0961818 16.9032727,13.3636364 16,13.3636364 C15.0961818,13.3636364 14.3636364,14.0961818 14.3636364,15 C14.3636364,15.9038182 15.0961818,16.6363636 16,16.6363636 C16.9032727,16.6363636 17.6363636,15.9038182 17.6363636,15 M13.2727273,15 C13.2727273,13.4945455 14.4934545,12.2727273 16,12.2727273 C17.506,12.2727273 18.7272727,13.4945455 18.7272727,15 C18.7272727,16.5065455 17.506,17.7272727 16,17.7272727 C14.4934545,17.7272727 13.2727273,16.5065455 13.2727273,15 M16,10.0903636 C13.2885455,10.0903636 11.0909091,12.3796364 11.0909091,15.2045455 C11.0909091,18.0278182 16,23.7261818 16,23.7261818 C16,23.7261818 20.9085455,18.0278182 20.9085455,15.2045455 C20.9085455,12.3796364 18.7109091,10.0903636 16,10.0903636 M16.912,24.2721818 L19.2727273,24.2721818 C19.5738182,24.2721818 19.8181818,24.5165455 19.8181818,24.8176364 C19.8181818,25.1192727 19.5738182,25.3630909 19.2727273,25.3630909 L12.7272727,25.3630909 C12.4256364,25.3630909 12.1818182,25.1192727 12.1818182,24.8176364 C12.1818182,24.5165455 12.4256364,24.2721818 12.7272727,24.2721818 L15.0874545,24.2721818 C13.4090909,22.2049091 10,17.6912727 10,15.1358182 C10,11.7463636 12.6863636,9 16,9 C19.3136364,9 22,11.7463636 22,15.1358182 C22,17.6912727 18.5898182,22.2049091 16.912,24.2721818" id="Fill-91" fill="#FFFFFF"></path>
                        </g>
                        <g id="Group-8" transform="translate(216.000000, 0.000000)">
                            <path d="M16,32 C24.836556,32 32,24.836556 32,16 C32,7.163444 24.836556,0 16,0 C7.163444,0 0,7.163444 0,16 C0,24.836556 7.163444,32 16,32 Z" id="Oval-8" fill="#F8B640"></path>
                            <g id="Group-3" transform="translate(7.000000, 8.000000)">
                                <path d="M4.000125,8.00075001 C3.44760773,8.00075001 3.00009375,7.55273601 3.00009375,7.00071876 C3.00009375,6.44870151 3.44760773,6.00068751 4.000125,6.00068751 C4.55214225,6.00068751 5.00015625,6.44870151 5.00015625,7.00071876 C5.00015625,7.55273601 4.55214225,8.00075001 4.000125,8.00075001 M8.00024999,8.00075001 C7.44773273,8.00075001 7.00021874,7.55273601 7.00021874,7.00071876 C7.00021874,6.44870151 7.44773273,6.00068751 8.00024999,6.00068751 C8.55226724,6.00068751 9.00028124,6.44870151 9.00028124,7.00071876 C9.00028124,7.55273601 8.55226724,8.00075001 8.00024999,8.00075001 M8.00024999,1.00053126 C4.13412918,1.00053126 1.00003125,3.68711522 1.00003125,7.00071876 C1.00003125,9.03278226 2.19406856,10.8093378 4.000125,11.8923716 L4.000125,12.000875 L4.000125,14.5009531 L7.00021874,13.0014063 C7.00021874,13.0014063 6.85271413,13.0009063 8.00024999,13.0009063 C11.8658708,13.0009063 15.0004687,10.3143223 15.0004687,7.00071876 C15.0004687,3.68711522 11.8658708,1.00053126 8.00024999,1.00053126 M7.09622174,13.952936 L3.00009375,16.001 L3.00009375,12.4603894 C1.17303666,11.1778493 0,9.2102878 0,7.00071876 C0,3.13459795 3.5811119,0 8.00024999,0 C12.4183881,0 16.0005,3.13459795 16.0005,7.00071876 C16.0005,10.8668396 12.4183881,14.0009375 8.00024999,14.0009375 C7.69424043,14.0009375 7.39323102,13.9824369 7.09622174,13.952936 Z" id="Fill-463" fill="#FFFFFF"></path>
                                <g id="Group-2" transform="translate(9.000000, 4.000000)">
                                    <path d="M6.5,9.84936523 C8.98528137,9.84936523 11,7.98528137 11,5.5 C11,3.01471863 8.48198548,1.26086426 5.9967041,1.26086426 C3.51142273,1.26086426 2,3.01471863 2,5.5 C2,7.98528137 4.01471863,9.84936523 6.5,9.84936523 Z" id="Oval-11" fill="#FBBD59"></path>
                                    <path d="M4.99965624,3.74974218 C4.30907872,3.74974218 3.74974218,4.3093912 3.74974218,4.99965624 C3.74974218,5.68992128 4.30907872,6.24894534 4.99965624,6.24894534 C5.68992128,6.24894534 6.2495703,5.68992128 6.2495703,4.99965624 C6.2495703,4.3093912 5.68992128,3.74974218 4.99965624,3.74974218 L4.99965624,3.74974218 Z M4.99965624,6.87452733 C3.96410244,6.87452733 3.12478515,6.03489756 3.12478515,4.99965624 C3.12478515,3.96410244 3.96410244,3.12478515 4.99965624,3.12478515 C6.03489756,3.12478515 6.87452733,3.96410244 6.87452733,4.99965624 C6.87452733,6.03489756 6.03489756,6.87452733 4.99965624,6.87452733 L4.99965624,6.87452733 Z M8.37911138,4.37469921 C8.28974252,3.89098247 8.09381849,3.4469505 7.82477449,3.05791475 L8.09288106,2.78980818 C8.33692678,2.54576246 8.33692678,2.15016466 8.09288106,1.90611894 C7.84883534,1.66207322 7.45323754,1.66207322 7.20887934,1.90611894 L6.93921038,2.1757879 C6.54986215,1.90861877 6.1070801,1.71394465 5.62461327,1.62520076 L5.62461327,1.24991406 C5.62461327,0.904625301 5.34463252,0.62495703 4.99965624,0.62495703 C4.65467996,0.62495703 4.37469921,0.904625301 4.37469921,1.24991406 L4.37469921,1.62520076 C3.89223238,1.71394465 3.44882537,1.90861877 3.05947714,2.1757879 L2.78980818,1.90611894 C2.54607494,1.66207322 2.15016466,1.66207322 1.90611894,1.90611894 C1.66176074,2.15016466 1.66176074,2.54576246 1.90611894,2.78980818 L2.17391303,3.05791475 C1.90486903,3.4469505 1.708945,3.89098247 1.61988862,4.37469921 L1.24991406,4.37469921 C0.904937779,4.37469921 0.62495703,4.65436748 0.62495703,4.99965624 C0.62495703,5.34463252 0.904937779,5.62461327 1.24991406,5.62461327 L1.61988862,5.62461327 C1.708945,6.10770505 1.90486903,6.55173702 2.17391303,6.94108525 L1.90611894,7.20919182 C1.66176074,7.45355002 1.66176074,7.84852286 1.90611894,8.09256858 C2.15016466,8.3366143 2.54607494,8.3366143 2.78980818,8.09256858 L3.05947714,7.8232121 C3.44882537,8.09006875 3.8919199,8.28474287 4.37469921,8.37348677 L4.37469921,8.74908594 C4.37469921,9.0943747 4.65467996,9.37435545 4.99965624,9.37435545 C5.34463252,9.37435545 5.62461327,9.0943747 5.62461327,8.74908594 L5.62461327,8.37348677 C6.1070801,8.28474287 6.55017463,8.09006875 6.93921038,7.8232121 L7.20887934,8.09256858 C7.45323754,8.3366143 7.84883534,8.3366143 8.09288106,8.09256858 C8.33692678,7.84852286 8.33692678,7.45355002 8.09288106,7.20919182 L7.82477449,6.94108525 C8.09381849,6.55173702 8.28974252,6.10770505 8.37911138,5.62461327 L8.74939842,5.62461327 C9.0943747,5.62461327 9.37435545,5.34463252 9.37435545,4.99965624 C9.37435545,4.65436748 9.0943747,4.37469921 8.74939842,4.37469921 L8.37911138,4.37469921 Z M9.99931248,4.99965624 C9.99931248,5.65586112 9.49153489,6.18769955 8.84845411,6.23894603 C8.77939636,6.45330629 8.69533964,6.6582922 8.59347164,6.85515366 C9.00625576,7.34636989 8.9968814,8.07225748 8.53472568,8.5344132 C8.07288243,8.99656892 7.34668237,9.00594328 6.85577862,8.59315916 C6.65860468,8.69533964 6.45361877,8.77939636 6.23957099,8.84845411 C6.18801203,9.49153489 5.65586112,9.999 4.99965624,9.999 C4.34313888,9.999 3.81098797,9.49153489 3.75942901,8.84845411 C3.54538123,8.77939636 3.34039532,8.69533964 3.14353386,8.59315916 C2.65231763,9.00594328 1.92611757,8.99656892 1.46427432,8.5344132 C1.0021186,8.07225748 0.992744242,7.34636989 1.40552836,6.85515366 C1.30366036,6.6582922 1.21929117,6.45330629 1.15054589,6.23894603 C0.507465108,6.18769955 0,5.65586112 0,4.99965624 C0,4.34313888 0.507465108,3.81098797 1.15054589,3.75974149 C1.21929117,3.54538123 1.30366036,3.34039532 1.40552836,3.14353386 C0.993056721,2.65231763 1.0021186,1.92643004 1.46427432,1.46427432 C1.92611757,1.00243108 2.65231763,0.993056721 3.14353386,1.40552836 C3.34039532,1.30334789 3.54538123,1.21960364 3.75942901,1.15023341 C3.81098797,0.50715263 4.34313888,0 4.99965624,0 C5.65586112,0 6.18801203,0.50715263 6.23957099,1.15023341 C6.45361877,1.21960364 6.65891715,1.30334789 6.85577862,1.40552836 C7.34668237,0.993056721 8.07288243,1.00243108 8.53472568,1.46427432 C8.9968814,1.92643004 9.00625576,2.65231763 8.59347164,3.14353386 C8.69533964,3.34039532 8.77939636,3.54538123 8.84845411,3.75974149 C9.49153489,3.81098797 9.99931248,4.34313888 9.99931248,4.99965624 L9.99931248,4.99965624 Z" id="Fill-380" stroke="#FFFFFF" stroke-width="0.2" fill="#FFFFFF"></path>
                                </g>
                            </g>
                        </g>
                        <g id="Group-5" transform="translate(288.000000, 0.000000)">
                            <path d="M16,32 C24.836556,32 32,24.836556 32,16 C32,7.163444 24.836556,0 16,0 C7.163444,0 0,7.163444 0,16 C0,24.836556 7.163444,32 16,32 Z" id="Oval-8" fill="#75BFEA"></path>
                            <g id="Group-11" transform="translate(8.000000, 7.000000)">
                                <path d="M7.09394044,13.8110567 C6.80069852,13.8110567 6.56270508,13.5735945 6.56270508,13.2803525 L6.56270508,10.0929404 C6.56270508,9.79969852 6.80069852,9.56170508 7.09394044,9.56170508 C7.38718235,9.56170508 7.62517579,9.79969852 7.62517579,10.0929404 L7.62517579,13.2803525 C7.62517579,13.5735945 7.38718235,13.8110567 7.09394044,13.8110567 L7.09394044,13.8110567 Z M12.9375293,8.49976562 C12.9375293,7.91221932 12.4615424,7.43676368 11.8750586,7.43676368 L2.31282228,7.43676368 C1.72633845,7.43676368 1.25035157,7.91221932 1.25035157,8.49976562 L1.25035157,14.8745898 C1.25035157,15.4600112 1.72633845,15.9359981 2.31282228,15.9359981 L11.8750586,15.9359981 C12.4615424,15.9359981 12.9375293,15.4600112 12.9375293,14.8745898 L12.9375293,8.49976562 Z M10.8125879,4.78111816 C10.8125879,2.72789353 9.14822754,1.0624707 7.09394044,1.0624707 C5.04018457,1.0624707 3.37529298,2.72789353 3.37529298,4.78111816 L3.37529298,6.37429298 L10.8125879,6.37429298 L10.8125879,4.78111816 Z M11.8750586,16.999 L2.31282228,16.999 C1.13932339,16.999 0.187880871,16.0475575 0.187880871,14.8745898 L0.187880871,8.49976562 C0.187880871,7.32626673 1.13932339,6.37429298 2.31282228,6.37429298 L2.31282228,4.78111816 C2.31282228,2.14087846 4.45370074,0 7.09394044,0 C9.73471137,0 11.8750586,2.14087846 11.8750586,4.78111816 L11.8750586,6.37429298 C13.0485575,6.37429298 14,7.32626673 14,8.49976562 L14,14.8745898 C14,16.0475575 13.0485575,16.999 11.8750586,16.999 L11.8750586,16.999 Z" id="Fill-390" fill="#FFFFFF"></path>
                                <g id="Group-2" transform="translate(8.000000, 9.000000)">
                                    <path d="M6,10 C8.76142375,10 11,7.76142375 11,5 C11,3.61928813 10.4403559,2.36928813 9.53553391,1.46446609 C9.07497706,1.00390925 8.52499022,0.632782403 7.91385595,0.379368123 C7.32433984,0.134918074 6.40216899,0.379368119 5.72424316,0.379368119 C2.96281942,0.379368119 1,2.23857625 1,5 C1,7.76142375 3.23857625,10 6,10 Z" id="Oval-11" fill="#75BFEA"></path>
                                    <path d="M4.99965624,3.74974218 C4.30907872,3.74974218 3.74974218,4.3093912 3.74974218,4.99965624 C3.74974218,5.68992128 4.30907872,6.24894534 4.99965624,6.24894534 C5.68992128,6.24894534 6.2495703,5.68992128 6.2495703,4.99965624 C6.2495703,4.3093912 5.68992128,3.74974218 4.99965624,3.74974218 L4.99965624,3.74974218 Z M4.99965624,6.87452733 C3.96410244,6.87452733 3.12478515,6.03489756 3.12478515,4.99965624 C3.12478515,3.96410244 3.96410244,3.12478515 4.99965624,3.12478515 C6.03489756,3.12478515 6.87452733,3.96410244 6.87452733,4.99965624 C6.87452733,6.03489756 6.03489756,6.87452733 4.99965624,6.87452733 L4.99965624,6.87452733 Z M8.37911138,4.37469921 C8.28974252,3.89098247 8.09381849,3.4469505 7.82477449,3.05791475 L8.09288106,2.78980818 C8.33692678,2.54576246 8.33692678,2.15016466 8.09288106,1.90611894 C7.84883534,1.66207322 7.45323754,1.66207322 7.20887934,1.90611894 L6.93921038,2.1757879 C6.54986215,1.90861877 6.1070801,1.71394465 5.62461327,1.62520076 L5.62461327,1.24991406 C5.62461327,0.904625301 5.34463252,0.62495703 4.99965624,0.62495703 C4.65467996,0.62495703 4.37469921,0.904625301 4.37469921,1.24991406 L4.37469921,1.62520076 C3.89223238,1.71394465 3.44882537,1.90861877 3.05947714,2.1757879 L2.78980818,1.90611894 C2.54607494,1.66207322 2.15016466,1.66207322 1.90611894,1.90611894 C1.66176074,2.15016466 1.66176074,2.54576246 1.90611894,2.78980818 L2.17391303,3.05791475 C1.90486903,3.4469505 1.708945,3.89098247 1.61988862,4.37469921 L1.24991406,4.37469921 C0.904937779,4.37469921 0.62495703,4.65436748 0.62495703,4.99965624 C0.62495703,5.34463252 0.904937779,5.62461327 1.24991406,5.62461327 L1.61988862,5.62461327 C1.708945,6.10770505 1.90486903,6.55173702 2.17391303,6.94108525 L1.90611894,7.20919182 C1.66176074,7.45355002 1.66176074,7.84852286 1.90611894,8.09256858 C2.15016466,8.3366143 2.54607494,8.3366143 2.78980818,8.09256858 L3.05947714,7.8232121 C3.44882537,8.09006875 3.8919199,8.28474287 4.37469921,8.37348677 L4.37469921,8.74908594 C4.37469921,9.0943747 4.65467996,9.37435545 4.99965624,9.37435545 C5.34463252,9.37435545 5.62461327,9.0943747 5.62461327,8.74908594 L5.62461327,8.37348677 C6.1070801,8.28474287 6.55017463,8.09006875 6.93921038,7.8232121 L7.20887934,8.09256858 C7.45323754,8.3366143 7.84883534,8.3366143 8.09288106,8.09256858 C8.33692678,7.84852286 8.33692678,7.45355002 8.09288106,7.20919182 L7.82477449,6.94108525 C8.09381849,6.55173702 8.28974252,6.10770505 8.37911138,5.62461327 L8.74939842,5.62461327 C9.0943747,5.62461327 9.37435545,5.34463252 9.37435545,4.99965624 C9.37435545,4.65436748 9.0943747,4.37469921 8.74939842,4.37469921 L8.37911138,4.37469921 Z M9.99931248,4.99965624 C9.99931248,5.65586112 9.49153489,6.18769955 8.84845411,6.23894603 C8.77939636,6.45330629 8.69533964,6.6582922 8.59347164,6.85515366 C9.00625576,7.34636989 8.9968814,8.07225748 8.53472568,8.5344132 C8.07288243,8.99656892 7.34668237,9.00594328 6.85577862,8.59315916 C6.65860468,8.69533964 6.45361877,8.77939636 6.23957099,8.84845411 C6.18801203,9.49153489 5.65586112,9.999 4.99965624,9.999 C4.34313888,9.999 3.81098797,9.49153489 3.75942901,8.84845411 C3.54538123,8.77939636 3.34039532,8.69533964 3.14353386,8.59315916 C2.65231763,9.00594328 1.92611757,8.99656892 1.46427432,8.5344132 C1.0021186,8.07225748 0.992744242,7.34636989 1.40552836,6.85515366 C1.30366036,6.6582922 1.21929117,6.45330629 1.15054589,6.23894603 C0.507465108,6.18769955 0,5.65586112 0,4.99965624 C0,4.34313888 0.507465108,3.81098797 1.15054589,3.75974149 C1.21929117,3.54538123 1.30366036,3.34039532 1.40552836,3.14353386 C0.993056721,2.65231763 1.0021186,1.92643004 1.46427432,1.46427432 C1.92611757,1.00243108 2.65231763,0.993056721 3.14353386,1.40552836 C3.34039532,1.30334789 3.54538123,1.21960364 3.75942901,1.15023341 C3.81098797,0.50715263 4.34313888,0 4.99965624,0 C5.65586112,0 6.18801203,0.50715263 6.23957099,1.15023341 C6.45361877,1.21960364 6.65891715,1.30334789 6.85577862,1.40552836 C7.34668237,0.993056721 8.07288243,1.00243108 8.53472568,1.46427432 C8.9968814,1.92643004 9.00625576,2.65231763 8.59347164,3.14353386 C8.69533964,3.34039532 8.77939636,3.54538123 8.84845411,3.75974149 C9.49153489,3.81098797 9.99931248,4.34313888 9.99931248,4.99965624 L9.99931248,4.99965624 Z" id="Fill-380" stroke="#FFFFFF" stroke-width="0.2" fill="#FFFFFF"></path>
                                </g>
                            </g>
                        </g>
                        <g id="Group-6" transform="translate(360.000000, 0.000000)">
                            <g id="Group-7">
                                <path d="M16,32 C24.836556,32 32,24.836556 32,16 C32,7.163444 24.836556,0 16,0 C7.163444,0 0,7.163444 0,16 C0,24.836556 7.163444,32 16,32 Z" id="Oval-8" fill="#8295F0"></path>
                                <path d="M16.7218462,23.2307692 C16.4664615,23.944 15.8012308,24.4621538 15,24.4621538 C14.1981538,24.4621538 13.5329231,23.944 13.2775385,23.2307692 L16.7218462,23.2307692 Z M20.5384615,13.1538462 C20.5384615,11.1150769 18.8855385,9.46153846 16.8461538,9.46153846 L13.1538462,9.46153846 C11.1144615,9.46153846 9.46153846,11.1150769 9.46153846,13.1538462 L9.46153846,21.7698462 L20.5384615,21.7698462 L20.5384615,13.1538462 Z M18.0769231,23 L16.7218462,23 L13.2775385,23 L11.9230769,23 L7,23 L8.23076927,20.935791 L8.23076923,17.4618462 L8.23076923,13.1538462 C8.23076923,10.4344615 10.4344615,8.23076923 13.1538462,8.23076923 L13.7692308,8.23076923 C13.7692308,7.55138462 14.3206154,7 15,7 C15.68,7 16.2307692,7.55138462 16.2307692,8.23076923 L16.8461538,8.23076923 C19.5649231,8.23076923 21.7692308,10.4344615 21.7692308,13.1538462 L21.7692308,20.935791 L23,23 L18.0769231,23 Z" id="Fill-431" fill="#FFFFFF"></path>
                                <g id="Group-2" transform="translate(15.000000, 14.000000)">
                                    <path d="M3.19525146,8.60742188 C4.34832764,8.76263428 4.85623389,9.33630371 5.83459473,9.33630371 C8.59601848,9.33630371 11,7.76142375 11,5 C11,2.23857625 7.70276896,1.14489746 4.94134521,1.14489746 C2.17992147,1.14489746 0.55291748,2.35887654 0.55291748,5.12030029 C0.55291748,6.9033632 2.04217529,8.45220947 3.19525146,8.60742188 Z" id="Oval-11" fill="#8295F0"></path>
                                    <path d="M4.99965624,3.74974218 C4.30907872,3.74974218 3.74974218,4.3093912 3.74974218,4.99965624 C3.74974218,5.68992128 4.30907872,6.24894534 4.99965624,6.24894534 C5.68992128,6.24894534 6.2495703,5.68992128 6.2495703,4.99965624 C6.2495703,4.3093912 5.68992128,3.74974218 4.99965624,3.74974218 L4.99965624,3.74974218 Z M4.99965624,6.87452733 C3.96410244,6.87452733 3.12478515,6.03489756 3.12478515,4.99965624 C3.12478515,3.96410244 3.96410244,3.12478515 4.99965624,3.12478515 C6.03489756,3.12478515 6.87452733,3.96410244 6.87452733,4.99965624 C6.87452733,6.03489756 6.03489756,6.87452733 4.99965624,6.87452733 L4.99965624,6.87452733 Z M8.37911138,4.37469921 C8.28974252,3.89098247 8.09381849,3.4469505 7.82477449,3.05791475 L8.09288106,2.78980818 C8.33692678,2.54576246 8.33692678,2.15016466 8.09288106,1.90611894 C7.84883534,1.66207322 7.45323754,1.66207322 7.20887934,1.90611894 L6.93921038,2.1757879 C6.54986215,1.90861877 6.1070801,1.71394465 5.62461327,1.62520076 L5.62461327,1.24991406 C5.62461327,0.904625301 5.34463252,0.62495703 4.99965624,0.62495703 C4.65467996,0.62495703 4.37469921,0.904625301 4.37469921,1.24991406 L4.37469921,1.62520076 C3.89223238,1.71394465 3.44882537,1.90861877 3.05947714,2.1757879 L2.78980818,1.90611894 C2.54607494,1.66207322 2.15016466,1.66207322 1.90611894,1.90611894 C1.66176074,2.15016466 1.66176074,2.54576246 1.90611894,2.78980818 L2.17391303,3.05791475 C1.90486903,3.4469505 1.708945,3.89098247 1.61988862,4.37469921 L1.24991406,4.37469921 C0.904937779,4.37469921 0.62495703,4.65436748 0.62495703,4.99965624 C0.62495703,5.34463252 0.904937779,5.62461327 1.24991406,5.62461327 L1.61988862,5.62461327 C1.708945,6.10770505 1.90486903,6.55173702 2.17391303,6.94108525 L1.90611894,7.20919182 C1.66176074,7.45355002 1.66176074,7.84852286 1.90611894,8.09256858 C2.15016466,8.3366143 2.54607494,8.3366143 2.78980818,8.09256858 L3.05947714,7.8232121 C3.44882537,8.09006875 3.8919199,8.28474287 4.37469921,8.37348677 L4.37469921,8.74908594 C4.37469921,9.0943747 4.65467996,9.37435545 4.99965624,9.37435545 C5.34463252,9.37435545 5.62461327,9.0943747 5.62461327,8.74908594 L5.62461327,8.37348677 C6.1070801,8.28474287 6.55017463,8.09006875 6.93921038,7.8232121 L7.20887934,8.09256858 C7.45323754,8.3366143 7.84883534,8.3366143 8.09288106,8.09256858 C8.33692678,7.84852286 8.33692678,7.45355002 8.09288106,7.20919182 L7.82477449,6.94108525 C8.09381849,6.55173702 8.28974252,6.10770505 8.37911138,5.62461327 L8.74939842,5.62461327 C9.0943747,5.62461327 9.37435545,5.34463252 9.37435545,4.99965624 C9.37435545,4.65436748 9.0943747,4.37469921 8.74939842,4.37469921 L8.37911138,4.37469921 Z M9.99931248,4.99965624 C9.99931248,5.65586112 9.49153489,6.18769955 8.84845411,6.23894603 C8.77939636,6.45330629 8.69533964,6.6582922 8.59347164,6.85515366 C9.00625576,7.34636989 8.9968814,8.07225748 8.53472568,8.5344132 C8.07288243,8.99656892 7.34668237,9.00594328 6.85577862,8.59315916 C6.65860468,8.69533964 6.45361877,8.77939636 6.23957099,8.84845411 C6.18801203,9.49153489 5.65586112,9.999 4.99965624,9.999 C4.34313888,9.999 3.81098797,9.49153489 3.75942901,8.84845411 C3.54538123,8.77939636 3.34039532,8.69533964 3.14353386,8.59315916 C2.65231763,9.00594328 1.92611757,8.99656892 1.46427432,8.5344132 C1.0021186,8.07225748 0.992744242,7.34636989 1.40552836,6.85515366 C1.30366036,6.6582922 1.21929117,6.45330629 1.15054589,6.23894603 C0.507465108,6.18769955 0,5.65586112 0,4.99965624 C0,4.34313888 0.507465108,3.81098797 1.15054589,3.75974149 C1.21929117,3.54538123 1.30366036,3.34039532 1.40552836,3.14353386 C0.993056721,2.65231763 1.0021186,1.92643004 1.46427432,1.46427432 C1.92611757,1.00243108 2.65231763,0.993056721 3.14353386,1.40552836 C3.34039532,1.30334789 3.54538123,1.21960364 3.75942901,1.15023341 C3.81098797,0.50715263 4.34313888,0 4.99965624,0 C5.65586112,0 6.18801203,0.50715263 6.23957099,1.15023341 C6.45361877,1.21960364 6.65891715,1.30334789 6.85577862,1.40552836 C7.34668237,0.993056721 8.07288243,1.00243108 8.53472568,1.46427432 C8.9968814,1.92643004 9.00625576,2.65231763 8.59347164,3.14353386 C8.69533964,3.34039532 8.77939636,3.54538123 8.84845411,3.75974149 C9.49153489,3.81098797 9.99931248,4.34313888 9.99931248,4.99965624 L9.99931248,4.99965624 Z" id="Fill-380" stroke="#FFFFFF" stroke-width="0.2" fill="#FFFFFF"></path>
                                </g>
                            </g>
                        </g>
                        <g id="Group-10" transform="translate(432.000000, 0.000000)">
                            <path d="M16,32 C24.836556,32 32,24.836556 32,16 C32,7.163444 24.836556,0 16,0 C7.163444,0 0,7.163444 0,16 C0,24.836556 7.163444,32 16,32 Z" id="Oval-8" fill="#778F9F"></path>
                            <path d="M14.2857143,9.04761905 C12.2606667,9.04761905 10.6190476,10.6892381 10.6190476,12.7137619 C10.6190476,14.7388095 12.2606667,16.3809524 14.2857143,16.3809524 C16.3107619,16.3809524 17.952381,14.7388095 17.952381,12.7137619 C17.952381,10.6892381 16.3107619,9.04761905 14.2857143,9.04761905 M16.5920476,16.8240952 C17.3625714,17.1284286 18.0487619,17.5914762 18.6359524,18.1561429 C18.3913333,18.4039048 18.1907143,18.689381 18.0136667,18.991619 C17.064,18.0283333 15.7460952,17.4285714 14.2857143,17.4285714 C11.3927143,17.4285714 9.04761905,19.7736667 9.04761905,22.6661429 L9.04761905,23.7142857 L8,23.7142857 L8,22.6661429 C8,20.0109524 9.65,17.7439048 11.979381,16.8240952 C10.5430952,16.0153333 9.57142857,14.479 9.57142857,12.7137619 C9.57142857,10.1104286 11.6818571,8 14.2857143,8 C16.8895714,8 19,10.1104286 19,12.7137619 C19,14.479 18.0283333,16.0153333 16.5920476,16.8240952" id="Fill-423" fill="#FFFFFF"></path>
                            <circle id="Oval-9" stroke="#FFFFFF" fill-opacity="0" fill="#FFFFFF" cx="21.5" cy="20.5" r="3.5"></circle>
                            <path d="M19.4786377,22.9727783 C19.2652641,23.1861519 18.9195448,23.1861519 18.7061712,22.9727783 C18.4931835,22.7597905 18.4931835,22.4140713 18.7065571,22.2006977 L23.7036507,18.3161645 C23.9170243,18.1027909 24.2623577,18.1031768 24.4753454,18.3161645 C24.688719,18.5295381 24.6891049,18.8748715 24.4757313,19.0882451 L19.4786377,22.9727783 Z" id="Path" fill="#FFFFFF"></path>
                        </g>
                    </g>
                </g>
            </g>
        </g>
    </g>
</svg>