<?xml version="1.0" encoding="UTF-8"?>
<svg width="158px" height="41px" viewBox="0 0 158 41" version="1.1" xmlns="http://www.w3.org/2000/svg" xmlns:xlink="http://www.w3.org/1999/xlink">
    <!-- Generator: Sketch 47 (45396) - http://www.bohemiancoding.com/sketch -->
    <title>Group 71</title>
    <desc>Created with Sketch.</desc>
    <defs></defs>
    <g id="Page-1" stroke="none" stroke-width="1" fill="none" fill-rule="evenodd">
        <g id="Desktop" transform="translate(-1193.000000, -6591.000000)">
            <g id="Group-20" transform="translate(109.000000, 6284.000000)">
                <g id="Group-71" transform="translate(1084.000000, 307.000000)">
                    <g id="Group-70">
                        <rect id="Rectangle-16" fill="#EBEBEB" x="0" y="0" width="158" height="41"></rect>
                        <g id="Group" transform="translate(35.000000, 9.000000)" fill="#FFFFFF">
                            <path d="M18.5002885,24 C17.6728217,24 17,23.3273077 17,22.5 C17,21.6726923 17.6728217,21 18.5002885,21 C19.3271783,21 20,21.6726923 20,22.5 C20,23.3273077 19.3271783,24 18.5002885,24 L18.5002885,24 Z" id="Path"></path>
                            <path d="M9.50028852,24 C8.6728217,24 8,23.3273077 8,22.5 C8,21.6726923 8.6728217,21 9.50028852,21 C10.3271783,21 11,21.6726923 11,22.5 C11,23.3273077 10.3271783,24 9.50028852,24 L9.50028852,24 Z" id="Path"></path>
                            <path d="M7.9934261,19 C7.5,18.9999997 7.44766941,18.9045091 7.37992981,18.6538769 L3.4182231,1.99581846 L0.499919604,1.99581846 C0.223821631,1.99581846 0,1.7648547 0,1.49790923 C0,1.22292155 0.215802421,1 0.499919604,1 L3.52239128,1 C3.64097266,1 4,1 4.31735235,1.47499144 L5.65081787,5.97909212 L23.6021522,5.97909228 C23.8760941,5.97909228 24.0502466,6.18813168 23.9870265,6.46390611 L20.6981536,18.4482814 C20.6367719,18.7160367 20.2726916,18.9999997 20,18.9999997 C20,18.9999997 8.05057801,19 7.9934261,19 Z M5.93078613,7.00619897 L8.09956382,17.5134247 C8.15669273,17.7902011 8.42315514,18 8.69843471,18 L19.3015653,18 C19.5786357,18 19.8591915,17.7821528 19.9322042,17.5134247 L22.6547866,7.49277423 C22.7299859,7.21599786 22.5611276,7.00619897 22.2825151,7.00619897 L5.93078613,7.00619897 Z" id="Rectangle"></path>
                            <path d="M13.5,12 L11.0034227,12 C10.7329025,12 10.5,12.2238576 10.5,12.5 C10.5,12.7680664 10.72539,13 11.0034227,13 L13.5,13 L13.5,15.4965773 C13.5,15.7670975 13.7238576,16 14,16 C14.2680664,16 14.5,15.77461 14.5,15.4965773 L14.5,13 L16.9965773,13 C17.2670975,13 17.5,12.7761424 17.5,12.5 C17.5,12.2319336 17.27461,12 16.9965773,12 L14.5,12 L14.5,9.50342274 C14.5,9.23290253 14.2761424,9 14,9 C13.7319336,9 13.5,9.22539004 13.5,9.50342274 L13.5,12 Z" id="Rectangle-146"></path>
                        </g>
                        <g id="Page-1" transform="translate(99.000000, 9.000000)" fill="#FFFFFF">
                            <g id="Group-2" transform="translate(0.000000, 2.000000)">
                                <path d="M10.08,17.5664 C9.50208,17.5664 8.92224,17.5244 8.35584,17.4424 C8.0928,17.4044 7.90944,17.1514 7.94592,16.8784 C7.9824,16.6044 8.22432,16.4184 8.48736,16.4524 C9.01056,16.5284 9.54624,16.5664 10.08,16.5664 C15.10848,16.5664 19.2,13.2024 19.2,9.0664 C19.2,4.9304 15.10848,1.5664 10.08,1.5664 C5.05152,1.5664 0.96,4.9304 0.96,9.0664 C0.96,11.1844 2.25696,13.6054 4.11264,14.9534 C4.15392,14.9824 4.54464,15.2624 4.58592,15.2924 C4.80672,15.4454 4.86624,15.7554 4.71936,15.9854 C4.57248,16.2144 4.27488,16.2764 4.05408,16.1244 C4.01088,16.0944 3.60672,15.8044 3.56448,15.7734 C1.43232,14.2264 0,11.5314 0,9.0664 C0,4.3794 4.5216,0.5664 10.08,0.5664 C15.6384,0.5664 20.16,4.3794 20.16,9.0664 C20.16,13.7534 15.6384,17.5664 10.08,17.5664" id="Fill-1"></path>
                                <path d="M3.532992,19.4336 C3.482112,19.4336 3.430272,19.4246 3.379392,19.4076 C3.128832,19.3196 2.993472,19.0356 3.077952,18.7736 L4.069632,15.7086 C4.154112,15.4496 4.427712,15.3106 4.677312,15.3956 C4.928832,15.4836 5.064192,15.7676 4.978752,16.0296 L3.988032,19.0936 C3.919872,19.3016 3.733632,19.4336 3.532992,19.4336" id="Fill-3"></path>
                                <path d="M3.532992,19.4336 C3.342912,19.4336 3.162432,19.3146 3.087552,19.1196 C2.988672,18.8636 3.108672,18.5726 3.354432,18.4696 L8.106432,16.4896 C8.350272,16.3856 8.631552,16.5116 8.730432,16.7676 C8.828352,17.0236 8.709312,17.3146 8.462592,17.4166 L3.711552,19.3976 C3.652992,19.4216 3.592512,19.4336 3.532992,19.4336" id="Fill-5"></path>
                                <path d="M20.1669389,16.9873 C20.0123789,16.9873 19.8616589,16.9103 19.7685389,16.7673 C19.6206989,16.5383 19.6782989,16.2273 19.8981389,16.0733 L20.3051789,15.7813 C21.8632589,14.6503 22.9528589,12.6163 22.9528589,10.8373 C22.9528589,8.4923 21.1442189,6.3393 18.5531789,5.5993 C18.2978189,5.5263 18.1470989,5.2513 18.2171789,4.9853 C18.2872589,4.7183 18.5512589,4.5653 18.8075789,4.6343 C21.8133389,5.4933 23.9128589,8.0433 23.9128589,10.8373 C23.9128589,12.9573 22.6821389,15.2743 20.8504589,16.6043 L20.4347789,16.9013 C20.3522189,16.9603 20.2590989,16.9873 20.1669389,16.9873" id="Fill-7"></path>
                                <path d="M17.334816,17.791 C16.827936,17.791 14.698656,17.582 13.685856,17.121 C13.442976,17.011 13.332576,16.716 13.438176,16.463 C13.544736,16.211 13.825056,16.096 14.070816,16.205 C14.901216,16.583 16.843296,16.791 17.334816,16.791 C17.599776,16.791 17.814816,17.015 17.814816,17.291 C17.814816,17.567 17.599776,17.791 17.334816,17.791" id="Fill-9"></path>
                                <path d="M20.5705849,20 C20.3334649,20 20.1280249,19.817 20.0953849,19.566 L19.7085049,16.554 C19.6729849,16.28 19.8582649,16.028 20.1203449,15.992 C20.3833849,15.944 20.6253049,16.147 20.6598649,16.421 L21.0467449,19.434 C21.0822649,19.707 20.8969849,19.959 20.6349049,19.995 C20.6128249,19.999 20.5917049,20 20.5705849,20" id="Fill-11" transform="translate(20.377625, 17.992475) rotate(-357.000000) translate(-20.377625, -17.992475) "></path>
                                <path d="M20.369568,20 C20.274528,20 20.178528,19.971 20.095008,19.91 L17.060448,17.701 C16.842528,17.543 16.789728,17.231 16.941408,17.005 C17.093088,16.777 17.391648,16.724 17.609568,16.881 L20.645088,19.09 C20.862048,19.248 20.914848,19.56 20.763168,19.786 C20.670048,19.926 20.521248,20 20.369568,20" id="Fill-13"></path>
                                <path d="M6.720096,9.3161 C6.720096,10.0061 6.182496,10.5661 5.520096,10.5661 C4.857696,10.5661 4.320096,10.0061 4.320096,9.3161 C4.320096,8.6261 4.857696,8.0661 5.520096,8.0661 C6.182496,8.0661 6.720096,8.6261 6.720096,9.3161" id="Fill-15"></path>
                                <path d="M11.520096,9.3161 C11.520096,10.0061 10.982496,10.5661 10.320096,10.5661 C9.657696,10.5661 9.120096,10.0061 9.120096,9.3161 C9.120096,8.6261 9.657696,8.0661 10.320096,8.0661 C10.982496,8.0661 11.520096,8.6261 11.520096,9.3161" id="Fill-17"></path>
                                <path d="M16.320096,9.3161 C16.320096,10.0061 15.782496,10.5661 15.120096,10.5661 C14.457696,10.5661 13.920096,10.0061 13.920096,9.3161 C13.920096,8.6261 14.457696,8.0661 15.120096,8.0661 C15.782496,8.0661 16.320096,8.6261 16.320096,9.3161" id="Fill-19"></path>
                            </g>
                        </g>
                    </g>
                </g>
            </g>
        </g>
    </g>
</svg>