<?xml version="1.0" encoding="UTF-8"?>
<svg width="728px" height="56px" viewBox="0 0 728 56" version="1.1" xmlns="http://www.w3.org/2000/svg" xmlns:xlink="http://www.w3.org/1999/xlink">
    <!-- Generator: Sketch 47 (45396) - http://www.bohemiancoding.com/sketch -->
    <title>Group 66</title>
    <desc>Created with Sketch.</desc>
    <defs></defs>
    <g id="Page-1" stroke="none" stroke-width="1" fill="none" fill-rule="evenodd">
        <g id="Desktop" transform="translate(-1107.000000, -8228.000000)">
            <g id="Group-20" transform="translate(25.000000, 6209.000000)">
                <g id="Group-66" transform="translate(1082.000000, 2019.000000)">
                    <g id="Group-65">
                        <g id="Products-" transform="translate(192.000000, 0.000000)">
                            <g id="text-field-copy-4-+-Imported-Layers">
                                <rect id="text-field-copy-4" fill="#FF6286" x="0" y="0" width="56" height="56" rx="4"></rect>
                                <g id="Imported-Layers" transform="translate(13.000000, 15.000000)" fill="#FFFFFF">
                                    <path d="M7.99999999,26 L23.0000007,26 C24.0200007,26 25.0000007,25.076 25.0000007,24 L25.0000007,22 L6,22 L6,24 C6,25.076 6.97999999,26 7.99999999,26 Z" id="Fill-1"></path>
                                    <path d="M20.929,0.103 C20.839,0.075 20.825,0.059 20.804,0.053 C20.674,0.033 20.621,0.027 20.566,0.028 C20.522,0.029 20.481,0.034 20.438,0.042 C20.387,0.052 20.34,0.066 20.292,0.086 C20.25,0.104 20.213,0.125 20.175,0.15 C20.134,0.177 20.097,0.206 20.061,0.242 C20.026,0.276 19.997,0.314 19.969,0.356 C19.953,0.379 19.93,0.395 19.917,0.42 C19.906,0.441 19.907,0.464 19.898,0.486 C19.889,0.508 19.872,0.523 19.865,0.546 C19.243,2.542 17.545,3.883 15.639,3.883 C13.732,3.883 12.033,2.541 11.411,0.545 C11.404,0.522 11.387,0.506 11.378,0.484 C11.369,0.463 11.37,0.44 11.359,0.42 C11.347,0.396 11.325,0.381 11.31,0.359 C11.28,0.314 11.25,0.274 11.212,0.237 C11.179,0.206 11.146,0.179 11.109,0.154 C11.067,0.126 11.024,0.102 10.977,0.083 C10.934,0.065 10.893,0.053 10.848,0.044 C10.8,0.034 10.754,0.028 10.704,0.028 C10.653,0.027 10.605,0.033 10.555,0.043 C10.45,0.059 10.434,0.076 10.413,0.084 C10.391,0.093 1.161,4.91 1.161,4.91 C0.858,5.068 0.7,5.412 0.778,5.745 L1.879,10.456 C1.958,10.795 2.15200005,11.0350004 2.50000005,11.0350004 L6.00000005,11.0350004 L6.00000005,21.0000006 L24.9999996,21.0000006 L24.9999996,11.0350004 L28.4999996,11.0350004 C28.8489996,11.0350004 29.4199996,10.795 29.4999996,10.456 L30.4999996,6.0000001 C30.4999996,5.5000001 30.3029996,5.1580001 29.9999996,5.0000001 L20.929,0.103 Z" id="Fill-2"></path>
                                </g>
                            </g>
                        </g>
                        <g id="camera" transform="translate(96.000000, 0.000000)">
                            <g transform="translate(26.000000, 18.000000)"></g>
                            <g id="text-field-copy-2-+-Imported-Layers">
                                <rect id="text-field-copy-2" fill="#FFC107" x="0" y="0" width="56" height="56" rx="4"></rect>
                                <g id="Imported-Layers" transform="translate(13.000000, 14.000000)" fill="#FFFFFF">
                                    <path d="M30.285,4.768 L30.285,4.65 L30.188,4.65 C29.72,4.167 29.067,3.865 28.341,3.865 L23.832,3.865 L23.832,1.932 C23.832,0.867 22.965,0 21.9,0 L9.017,0 C7.952,0 7.085,0.867 7.085,1.932 L7.085,3.865 L2.576,3.865 C1.85,3.865 1.197,4.167 0.729,4.65 L0.632,4.65 L0.632,4.768 C0.243,5.219 0,5.799 0,6.441 L0,24.476 C0,25.119 0.243,25.699 0.632,26.15 L0.632,26.242 L0.708,26.242 C1.178,26.739 1.839,27.053 2.576,27.053 L28.341,27.053 C29.078,27.053 29.739,26.739 30.209,26.242 L30.285,26.242 L30.285,26.15 C30.674,25.699 30.917,25.119 30.917,24.476 L30.917,6.441 C30.917,5.799 30.674,5.219 30.285,4.768 L30.285,4.768 Z M15.459,23.338 C11.114,23.338 7.579,19.803 7.579,15.459 C7.579,11.114 11.114,7.579 15.459,7.579 C19.803,7.579 23.338,11.114 23.338,15.459 C23.338,19.803 19.803,23.338 15.459,23.338 L15.459,23.338 Z" id="Fill-1"></path>
                                    <path d="M15.4589575,9.51482988 C12.0901549,9.51482988 9.349,12.2550699 9.349,15.6238724 C9.349,18.99176 12.0901549,21.732 15.4589575,21.732 C18.82776,21.732 21.568,18.99176 21.568,15.6238724 C21.568,12.2550699 18.82776,9.51482988 15.4589575,9.51482988 L15.4589575,9.51482988 Z M15.4589575,19.1591937 C13.5055644,19.1591937 11.9227212,17.5763506 11.9227212,15.6238724 C11.9227212,13.6713942 13.5055644,12.0876362 15.4589575,12.0876362 C16.4342816,12.0876362 17.3181119,12.4828895 17.9576538,13.1224313 C18.5981105,13.7628881 18.9942788,14.6467184 18.9942788,15.6238724 C18.9942788,17.5763506 17.4114356,19.1591937 15.4589575,19.1591937 L15.4589575,19.1591937 Z" id="Fill-2"></path>
                                </g>
                            </g>
                        </g>
                        <g id="Group">
                            <g id="text-field-copy-+-Imported-Layers">
                                <rect id="text-field-copy" fill="#44B5FF" x="0" y="0" width="56" height="56" rx="4"></rect>
                                <g id="Imported-Layers" transform="translate(13.000000, 16.000000)" fill="#FFFFFF">
                                    <path d="M29.359,15.192 C29.336,15.178 29.31,15.173 29.289,15.156 C25.38,12.038 22.096,14.546 18.619,17.203 C16.559,18.777 14.613,20.264 12.49,20.622 C11.852,20.731 11.243,20.779 10.663,20.779 C5.395,20.779 2.486,16.7 1.431,14.838 C1.429,14.834 1.428,14.838 1.426,14.833 C1.42,14.819 1.411,14.805 1.405,14.791 C1.286,14.58 1.185,14.389 1.115,14.249 C1,14.053 0.906,13.907 0.906,13.906 L0.906,21.006 C0.906,23.073 2.588,24.756 4.656,24.756 L26.756,24.756 C28.824,24.756 30.506,23.073 30.506,21.006 L30.506,16.289 C30.521,16.059 29.766,15.485 29.359,15.192" id="Fill-1"></path>
                                    <path d="M26.756,0.344 L4.656,0.344 C2.588,0.344 0.906,2.026 0.906,4.094 L0.906,11.165 C0.907,11.166 1.711,12.21 2.324,13.328 C2.339,13.342 2.349,13.351 2.349,13.351 C2.468,13.636 5.338,20.303 12.24,19.144 C13.998,18.847 15.8,17.47 17.708,16.011 C21.228,13.321 25.209,10.3 29.884,13.74 L29.891,13.729 L30.019,13.837 C30.088,13.89 30.155,13.929 30.224,13.984 C30.257,14.01 30.274,14.046 30.301,14.076 L30.506,14.249 L30.506,4.094 C30.506,2.026 28.824,0.344 26.756,0.344 L26.756,0.344 Z M10.459,12.196 C8.799,12.196 7.454,10.851 7.454,9.191 C7.454,7.531 8.799,6.186 10.459,6.186 C12.119,6.186 13.464,7.531 13.464,9.191 C13.464,10.851 12.119,12.196 10.459,12.196 L10.459,12.196 Z" id="Fill-2"></path>
                                </g>
                            </g>
                        </g>
                        <g id="call" transform="translate(384.000000, 0.000000)">
                            <g id="text-field-copy-2-+-Page-1">
                                <rect id="text-field-copy-2" fill="#508BCE" x="0" y="0" width="56" height="56" rx="4"></rect>
                                <g id="Page-1" transform="translate(16.000000, 16.000000)">
                                    <path d="M18.599,18.849 C16.073,20.973 10.693,15.872 9.925,15.12 C9.172,14.351 4.071,8.971 6.195,6.445" id="Stroke-1" stroke="#FFFFFF" stroke-width="1.5" stroke-linecap="round" stroke-linejoin="round"></path>
                                    <path d="M24.417,19.686 L21.357,16.626 C20.914,16.183 20.193,16.183 19.75,16.626 L18.071,18.305 C17.824,18.552 17.798,18.923 17.969,19.211 L17.77,19.277 L13.398,17.931 L8.616,13.664 L5.937,9.326 L5.732,7.009 C5.871,7.126 6.037,7.193 6.209,7.193 C6.401,7.193 6.593,7.12 6.739,6.974 L8.418,5.295 C8.861,4.852 8.861,4.131 8.418,3.687 L5.358,0.627 C4.917,0.185 4.195,0.185 3.75,0.627 L2.071,2.306 C2.064,2.313 2.062,2.322 2.056,2.329 C2.048,2.337 2.038,2.34 2.03,2.349 C1.923,2.472 -0.584,5.403 1.476,9.833 C3.484,14.152 6.704,17.199 7.278,17.716 C7.847,18.342 10.903,21.565 15.211,23.568 C16.493,24.165 17.649,24.379 18.648,24.379 C21.103,24.379 22.608,23.09 22.695,23.014 C22.704,23.006 22.707,22.996 22.715,22.988 C22.722,22.982 22.731,22.98 22.738,22.973 L24.415,21.296 C24.631,21.081 24.75,20.795 24.75,20.49 C24.75,20.185 24.631,19.899 24.417,19.686" id="Fill-2" fill="#FFFFFF"></path>
                                    <path d="M18.034,11.733 C18.006,11.733 17.978,11.731 17.949,11.729 C17.537,11.682 17.241,11.31 17.288,10.899 C17.365,10.218 17.133,9.551 16.651,9.069 C16.169,8.587 15.495,8.356 14.821,8.433 C14.419,8.477 14.038,8.185 13.992,7.771 C13.945,7.36 14.241,6.989 14.653,6.942 C15.789,6.81 16.905,7.202 17.712,8.009 C18.519,8.815 18.907,9.931 18.778,11.067 C18.735,11.45 18.41,11.733 18.034,11.733" id="Fill-3" fill="#FFFFFF"></path>
                                    <path d="M21.841,12.25 C21.812,12.25 21.784,12.248 21.756,12.245 C21.344,12.198 21.048,11.827 21.095,11.416 C21.307,9.543 20.667,7.707 19.341,6.38 C18.014,5.054 16.181,4.413 14.305,4.626 C13.903,4.672 13.522,4.376 13.476,3.965 C13.429,3.554 13.725,3.183 14.137,3.136 C16.458,2.87 18.748,3.668 20.401,5.319 C22.053,6.972 22.849,9.255 22.585,11.584 C22.542,11.967 22.217,12.25 21.841,12.25" id="Fill-4" fill="#FFFFFF"></path>
                                </g>
                            </g>
                        </g>
                        <g id="call-copy" transform="translate(480.000000, 0.000000)">
                            <g id="text-field-copy-2-+-Group-+-Group">
                                <rect id="text-field-copy-2" fill="#C47FE4" x="0" y="0" width="56" height="56" rx="4"></rect>
                                <g id="Group-+-Group" transform="translate(16.000000, 14.000000)">
                                    <g id="Group">
                                        <path d="M16.4324246,17.1504658 L16.4324246,20.6400128 L16.4324246,25.791988 C16.4324246,26.8944061 15.5319857,27.7880925 14.4375879,27.7880925 L2.92559478,27.7880925 C1.82387685,27.7880925 0.930757998,26.8950055 0.930757998,25.7896414 L0.930757998,1.99845109 C0.930757998,0.894737028 1.83119694,0 2.92559478,0 L14.4375879,0 C15.5393058,0 16.4324246,0.895148426 16.4324246,2.00226249 L16.4324246,4.30011985 C14.4084326,5.71405652 13.444124,8.02381358 13.444124,10.098166 C13.444124,11.1804293 13.9013263,12.2652682 14.6394914,13.1930009 L14.1318243,16.0721237 C13.9568291,17.0645711 14.5983024,17.6448768 15.5616094,17.3852051 L16.4324246,17.1504658 Z M16.4324246,15.2772956 L15.4464114,14.0460639 C15.7517967,14.3193911 16.082741,14.5687791 16.4324246,14.7880487 L16.4324246,15.2772956 Z" id="Rectangle-422" fill="#FFFFFF"></path>
                                        <ellipse id="Oval-192" fill="#B45ED2" cx="8.90657697" cy="24.7333333" rx="1.40630163" ry="1.4"></ellipse>
                                        <path d="M0.646386034,21.9333333 L19.5343182,21.9333333" id="Path-423" stroke="#C47FE4"></path>
                                        <path d="M0.930757998,2.33333333 L19.8186902,2.33333333" id="Path-423-Copy" stroke="#C47FE4"></path>
                                    </g>
                                    <g id="Group" transform="translate(14.559358, 3.652174)">
                                        <path d="M3.59754466,11.586059 C4.51788797,12.0264561 5.56386054,12.2753623 6.67303909,12.2753623 C10.3584568,12.2753623 13.3460782,9.52742886 13.3460782,6.13768116 C13.3460782,2.74793346 10.3584568,0 6.67303909,0 C2.98762137,0 0,2.74793346 0,6.13768116 C0,7.41456151 0.42392713,8.60037192 1.14939003,9.58254013 L0.490460743,11.7498645 C0.216766163,12.6500899 0.675474018,13.0324175 1.51034383,12.6191759 L3.59754466,11.586059 Z" id="Oval-193" fill="#FFFFFF"></path>
                                        <ellipse id="Oval-195" fill="#B45ED2" cx="3.42132473" cy="5.86487772" rx="1" ry="1"></ellipse>
                                        <ellipse id="Oval-195-Copy" fill="#C47FE4" cx="7.06116423" cy="5.86487772" rx="1" ry="1"></ellipse>
                                        <ellipse id="Oval-195-Copy-2" fill="#C47FE4" cx="10.7010037" cy="5.86487772" rx="1" ry="1"></ellipse>
                                    </g>
                                </g>
                            </g>
                        </g>
                        <g id="orders" transform="translate(288.000000, 0.000000)">
                            <g id="text-field-copy-+-Imported-Layers">
                                <rect id="text-field-copy" fill="#00BFA5" x="0" y="0" width="56" height="56" rx="4"></rect>
                                <g id="Imported-Layers" transform="translate(16.000000, 14.000000)" fill="#FFFFFF">
                                    <path d="M22.8597826,4.97 L18.1467391,1.12646154 C17.8913043,0.918615385 17.5086957,1.09846154 17.5086957,1.42476923 L17.5086957,5.26830769 C17.5086957,5.48153846 17.6826087,5.65492308 17.8978261,5.65492308 L22.6119565,5.65492308 C22.9782609,5.65492308 23.1423913,5.20046154 22.8597826,4.97" id="Fill-1"></path>
                                    <path d="M16.5630435,7.25953846 C16.1130435,7.25953846 15.7478261,6.89769231 15.7478261,6.45184615 L15.7478261,0.175538462 L3.12173913,0.175538462 C1.95,0.175538462 0.990217391,1.12646154 0.990217391,2.28738462 L0.990217391,25.088 C0.990217391,26.2489231 1.95,27.1998462 3.12173913,27.1998462 L22.1282609,27.1998462 C23.3,27.1998462 24.2597826,26.2489231 24.2597826,25.088 L24.2597826,7.25953846 L16.5630435,7.25953846 L16.5630435,7.25953846 Z M4.72065217,7.14 L12.7576087,7.14 C13.2076087,7.14 13.5728261,7.50184615 13.5728261,7.94769231 C13.5728261,8.39353846 13.2076087,8.75538462 12.7576087,8.75538462 L4.72065217,8.75538462 C4.27065217,8.75538462 3.90543478,8.39353846 3.90543478,7.94769231 C3.90543478,7.50184615 4.27065217,7.14 4.72065217,7.14 L4.72065217,7.14 Z M20.5304348,21.5136923 L4.72065217,21.5136923 C4.27065217,21.5136923 3.90543478,21.1529231 3.90543478,20.706 C3.90543478,20.2601538 4.27065217,19.8983077 4.72065217,19.8983077 L20.5304348,19.8983077 C20.9804348,19.8983077 21.3456522,20.2601538 21.3456522,20.706 C21.3456522,21.1529231 20.9804348,21.5136923 20.5304348,21.5136923 L20.5304348,21.5136923 Z M20.5304348,15.0112308 L4.72065217,15.0112308 C4.27065217,15.0112308 3.90543478,14.6493846 3.90543478,14.2035385 C3.90543478,13.7576923 4.27065217,13.3958462 4.72065217,13.3958462 L20.5304348,13.3958462 C20.9804348,13.3958462 21.3456522,13.7576923 21.3456522,14.2035385 C21.3456522,14.6493846 20.9804348,15.0112308 20.5304348,15.0112308 L20.5304348,15.0112308 Z" id="Fill-2"></path>
                                </g>
                            </g>
                        </g>
                        <g id="Offer" transform="translate(576.000000, 0.000000)">
                            <g id="text-field-copy-2-+-Group-+-Group">
                                <rect id="text-field-copy-2" fill="#9CC444" x="0" y="0" width="56" height="56" rx="4"></rect>
                                <g id="Group-+-Group" transform="translate(16.000000, 10.000000)">
                                    <g id="Group">
                                        <path d="M2.00494659,34.0198684 C0.897645164,34.0198684 2.02875993e-10,33.1248895 1.93606266e-10,32.0228637 L1.43539908e-13,9.02316748 C-4.51735078e-12,8.46906038 0.372294903,7.76059103 0.824808597,7.44544759 L11.1751914,0.237145761 C11.6307206,-0.0800977749 12.3722949,-0.0779976675 12.8248086,0.237145798 L23.1751914,7.44544809 C23.6307206,7.76269164 24,8.47114705 24,9.02316799 L24,32.0228637 C24,33.1257789 23.1029738,34.0198684 21.9950534,34.0198684 L2.00494659,34.0198684 Z" id="Path" fill="#FFFFFF"></path>
                                        <circle id="Rectangle-422" fill="#9CC444" cx="12" cy="6" r="2"></circle>
                                        <path d="M6.5,18 C6.5,18.2089563 6.51731584,18.4048498 6.55194805,18.5876866 C6.58658026,18.7705233 6.64285675,18.9291038 6.72077922,19.0634328 C6.79870169,19.1977619 6.90043227,19.3041041 7.02597403,19.3824627 C7.15151578,19.4608213 7.3051939,19.5 7.48701299,19.5 C7.66883208,19.5 7.82467468,19.4608213 7.95454545,19.3824627 C8.08441623,19.3041041 8.1883113,19.1977619 8.26623377,19.0634328 C8.34415623,18.9291038 8.40259721,18.7705233 8.44155844,18.5876866 C8.48051968,18.4048498 8.5,18.2089563 8.5,18 C8.5,17.8134319 8.48484864,17.6305979 8.45454545,17.4514925 C8.42424227,17.2723872 8.37013026,17.111941 8.29220779,16.9701493 C8.21428532,16.8283575 8.11039026,16.7145527 7.98051948,16.6287313 C7.8506487,16.54291 7.68614818,16.5 7.48701299,16.5 C7.28787779,16.5 7.12337727,16.54291 6.99350649,16.6287313 C6.86363571,16.7145527 6.76190513,16.8283575 6.68831169,16.9701493 C6.61471825,17.111941 6.56493519,17.2723872 6.53896104,17.4514925 C6.51298688,17.6305979 6.5,17.8134319 6.5,18 L6.5,18 Z M7.5,21 C7.05089596,21 6.66666826,20.9195988 6.34730539,20.758794 C6.02794251,20.5979891 5.76846407,20.3819109 5.56886228,20.1105528 C5.36926048,19.8391946 5.22455135,19.5226149 5.13473054,19.160804 C5.04490973,18.7989932 5,18.4120624 5,18 C5,17.5979879 5.04740472,17.2135697 5.14221557,16.8467337 C5.23702642,16.4798977 5.38672552,16.1608054 5.59131737,15.8894472 C5.79590921,15.6180891 6.05538765,15.4020109 6.36976048,15.241206 C6.68413331,15.0804012 7.06087605,15 7.5,15 C7.93912395,15 8.31586669,15.0804012 8.63023952,15.241206 C8.94461235,15.4020109 9.20409079,15.6180891 9.40868263,15.8894472 C9.61327448,16.1608054 9.76297358,16.4798977 9.85778443,16.8467337 C9.95259528,17.2135697 10,17.5979879 10,18 C10,18.4120624 9.95509027,18.7989932 9.86526946,19.160804 C9.77544865,19.5226149 9.63073952,19.8391946 9.43113772,20.1105528 C9.23153593,20.3819109 8.97205749,20.5979891 8.65269461,20.758794 C8.33333174,20.9195988 7.94910404,21 7.5,21 L7.5,21 Z M16.5,28 C16.050896,28 15.6666683,27.9195988 15.3473054,27.758794 C15.0279425,27.5979891 14.7684641,27.3819109 14.5688623,27.1105528 C14.3692605,26.8391946 14.2245513,26.5226149 14.1347305,26.160804 C14.0449097,25.7989932 14,25.4120624 14,25 C14,24.5979879 14.0474047,24.2135697 14.1422156,23.8467337 C14.2370264,23.4798977 14.3867255,23.1608054 14.5913174,22.8894472 C14.7959092,22.6180891 15.0553876,22.4020109 15.3697605,22.241206 C15.6841333,22.0804012 16.060876,22 16.5,22 C16.939124,22 17.3158667,22.0804012 17.6302395,22.241206 C17.9446124,22.4020109 18.2040908,22.6180891 18.4086826,22.8894472 C18.6132745,23.1608054 18.7629736,23.4798977 18.8577844,23.8467337 C18.9525953,24.2135697 19,24.5979879 19,25 C19,25.4120624 18.9550903,25.7989932 18.8652695,26.160804 C18.7754487,26.5226149 18.6307395,26.8391946 18.4311377,27.1105528 C18.2315359,27.3819109 17.9720575,27.5979891 17.6526946,27.758794 C17.3333317,27.9195988 16.949104,28 16.5,28 L16.5,28 Z M14.4999998,15.5 C14.4999998,15.5 14.4999998,15 15.4999998,15 C16.4999998,15 15.9999998,16 15.9999998,16 L9.5,27.5 C9.5,27.5 9.50000002,28 8.5,28 C7.49999999,28 8,27 8,27 L14.4999998,15.5 Z M15.5,25 C15.5,25.2089563 15.5173158,25.4048498 15.5519481,25.5876866 C15.5865803,25.7705233 15.6428568,25.9291038 15.7207792,26.0634328 C15.7987017,26.1977619 15.9004323,26.3041041 16.025974,26.3824627 C16.1515158,26.4608213 16.3051939,26.5 16.487013,26.5 C16.6688321,26.5 16.8246747,26.4608213 16.9545455,26.3824627 C17.0844162,26.3041041 17.1883113,26.1977619 17.2662338,26.0634328 C17.3441562,25.9291038 17.4025972,25.7705233 17.4415584,25.5876866 C17.4805197,25.4048498 17.5,25.2089563 17.5,25 C17.5,24.8134319 17.4848486,24.6305979 17.4545455,24.4514925 C17.4242423,24.2723872 17.3701303,24.111941 17.2922078,23.9701493 C17.2142853,23.8283575 17.1103903,23.7145527 16.9805195,23.6287313 C16.8506487,23.54291 16.6861482,23.5 16.487013,23.5 C16.2878778,23.5 16.1233773,23.54291 15.9935065,23.6287313 C15.8636357,23.7145527 15.7619051,23.8283575 15.6883117,23.9701493 C15.6147182,24.111941 15.5649352,24.2723872 15.538961,24.4514925 C15.5129869,24.6305979 15.5,24.8134319 15.5,25 L15.5,25 Z" id="%" fill="#9CC444"></path>
                                    </g>
                                </g>
                            </g>
                        </g>
                        <g id="buy" transform="translate(672.000000, 0.000000)">
                            <g id="text-field-copy-2-+-Group-+-Group">
                                <rect id="text-field-copy-2" fill="#FB893B" x="0" y="0" width="56" height="56" rx="4"></rect>
                                <path d="M12.9373176,20.9825306 C12.8162969,19.3353244 14.0709082,18 15.7183892,18 L40.2816346,18 C41.9385988,18 43.183154,19.3431234 43.0627063,20.9825306 L41.6648496,40.0086779 C41.5028956,42.2130242 39.5753837,44 37.3678805,44 L18.6321434,44 C16.4209469,44 14.4971202,42.2129147 14.3351743,40.0086779 L12.9373176,20.9825306 Z" id="Rectangle-1636" fill="#FFFFFF"></path>
                                <circle id="Oval-759" fill="#FB893B" cx="37" cy="38" r="9"></circle>
                                <circle id="Oval-759" fill="#FFFFFF" cx="37" cy="38" r="7.5"></circle>
                                <path d="M21,21.0535889 C21,21.0535889 21,21.1759444 21,20 C21,15.0294373 23.5,9 28,9 C32.4919996,9 34.9875517,15.0080171 35,20 C35,20.9980861 35,21.0535889 35,21.0535889 C35,21.0535889 31.9724767,27 28,27 C24.2053817,27 21,21.0535889 21,21.0535889 Z M23,21 C23,21 25.2572451,25 28,25 C30.8467905,25 33,21 33,21 C33,21 33,21.0192027 33,20 C33,16.1340068 31.5,11 28,11 C24.5,11 23,16.1340068 23,20 L23,21 Z" id="Oval-755" fill="#FFFFFF"></path>
                                <path d="M36.25,37.25 L32.7516253,37.25 C32.3327179,37.25 32,37.5857864 32,38 C32,38.4171014 32.3365141,38.75 32.7516253,38.75 L36.25,38.75 L36.25,42.2483747 C36.25,42.6672821 36.5857864,43 37,43 C37.4171014,43 37.75,42.6634859 37.75,42.2483747 L37.75,38.75 L41.2483747,38.75 C41.6672821,38.75 42,38.4142136 42,38 C42,37.5828986 41.6634859,37.25 41.2483747,37.25 L37.75,37.25 L37.75,33.7516253 C37.75,33.3327179 37.4142136,33 37,33 C36.5828986,33 36.25,33.3365141 36.25,33.7516253 L36.25,37.25 Z" id="Rectangle-1637" fill="#FB893B"></path>
                            </g>
                        </g>
                    </g>
                </g>
            </g>
        </g>
    </g>
</svg>