<?xml version="1.0" encoding="UTF-8"?>
<svg width="89px" height="82px" viewBox="0 0 89 82" version="1.1" xmlns="http://www.w3.org/2000/svg" xmlns:xlink="http://www.w3.org/1999/xlink">
    <!-- Generator: Sketch 47 (45396) - http://www.bohemiancoding.com/sketch -->
    <title>Group 72</title>
    <desc>Created with Sketch.</desc>
    <defs>
        <rect id="path-1" x="0" y="0" width="68" height="68"></rect>
    </defs>
    <g id="Page-1" stroke="none" stroke-width="1" fill="none" fill-rule="evenodd">
        <g id="Desktop" transform="translate(-1162.000000, -9548.000000)">
            <g id="Group-72" transform="translate(1162.000000, 9548.000000)">
                <g id="Group-83" transform="translate(21.000000, 14.000000)">
                    <g id="Rectangle-2">
                        <use fill="#FFFFFF" fill-rule="evenodd" xlink:href="#path-1"></use>
                        <rect stroke-opacity="0.09" stroke="#000000" stroke-width="0.5" x="0.25" y="0.25" width="67.5" height="67.5"></rect>
                    </g>
                </g>
                <g id="WIDTH#39CBC0BF-CD14-4E78-882C-FF6153D90AE8" transform="translate(21.000000, 0.000000)">
                    <rect id="ruler-start" fill="#FF5500" x="0" y="8" width="1" height="5"></rect>
                    <rect id="ruler-end" fill="#FF5500" x="67" y="8" width="1" height="5"></rect>
                    <rect id="ruler-line" fill="#FF5500" x="0" y="10" width="68" height="1"></rect>
                    <polygon id="label-arrow" fill="#FF5500" points="30 11 34 7 38 11 34 15"></polygon>
                    <rect id="label-box" fill="#FF5500" x="16" y="0" width="35" height="22" rx="2"></rect>
                    <text id="label-text" font-family="HelveticaNeue, Helvetica Neue" font-size="12" font-weight="normal" fill="#FFFFFF">
                        <tspan x="20.162" y="15">68px</tspan>
                    </text>
                </g>
                <g id="HEIGHT#39CBC0BF-CD14-4E78-882C-FF6153D90AE8" transform="translate(0.000000, 14.000000)">
                    <rect id="ruler-start" fill="#FF5500" x="15" y="0" width="5" height="1"></rect>
                    <rect id="ruler-end" fill="#FF5500" x="15" y="67" width="5" height="1"></rect>
                    <rect id="ruler-line" fill="#FF5500" x="17" y="0" width="1" height="68"></rect>
                    <polygon id="label-arrow" fill="#FF5500" points="14 34 18 30 22 34 18 38"></polygon>
                    <rect id="label-box" fill="#FF5500" x="0" y="23" width="35" height="22" rx="2"></rect>
                    <text id="label-text" font-family="HelveticaNeue, Helvetica Neue" font-size="12" font-weight="normal" fill="#FFFFFF">
                        <tspan x="4.162" y="38">68px</tspan>
                    </text>
                </g>
            </g>
        </g>
    </g>
</svg>