<?xml version="1.0" encoding="UTF-8"?>
<svg width="242px" height="39px" viewBox="0 0 242 39" version="1.1" xmlns="http://www.w3.org/2000/svg" xmlns:xlink="http://www.w3.org/1999/xlink">
    <!-- Generator: Sketch 47 (45396) - http://www.bohemiancoding.com/sketch -->
    <title>Group 17</title>
    <desc>Created with Sketch.</desc>
    <defs>
        <polygon id="path-1" points="20.7065 21.2672681 20.7065 0.000204255319 0.0002 0.000204255319 0.0002 21.2672681 20.7065 21.2672681"></polygon>
        <polygon id="path-3" points="8.02016602e-05 22.9985319 21.5524681 22.9985319 21.5524681 0.00014680851 8.02016602e-05 0.00014680851"></polygon>
    </defs>
    <g id="Page-1" stroke="none" stroke-width="1" fill="none" fill-rule="evenodd">
        <g id="Desktop" transform="translate(-1189.000000, -6806.000000)">
            <g id="Group-20" transform="translate(109.000000, 6284.000000)">
                <g id="Group-17" transform="translate(1081.000000, 522.000000)">
                    <g id="home-icon-copy" transform="translate(60.000000, 1.000000)">
                        <text id="Feed" font-family="SFUIText-Regular, SF UI Text" font-size="10" font-weight="normal" fill="#FF5722">
                            <tspan x="1" y="35.5">Feed</tspan>
                        </text>
                        <g id="Page-1" transform="translate(2.000000, 1.000000)" stroke="#FF5722" stroke-linecap="round" stroke-linejoin="round">
                            <path d="M20.5153,16.5 L5.4843,16.5 C4.9433,16.5 4.5003,16.057 4.5003,15.515 L4.5003,1.485 C4.5003,0.943 4.9433,0.5 5.4843,0.5 L20.5153,0.5 C21.0573,0.5 21.5003,0.943 21.5003,1.485 L21.5003,15.515 C21.5003,16.057 21.0573,16.5 20.5153,16.5 Z" id="Stroke-1" fill="#FF5722"></path>
                            <path d="M17.5,16.7996 L17.5,19.4996 C17.5,20.0496 17.05,20.4996 16.5,20.4996 L1.5,20.4996 C0.95,20.4996 0.5,20.0496 0.5,19.4996 L0.5,5.4996 C0.5,4.9496 0.95,4.4996 1.5,4.4996 L4.4,4.4996" id="Stroke-3"></path>
                        </g>
                    </g>
                    <g id="buy-icon" transform="translate(0.000000, 2.000000)" font-size="10" font-family="SFUIText-Regular, SF UI Text" fill="#FF5722" font-weight="normal">
                        <text id="Buy">
                            <tspan x="1" y="35">Buy</tspan>
                        </text>
                    </g>
                    <g id="activity" transform="translate(123.000000, 0.000000)">
                        <g id="Page-1" transform="translate(18.500000, 0.000000)">
                            <g id="Group-3">
                                <mask id="mask-2" fill="white">
                                    <use xlink:href="#path-1"></use>
                                </mask>
                                <g id="Clip-2"></g>
                                <path d="M1.6182,20.2459915 L2.8827,17.6636936 L2.8827,5.88786383 C2.8827,4.33092766 4.1227,3.06403404 5.6472,3.06403404 L15.0592,3.06403404 C16.5837,3.06403404 17.8242,4.33092766 17.8242,5.88786383 L17.8242,17.6636936 L19.0882,20.2459915 L1.6182,20.2459915 Z M12.5832,2.04275745 L8.1237,2.04275745 C8.6732,1.41722553 9.4677,1.02148085 10.3532,1.02148085 C11.2387,1.02148085 12.0332,1.41722553 12.5832,2.04275745 Z" id="Fill-1" stroke="#FF5722" fill="#FF5722" mask="url(#mask-2)"></path>
                            </g>
                            <path d="M10.3533,24 C11.9048,24 13.2468,23.0961702 13.9103,21.7777021 L6.7963,21.7777021 C7.4598,23.0961702 8.8018,24 10.3533,24" id="Fill-4" fill="#FF5722"></path>
                        </g>
                        <text id="Notifications" font-family="SFUIText-Regular, SF UI Text" font-size="10" font-weight="normal" fill="#FF5722">
                            <tspan x="0" y="36.5">Notifications</tspan>
                        </text>
                    </g>
                    <g id="me" transform="translate(219.000000, 1.000000)">
                        <text id="Me" font-family="SFUIText-Regular, SF UI Text" font-size="10" font-weight="normal" fill="#FF5722">
                            <tspan x="4.5" y="36">Me</tspan>
                        </text>
                        <g id="Page-1">
                            <mask id="mask-4" fill="white">
                                <use xlink:href="#path-3"></use>
                            </mask>
                            <g id="Clip-2"></g>
                            <path d="M8.32967021,15.8774872 C5.65335106,16.5131681 2.48032979,17.3915723 1.71741489,17.8094872 L1.6738617,17.833466 L1.64303191,17.8721255 C1.09739362,18.5596787 0.683393617,20.5636149 0.996095745,21.8359553 L1.04160638,22.0224021 L20.5113511,22.0224021 L20.5568617,21.8359553 C20.8656489,20.5699766 20.4609468,18.5660404 19.9250957,17.8745723 L19.8932872,17.833466 L19.8467979,17.8089979 C19.0682234,17.3920617 15.893734,16.5033809 13.2232872,15.8574234 L13.2232872,13.8510404 C14.9815638,12.584083 16.1545638,9.96208298 16.1545638,7.27548723 C16.1545638,4.34078511 15.5428617,0.972508511 10.7745213,0.972508511 C6.00569149,0.972508511 5.39398936,4.34078511 5.39398936,7.27548723 C5.39398936,9.96452979 6.56894681,12.5870191 8.32967021,13.8549553 L8.32967021,15.8774872 Z M0.561053191,22.9986787 C-0.429414894,21.3098915 -0.0124787234,18.0600404 1.06509574,16.9579979 C1.41498936,16.6012532 3.90241489,15.8236574 7.55745745,14.9276362 L8.0487766,14.8072532 L7.64896809,14.4974872 C5.68026596,12.9682319 4.40792553,10.123083 4.40792553,7.24857234 C4.40792553,2.16752979 6.31203191,0.00014680851 10.7745213,0.00014680851 C15.2365213,0.00014680851 17.1406277,2.16752979 17.1406277,7.24857234 C17.1406277,10.1118277 15.8751383,12.9515936 13.9167128,14.4842745 L13.5217979,14.7930617 L14.0082234,14.9144234 C18.393883,16.0076574 20.2377979,16.6864021 20.5005851,16.9575085 C21.5683723,18.0571043 21.9779681,21.3069553 20.992883,22.9986787 L0.561053191,22.9986787 Z" id="Fill-1" fill="#FF5722" mask="url(#mask-4)"></path>
                            <path d="M5.16333008,4.98193359 C5.67342122,2.69759115 6.32234701,1.4625651 7.11010742,1.27685547 C8.29174805,0.998291016 11.6977539,0.185058594 12.9172363,0.730957031 C14.1367188,1.27685547 16.1589355,2.39428711 16.3779297,4.24731445 C16.5969238,6.1003418 16.5429687,10.6582031 15.8195801,11.284668 C15.337321,11.7023112 14.6672363,12.5859375 13.8093262,13.9355469 L13.4841309,14.6853027 L13.6196289,15.3330078 L20.0947266,17.3005371 L21.0192871,19.4748535 L20.876709,22.3300781 L6.02685547,22.3354492 L1.05078125,22.4191895 L0.498046875,21.3337402 L0.700195313,19.0634766 L1.50341797,17.3078613 L5.64746094,16.0490723 L8.2409668,14.9733887 L8.21948242,14.2678223 L5.49902344,10.5881348 L4.8659668,6.21166992 L5.16333008,4.98193359 Z" id="Path-2" fill="#FF5722" mask="url(#mask-4)"></path>
                        </g>
                    </g>
                    <g id="Page-1">
                        <g id="Group-5" transform="translate(0.000000, 4.270000)">
                            <path d="M1.294,0.73 C-0.124,0.854 0.168,2.23 0.168,2.23 L1.294,16.049 C1.294,16.049 1.189,18.151 3.891,18.23 C4.065,18.23 17.042,18.226 17.385,18.23 C19.998,18.067 19.976,16.049 19.976,16.049 L21.121,2.23 C21.121,2.23 21.4,0.833 19.976,0.73 L1.294,0.73 Z" id="Stroke-1" stroke="#FF5722" fill="#FF5722"></path>
                            <path d="M8.0166,5.22170431 C7.3116,5.91970431 6.9866,7.22170431 7.4536,8.10870431 C7.8266,8.81870431 8.4806,9.15870431 9.2156,9.49670431 C10.0636,9.88570431 10.8476,9.96270431 11.6756,10.3977043 C12.3156,10.7327043 13.3526,11.1987043 13.4266,11.9617043 C13.5006,12.7247043 13.1566,13.3927043 12.4806,13.8087043 C10.8506,14.8087043 9.0656,14.0857043 7.6026,13.0347043 C7.4156,12.9007043 7.0256,13.0287043 6.9156,13.2007043 C6.7836,13.4087043 6.8316,13.8477043 7.0166,13.9807043 C8.4546,15.0127043 10.4026,15.5337043 12.1756,15.0437043 C12.9626,14.8257043 13.7166,14.3997043 14.1276,13.7117043 C14.5856,12.9467043 14.7216,11.8467043 14.2486,11.0867043 C13.5406,9.95070431 12.2276,9.38570431 10.9396,9.00970431 C10.5776,8.90470431 10.0076,8.70770431 9.6736,8.54570431 C9.0556,8.24470431 8.4256,7.94470431 8.3266,7.22970431 C8.1656,6.08070431 9.1766,5.38770431 10.2556,5.22170431 C11.2466,5.06970431 12.0736,5.40570431 12.8866,5.93970431 C13.3446,6.24070431 13.9776,5.37970431 13.5236,5.08170431 C11.9356,4.03970431 9.4456,3.80670431 8.0166,5.22170431" id="Fill-3" fill="#FFFFFF"></path>
                        </g>
                        <path d="M5.7875,5.038 C6.2055,2.473 8.2205,0.5 10.6425,0.5 C13.0835,0.5 15.1105,2.503 15.5065,5.097" id="Stroke-12" stroke="#FF5722"></path>
                    </g>
                </g>
            </g>
        </g>
    </g>
</svg>