<?xml version="1.0" encoding="UTF-8"?>
<svg width="152px" height="24px" viewBox="0 0 152 24" version="1.1" xmlns="http://www.w3.org/2000/svg" xmlns:xlink="http://www.w3.org/1999/xlink">
    <!-- Generator: Sketch 47 (45396) - http://www.bohemiancoding.com/sketch -->
    <title>Group</title>
    <desc>Created with Sketch.</desc>
    <defs></defs>
    <g id="Page-1" stroke="none" stroke-width="1" fill="none" fill-rule="evenodd">
        <g id="Desktop" transform="translate(-1107.000000, -6424.000000)">
            <g id="Group-20" transform="translate(25.000000, 6209.000000)">
                <g id="Group-46" transform="translate(1082.000000, 215.000000)">
                    <g id="Group-44">
                        <g id="Group-73">
                            <path d="M2,4.4408921e-16 L22,4.4408921e-16 L22,4.4408921e-16 C23.1045695,2.41183085e-16 24,0.8954305 24,2 L24,17 L24,17 C24,18.1045695 23.1045695,19 22,19 L10.6855469,19 L4.08081055,24.0544434 L4.08081055,19 L2,19 L2,19 C0.8954305,19 1.3527075e-16,18.1045695 0,17 L4.4408921e-16,2 L4.4408921e-16,2 C3.0881846e-16,0.8954305 0.8954305,2.02906125e-16 2,0 Z" id="Rectangle-7" fill="#FF3D00"></path>
                            <rect id="Rectangle-65-Copy-2" fill="#FFFFFF" x="5" y="6" width="14" height="2" rx="1"></rect>
                            <path d="M7,12 C7,11.4477153 7.4556644,11 7.99539757,11 L16.0046024,11 C16.5543453,11 17,11.4438648 17,12 L17,12 C17,12.5522847 16.5609203,13 15.9972911,13 L9.535226,13 L8.00149255,13 C7.44838349,13 7,12.5561352 7,12 L7,12 Z" id="Rectangle-65-Copy-3" fill="#FFFFFF"></path>
                        </g>
                        <g id="like--icon" transform="translate(64.000000, 0.000000)" fill="#FF3D00">
                            <path d="M6.05887538,4.48013498e-09 C1.64177803,1.13233669e-12 -1.40420052,4.75747213 0.660399321,10.0261798 C1.27368659,12.5151095 11.9845481,22.4535784 11.9845481,22.4535784 C11.9845481,22.4535784 22.6229894,12.5151095 23.3769001,10.0261798 C25.3901775,4.49241394 22.2548987,3.85797875e-14 17.8378007,3.90798505e-14 C13.4207027,3.95799134e-14 11.9845488,3.31922964 11.9845488,3.31922964 C11.9845488,3.31922964 10.4759727,8.95913762e-09 6.05887538,4.48013498e-09 Z" id="ic_feed_like-copy-3"></path>
                        </g>
                        <g id="Group" transform="translate(128.000000, 0.000000)">
                            <path d="M12,24 C18.627417,24 24,18.627417 24,12 C24,5.372583 18.627417,0 12,0 C5.372583,0 0,5.372583 0,12 C0,18.627417 5.372583,24 12,24 Z" id="Oval-141" fill="#FF3D00"></path>
                            <circle id="Oval-142" fill="#FFFFFF" cx="8.5" cy="8.5" r="1.5"></circle>
                            <circle id="Oval-142-Copy" fill="#FFFFFF" cx="15.5" cy="8.5" r="1.5"></circle>
                            <path d="M12,18 C14.7614237,18 17,15.7614238 17,13 C17,13 14.7614237,13 12,13 C9.739056,13 7,13 7,13 C7,15.8411865 9.23857625,18 12,18 Z" id="Oval-144" fill="#FFFFFF"></path>
                        </g>
                    </g>
                </g>
            </g>
        </g>
    </g>
</svg>