<?xml version="1.0" encoding="UTF-8"?>
<svg width="487px" height="135px" viewBox="0 0 487 135" version="1.1" xmlns="http://www.w3.org/2000/svg" xmlns:xlink="http://www.w3.org/1999/xlink">
    <!-- Generator: Sketch 47 (45396) - http://www.bohemiancoding.com/sketch -->
    <title>Group 51</title>
    <desc>Created with Sketch.</desc>
    <defs>
        <rect id="path-1" x="0" y="0" width="70" height="40" rx="2"></rect>
        <rect id="path-2" x="0" y="0" width="70" height="40" rx="2"></rect>
        <path d="M4.99999977,14 C4.99999977,14 2.780757,12.3012618 1.9999999,11 C1.2192428,9.69873817 -0.260252385,8.04100945 3.47221274e-09,7 C0.260252369,5.95899054 1.2192428,5.63091493 1.99999997,6.41167212 C2.78075719,7.19242921 3.30669849,8.88406944 3.82720333,8.62381703 C4.34770818,8.3635647 3.95732934,5.89116721 3.43682478,4.45977918 C2.91632017,3.0283912 2.37364957,1.74807891e-07 3.43682477,3.01156433e-10 C4.49999997,-9.25366672e-08 4.49999977,1 4.99999977,2.5 C5.49999979,3.99999999 5.1096211,5.99999931 5.49999977,6 C5.89037843,6.00000059 6.03934826,5.65063082 6.03934837,5 C6.0393484,4.82318548 6.07401562,4.67374541 6.14440215,4.54985954 C6.33301949,4.21787805 6.77813669,4.06940091 7.49999977,4.06940079 C8.49124122,4.06940079 7.99999977,6.00000009 8.49999977,6 C8.99999977,6 9.00000016,6.04100937 8.99999977,5 C8.99999939,3.95899063 9.46363903,4.06940096 10.463639,4.06940079 C11.463639,4.06940079 10.9794954,5.9999999 11.4999998,6 C12.0205041,6.00000009 11.4999998,5.00000008 11.9999998,5 C12.4999998,5 12.9999992,5.15772862 12.9999998,7.5 C13.0000004,9.84227138 13.2807572,9.95899044 12.4999998,11 C11.7192423,12.0410096 10.9999998,13 10.9999998,13 C10.9999998,13 10.9999998,14 10.463639,14 C9.92727829,14.0000001 9.65063106,12.9999999 8.99999977,13 C8.34936847,13.0000001 7.99999977,14 7.99999977,14 L4.99999977,14 Z M8,11 C8,11.2708838 8.23193359,12 8.5,12 C8.77614237,12 9,11.2754211 9,11 L9,9 C9,8.7291162 8.76806641,8 8.5,8 C8.22385763,8 8,8.72457886 8,9 L8,11 Z M9.96969104,11 C9.96969104,11.2708838 10.2016246,12 10.469691,12 C10.7458334,12 10.969691,11.2754211 10.969691,11 L10.969691,9 C10.969691,8.7291162 10.7377574,8 10.469691,8 C10.1935487,8 9.96969104,8.72457886 9.96969104,9 L9.96969104,11 Z M6,11 C6,11.2708838 6.23193359,12 6.5,12 C6.77614237,12 7,11.2754211 7,11 L7,9 C7,8.7291162 6.76806641,8 6.5,8 C6.22385763,8 6,8.72457886 6,9 L6,11 Z" id="path-3"></path>
        <filter x="-45.9%" y="-35.7%" width="191.7%" height="185.7%" filterUnits="objectBoundingBox" id="filter-4">
            <feMorphology radius="1" operator="dilate" in="SourceAlpha" result="shadowSpreadOuter1"></feMorphology>
            <feOffset dx="0" dy="1" in="shadowSpreadOuter1" result="shadowOffsetOuter1"></feOffset>
            <feGaussianBlur stdDeviation="1.5" in="shadowOffsetOuter1" result="shadowBlurOuter1"></feGaussianBlur>
            <feComposite in="shadowBlurOuter1" in2="SourceAlpha" operator="out" result="shadowBlurOuter1"></feComposite>
            <feColorMatrix values="0 0 0 0 0   0 0 0 0 0   0 0 0 0 0  0 0 0 0.25 0" type="matrix" in="shadowBlurOuter1"></feColorMatrix>
        </filter>
    </defs>
    <g id="Designs" stroke="none" stroke-width="1" fill="none" fill-rule="evenodd">
        <g id="170711-V0.9.2" transform="translate(-800.000000, -6184.000000)">
            <g id="Group-65" transform="translate(106.000000, 5765.000000)">
                <g id="Group-59" transform="translate(0.000000, 399.000000)">
                    <g id="Group-51" transform="translate(694.000000, 20.000000)">
                        <g id="Group-48">
                            <rect id="Rectangle-7" fill="#FAFAFA" x="0" y="0" width="214" height="135"></rect>
                            <g id="Group-27" transform="translate(26.000000, 72.000000)">
                                <g id="Rectangle-2">
                                    <use fill="#FFFFFF" fill-rule="evenodd" xlink:href="#path-1"></use>
                                    <rect stroke="#DBDBDB" stroke-width="1" x="0.5" y="0.5" width="69" height="39" rx="2"></rect>
                                </g>
                                <path d="M43.826,19.7293333 C43.882858,19.7982114 43.9170811,19.8829542 43.924,19.972 C43.924,19.972 43.924,19.972 43.924,19.972 L43.924,19.972 C43.924,19.972 43.924,19.972 43.924,19.972 C43.9181595,20.0795572 43.8752909,20.1817822 43.8026667,20.2613333 L40.0366667,23.9946667 C39.9341489,24.1563878 39.7432455,24.2390748 39.5551537,24.2032269 C39.3670619,24.167379 39.2199543,24.0202715 39.1841064,23.8321796 C39.1482586,23.6440878 39.2309456,23.4531844 39.3926667,23.3506667 L42.356,20.4666667 L31.3333333,20.4666667 C31.0756005,20.4666667 30.8666667,20.2577329 30.8666667,20 C30.8666667,19.7422671 31.0756005,19.5333333 31.3333333,19.5333333 L42.3466667,19.5333333 L39.3973333,16.5793333 C39.2356122,16.4768156 39.1529252,16.2859122 39.1887731,16.0978204 C39.224621,15.9097285 39.3717285,15.762621 39.5598204,15.7267731 C39.7479122,15.6909252 39.9388156,15.7736122 40.0413333,15.9353333 C40.0413333,15.9353333 43.812,19.7106667 43.826,19.7293333 Z M36.4666667,14.4 C36.4666667,14.1422671 36.2577329,13.9333333 36,13.9333333 L30.4,13.9333333 C30.1422671,13.9333333 29.9333333,14.1422671 29.9333333,14.4 L29.9333333,25.6 C29.9333333,25.8577329 30.1422671,26.0666667 30.4,26.0666667 L36,26.0666667 C36.2577329,26.0666667 36.4666667,25.8577329 36.4666667,25.6 L36.4666667,24.2 L37.4,24.2 L37.4,26.0666667 C37.4,26.5821324 36.9821324,27 36.4666667,27 L29.9333333,27 C29.4178676,27 29,26.5821324 29,26.0666667 L29,13.9333333 C29,13.4178676 29.4178676,13 29.9333333,13 L36.4666667,13 C36.9821324,13 37.4,13.4178676 37.4,13.9333333 L37.4,15.8 L36.4666667,15.8 L36.4666667,14.4 Z" id="Shape" fill="#555555" fill-rule="nonzero"></path>
                            </g>
                            <g id="Group-6" transform="translate(121.000000, 72.000000)">
                                <g id="Rectangle-2">
                                    <use fill="#FFFFFF" fill-rule="evenodd" xlink:href="#path-2"></use>
                                    <use fill-opacity="0.0299999993" fill="#000000" fill-rule="evenodd" xlink:href="#path-2"></use>
                                    <rect stroke="#DBDBDB" stroke-width="1" x="0.5" y="0.5" width="69" height="39" rx="2"></rect>
                                </g>
                                <path d="M43.826,19.7293333 C43.882858,19.7982114 43.9170811,19.8829542 43.924,19.972 C43.924,19.972 43.924,19.972 43.924,19.972 L43.924,19.972 C43.924,19.972 43.924,19.972 43.924,19.972 C43.9181595,20.0795572 43.8752909,20.1817822 43.8026667,20.2613333 L40.0366667,23.9946667 C39.9341489,24.1563878 39.7432455,24.2390748 39.5551537,24.2032269 C39.3670619,24.167379 39.2199543,24.0202715 39.1841064,23.8321796 C39.1482586,23.6440878 39.2309456,23.4531844 39.3926667,23.3506667 L42.356,20.4666667 L31.3333333,20.4666667 C31.0756005,20.4666667 30.8666667,20.2577329 30.8666667,20 C30.8666667,19.7422671 31.0756005,19.5333333 31.3333333,19.5333333 L42.3466667,19.5333333 L39.3973333,16.5793333 C39.2356122,16.4768156 39.1529252,16.2859122 39.1887731,16.0978204 C39.224621,15.9097285 39.3717285,15.762621 39.5598204,15.7267731 C39.7479122,15.6909252 39.9388156,15.7736122 40.0413333,15.9353333 C40.0413333,15.9353333 43.812,19.7106667 43.826,19.7293333 Z M36.4666667,14.4 C36.4666667,14.1422671 36.2577329,13.9333333 36,13.9333333 L30.4,13.9333333 C30.1422671,13.9333333 29.9333333,14.1422671 29.9333333,14.4 L29.9333333,25.6 C29.9333333,25.8577329 30.1422671,26.0666667 30.4,26.0666667 L36,26.0666667 C36.2577329,26.0666667 36.4666667,25.8577329 36.4666667,25.6 L36.4666667,24.2 L37.4,24.2 L37.4,26.0666667 C37.4,26.5821324 36.9821324,27 36.4666667,27 L29.9333333,27 C29.4178676,27 29,26.5821324 29,26.0666667 L29,13.9333333 C29,13.4178676 29.4178676,13 29.9333333,13 L36.4666667,13 C36.9821324,13 37.4,13.4178676 37.4,13.9333333 L37.4,15.8 L36.4666667,15.8 L36.4666667,14.4 Z" id="Shape" fill="#555555" fill-rule="nonzero"></path>
                            </g>
                            <g id="Cursor-/-Pointer" transform="translate(169.000000, 106.000000)">
                                <g id="Pointer">
                                    <use fill="black" fill-opacity="1" filter="url(#filter-4)" xlink:href="#path-3"></use>
                                    <use fill="#FFFFFF" fill-rule="evenodd" xlink:href="#path-3"></use>
                                    <path stroke="#000000" stroke-width="1" d="M3.57605264,7.86886829 C3.57241731,7.66457317 3.5650967,7.37326956 3.52581728,7.03939464 C3.43304259,6.25081004 3.21475604,5.31217786 2.96692806,4.63065068 C2.66718322,3.80635221 2.41092929,2.64931273 2.34425269,1.72925958 C2.24727325,0.391065577 2.51057107,-0.499999848 3.43682473,-0.5 C4.36321899,-0.500000081 4.76979273,-0.0142192182 5.1012711,1.08624342 C5.07149731,0.987398516 5.36793341,2.02266209 5.47434141,2.34188611 C5.57905679,2.65603222 5.65272028,2.99864222 5.70224378,3.37472107 C5.7390196,3.65399474 5.7594096,3.89031331 5.77303639,4.2025009 C6.08842116,3.75182727 6.66614661,3.56940093 7.49999977,3.56940079 C8.08903749,3.56940079 8.39871002,3.87344846 8.56379458,4.40706062 C8.6413897,4.10593831 8.79424359,3.88692891 9.04644018,3.74131922 C9.32990252,3.57765775 9.53527388,3.56045628 10.2187362,3.56773854 C10.3386214,3.56899267 10.3923139,3.5694008 10.463639,3.56940079 C11.1273974,3.56940079 11.4389193,3.95190243 11.5929548,4.61662629 C11.7060508,4.54192954 11.844071,4.50000003 11.9999998,4.5 C13.0584447,4.5 13.4999992,5.28235494 13.4999998,7.49999987 C13.4999999,7.9125726 13.5080173,8.26047668 13.5242075,8.68754329 C13.5682665,9.84974276 13.5645332,9.99797054 13.4181946,10.4100702 C13.3205201,10.6851285 13.1648512,10.9468649 12.8999997,11.3000001 C11.8666405,12.6778121 11.7696644,12.8071137 11.4929846,13.1760202 C11.482533,13.3113719 11.45928,13.4677182 11.4158897,13.6295137 C11.2802785,14.135185 10.9867699,14.5 10.4636391,14.5 C10.0829613,14.5000001 9.83512877,14.3231063 9.51768991,13.9659274 C9.48685616,13.9312336 9.45534286,13.8949899 9.39747606,13.8282135 C9.17649616,13.5742554 9.07684634,13.5 8.99999984,13.5 C8.91823665,13.5 8.79792217,13.5907818 8.67049804,13.7796466 C8.57207922,13.9255204 8.50274735,14.0769638 8.47202178,14.1649097 L8.35495172,14.5 L4.83060076,14.5 L4.6960862,14.3970347 C4.58906305,14.3151129 4.4053218,14.1694172 4.17017151,13.9743411 C3.77869498,13.6495797 3.38709033,13.3046237 3.02025764,12.9532621 C2.71263719,12.6586155 2.43572793,12.3718986 2.19673993,12.0965327 C1.93929299,11.799898 1.72894075,11.5200601 1.57125343,11.2572479 C1.39853209,10.969379 1.31312586,10.8424581 0.802180337,10.099907 C0.707491069,9.96229626 0.635551951,9.85699149 0.566085786,9.7539705 C-0.321664053,8.43740331 -0.676590785,7.64481027 -0.485071247,6.87873219 C-0.12834339,5.45182076 1.30373784,5.00830319 2.35355334,6.0581187 C2.60674637,6.31131169 2.82804519,6.62418288 3.10439053,7.08368642 C3.16760755,7.18880288 3.37918524,7.54952018 3.42006044,7.61778007 C3.47918337,7.71651294 3.53021317,7.79883171 3.57605264,7.86886829 Z M8.5,11 C8.5,11.0668258 8.54601018,11.2556897 8.60992198,11.4066746 C8.64137091,11.4809694 8.67329287,11.537784 8.69562967,11.5650611 C8.6730237,11.5374553 8.61446527,11.5 8.5,11.5 C8.39035557,11.5 8.33191764,11.5365374 8.30953113,11.5635695 C8.33095671,11.5376978 8.36196782,11.4825576 8.39251792,11.4097725 C8.45523277,11.2603554 8.5,11.0716349 8.5,11 L8.5,9 C8.5,8.93317417 8.45398982,8.74431031 8.39007802,8.59332539 C8.35862909,8.5190306 8.32670713,8.46221599 8.30437033,8.43493891 C8.3269763,8.46254468 8.38553473,8.5 8.5,8.5 C8.60964443,8.5 8.66808236,8.46346258 8.69046887,8.43643047 C8.66904329,8.46230224 8.63803218,8.5174424 8.60748208,8.59022753 C8.54476723,8.73964463 8.5,8.92836514 8.5,9 L8.5,11 Z M10.469691,11 C10.469691,11.0668258 10.5157012,11.2556897 10.579613,11.4066746 C10.611062,11.4809694 10.6429839,11.537784 10.6653207,11.5650611 C10.6427147,11.5374553 10.5841563,11.5 10.469691,11.5 C10.3600466,11.5 10.3016087,11.5365374 10.2792222,11.5635695 C10.3006478,11.5376978 10.3316589,11.4825576 10.362209,11.4097725 C10.4249238,11.2603554 10.469691,11.0716349 10.469691,11 L10.469691,9 C10.469691,8.93317417 10.4236809,8.74431031 10.3597691,8.59332539 C10.3283201,8.5190306 10.2963982,8.46221599 10.2740614,8.43493891 C10.2966673,8.46254468 10.3552258,8.5 10.469691,8.5 C10.5793355,8.5 10.6377734,8.46346258 10.6601599,8.43643047 C10.6387343,8.46230224 10.6077232,8.5174424 10.5771731,8.59022753 C10.5144583,8.73964463 10.469691,8.92836514 10.469691,9 L10.469691,11 Z M6.5,11 L6.5,9 C6.5,8.92836514 6.54476723,8.73964463 6.60748208,8.59022753 C6.63803218,8.5174424 6.66904329,8.46230224 6.69046887,8.43643047 C6.66808236,8.46346258 6.60964443,8.5 6.5,8.5 C6.38553473,8.5 6.3269763,8.46254468 6.30437033,8.43493891 C6.32670713,8.46221599 6.35862909,8.5190306 6.39007802,8.59332539 C6.45398982,8.74431031 6.5,8.93317417 6.5,9 L6.5,11 C6.5,11.0716349 6.45523277,11.2603554 6.39251792,11.4097725 C6.36196782,11.4825576 6.33095671,11.5376978 6.30953113,11.5635695 C6.33191764,11.5365374 6.39035557,11.5 6.5,11.5 C6.61446527,11.5 6.6730237,11.5374553 6.69562967,11.5650611 C6.67329287,11.537784 6.64137091,11.4809694 6.60992198,11.4066746 C6.54601018,11.2556897 6.5,11.0668258 6.5,11 Z"></path>
                                </g>
                            </g>
                            <g id="Group-44" transform="translate(128.000000, 30.000000)">
                                <path d="M3,-1.01643954e-20 L54,1.58938448e-15 L54,1.77635684e-15 C55.6568542,1.47199765e-15 57,1.34314575 57,3 L57,29 L57,29 C57,30.6568542 55.6568542,32 54,32 L34,32 L28,38 L22,32 L3,32 L3,32 C1.34314575,32 2.02906125e-16,30.6568542 0,29 L0,3 L0,3 C-2.02906125e-16,1.34314575 1.34314575,3.04359188e-16 3,0 Z" id="Rectangle-9" fill-opacity="0.65" fill="#000000"></path>
                                <text id="Log-out" font-family="Roboto-Regular, Roboto" font-size="12" font-weight="normal" line-spacing="18" fill="#FFFFFF">
                                    <tspan x="8" y="17">Log out</tspan>
                                </text>
                            </g>
                        </g>
                        <g id="Group-49" transform="translate(238.000000, 0.000000)">
                            <rect id="Rectangle-7" fill="#FAFAFA" x="0" y="0" width="249" height="135"></rect>
                            <g id="Group-17" transform="translate(59.000000, 72.000000)">
                                <rect id="Rectangle-2" fill="#FF5722" x="0" y="0" width="131" height="40" rx="2"></rect>
                                <text id="Add-Keyword" font-family="Roboto-Medium, Roboto" font-size="14" font-weight="400" line-spacing="21" fill="#FFFFFF">
                                    <tspan x="24" y="22">Add Keyword</tspan>
                                </text>
                                <rect id="Rectangle-2" fill="#FFFFFF" opacity="0.599999964" x="0" y="0" width="131" height="40" rx="2"></rect>
                            </g>
                            <g id="Group-44" transform="translate(24.000000, 10.000000)">
                                <path d="M3,-1.34909147e-13 L199,-4.22077195e-15 L199,-1.77635684e-15 C200.656854,-1.8268129e-14 202,1.34314575 202,3 L202,49 L202,49 C202,50.6568542 200.656854,52 199,52 L107,52 L101,58 L95,52 L3,52 L3,52 C1.34314575,52 2.02906125e-16,50.6568542 0,49 L0,3 L-1.77635684e-15,3 C-1.97926296e-15,1.34314575 1.34314575,-1.38251471e-13 3,-1.38555833e-13 Z" id="Rectangle-9" fill-opacity="0.65" fill="#000000"></path>
                                <text id="You-cannot-add-more" font-family="Roboto-Regular, Roboto" font-size="12" font-weight="normal" line-spacing="18" fill="#FFFFFF">
                                    <tspan x="8" y="19">You cannot add more keyword as </tspan>
                                    <tspan x="8" y="37">you have reached the quota</tspan>
                                </text>
                            </g>
                        </g>
                    </g>
                </g>
            </g>
        </g>
    </g>
</svg>