<?xml version="1.0" encoding="UTF-8"?>
<svg width="662px" height="205px" viewBox="0 0 662 205" version="1.1" xmlns="http://www.w3.org/2000/svg" xmlns:xlink="http://www.w3.org/1999/xlink">
    <!-- Generator: Sketch 47 (45396) - http://www.bohemiancoding.com/sketch -->
    <title>Group 29</title>
    <desc>Created with Sketch.</desc>
    <defs></defs>
    <g id="Designs" stroke="none" stroke-width="1" fill="none" fill-rule="evenodd">
        <g id="170711-V0.9.2" transform="translate(-800.000000, -4775.000000)">
            <g id="Group-29" transform="translate(800.000000, 4775.000000)">
                <rect id="Rectangle-5" fill-opacity="0.02" fill="#000000" x="0" y="0" width="662" height="177"></rect>
                <text id="Rich-Content-Buttons" font-family="Roboto-Regular, Roboto" font-size="14" font-weight="normal" fill="#888888">
                    <tspan x="249" y="204">Rich Content Buttons</tspan>
                </text>
                <g id="Group-17" transform="translate(83.000000, 61.000000)">
                    <rect id="Rectangle-2" fill="#FF5722" x="0" y="0" width="200" height="56" rx="2"></rect>
                    <text id="A-Button" font-family="Roboto-Medium, Roboto" font-size="14" font-weight="400" fill="#FAFAFA">
                        <tspan x="72.8613281" y="24">A Button</tspan>
                    </text>
                    <text id="Description-text-is" opacity="0.900000036" font-family="Roboto-Regular, Roboto" font-size="11" font-weight="normal" fill="#FAFAFA">
                        <tspan x="44.0251465" y="44">Description text is here</tspan>
                    </text>
                </g>
                <g id="Group-17" transform="translate(370.000000, 61.000000)">
                    <rect id="Rectangle-2" fill="#FF5722" x="0" y="0" width="202" height="56" rx="2"></rect>
                    <text id="A-Button" font-family="Roboto-Medium, Roboto" font-size="14" font-weight="400" fill="#FAFAFA">
                        <tspan x="64.8613281" y="24">A Button</tspan>
                    </text>
                    <text id="Description-text-is" opacity="0.900000036" font-family="Roboto-Regular, Roboto" font-size="11" font-weight="normal" fill="#FAFAFA">
                        <tspan x="65.0251465" y="44">Description text is here</tspan>
                    </text>
                    <path d="M36.8571429,31.9306741 L40.5367656,28.2510513 C40.8715007,27.9163162 41.4142136,27.9163162 41.7489487,28.2510513 C42.0836838,28.5857864 42.0836838,29.1284993 41.7489487,29.4632344 L36.6060915,34.6060915 C36.2713564,34.9408266 35.7286436,34.9408266 35.3939085,34.6060915 L30.2510513,29.4632344 C29.9163162,29.1284993 29.9163162,28.5857864 30.2510513,28.2510513 C30.5857864,27.9163162 31.1284993,27.9163162 31.4632344,28.2510513 L35.1428571,31.9306741 L35.1428571,16.8571429 C35.1428571,16.3837559 35.5266131,16 36,16 C36.4733869,16 36.8571429,16.3837559 36.8571429,16.8571429 L36.8571429,31.9306741 Z M24,32.2857143 C24,31.8123274 24.3837559,31.4285714 24.8571429,31.4285714 C25.3305298,31.4285714 25.7142857,31.8123274 25.7142857,32.2857143 L25.7142857,36.5714286 C25.7142857,37.5123274 26.4876726,38.2857143 27.4285714,38.2857143 L44.5714286,38.2857143 C45.5123274,38.2857143 46.2857143,37.5123274 46.2857143,36.5714286 L46.2857143,32.2857143 C46.2857143,31.8123274 46.6694702,31.4285714 47.1428571,31.4285714 C47.6162441,31.4285714 48,31.8123274 48,32.2857143 L48,36.5714286 C48,38.4591012 46.4591012,40 44.5714286,40 L27.4285714,40 C25.5408988,40 24,38.4591012 24,36.5714286 L24,32.2857143 Z" id="Combined-Shape" fill="#FFFFFF" fill-rule="nonzero"></path>
                </g>
            </g>
        </g>
    </g>
</svg>