<?xml version="1.0" encoding="UTF-8"?>
<svg width="920px" height="311px" viewBox="0 0 920 311" version="1.1" xmlns="http://www.w3.org/2000/svg" xmlns:xlink="http://www.w3.org/1999/xlink">
    <!-- Generator: Sketch 47 (45396) - http://www.bohemiancoding.com/sketch -->
    <title>Group 26</title>
    <desc>Created with Sketch.</desc>
    <defs>
        <path d="M2,0 L72,0 L72,40 L2,40 L2,40 C0.8954305,40 1.3527075e-16,39.1045695 0,38 L0,2 L0,2 C-1.3527075e-16,0.8954305 0.8954305,2.02906125e-16 2,0 Z" id="path-1"></path>
        <rect id="path-2" x="0" y="0" width="72" height="40"></rect>
        <path d="M0,0 L70,0 L70,0 C71.1045695,-2.02906125e-16 72,0.8954305 72,2 L72,38 L72,38 C72,39.1045695 71.1045695,40 70,40 L0,40 L0,0 Z" id="path-3"></path>
        <path d="M2,0 L40,0 L40,40 L2,40 L2,40 C0.8954305,40 1.3527075e-16,39.1045695 0,38 L0,2 L0,2 C-1.3527075e-16,0.8954305 0.8954305,2.02906125e-16 2,0 Z" id="path-4"></path>
        <path d="M4.99999977,14 C4.99999977,14 2.780757,12.3012618 1.9999999,11 C1.2192428,9.69873817 -0.260252385,8.04100945 3.47221274e-09,7 C0.260252369,5.95899054 1.2192428,5.63091493 1.99999997,6.41167212 C2.78075719,7.19242921 3.30669849,8.88406944 3.82720333,8.62381703 C4.34770818,8.3635647 3.95732934,5.89116721 3.43682478,4.45977918 C2.91632017,3.0283912 2.37364957,1.74807891e-07 3.43682477,3.01156433e-10 C4.49999997,-9.25366672e-08 4.49999977,1 4.99999977,2.5 C5.49999979,3.99999999 5.1096211,5.99999931 5.49999977,6 C5.89037843,6.00000059 6.03934826,5.65063082 6.03934837,5 C6.0393484,4.82318548 6.07401562,4.67374541 6.14440215,4.54985954 C6.33301949,4.21787805 6.77813669,4.06940091 7.49999977,4.06940079 C8.49124122,4.06940079 7.99999977,6.00000009 8.49999977,6 C8.99999977,6 9.00000016,6.04100937 8.99999977,5 C8.99999939,3.95899063 9.46363903,4.06940096 10.463639,4.06940079 C11.463639,4.06940079 10.9794954,5.9999999 11.4999998,6 C12.0205041,6.00000009 11.4999998,5.00000008 11.9999998,5 C12.4999998,5 12.9999992,5.15772862 12.9999998,7.5 C13.0000004,9.84227138 13.2807572,9.95899044 12.4999998,11 C11.7192423,12.0410096 10.9999998,13 10.9999998,13 C10.9999998,13 10.9999998,14 10.463639,14 C9.92727829,14.0000001 9.65063106,12.9999999 8.99999977,13 C8.34936847,13.0000001 7.99999977,14 7.99999977,14 L4.99999977,14 Z M8,11 C8,11.2708838 8.23193359,12 8.5,12 C8.77614237,12 9,11.2754211 9,11 L9,9 C9,8.7291162 8.76806641,8 8.5,8 C8.22385763,8 8,8.72457886 8,9 L8,11 Z M9.96969104,11 C9.96969104,11.2708838 10.2016246,12 10.469691,12 C10.7458334,12 10.969691,11.2754211 10.969691,11 L10.969691,9 C10.969691,8.7291162 10.7377574,8 10.469691,8 C10.1935487,8 9.96969104,8.72457886 9.96969104,9 L9.96969104,11 Z M6,11 C6,11.2708838 6.23193359,12 6.5,12 C6.77614237,12 7,11.2754211 7,11 L7,9 C7,8.7291162 6.76806641,8 6.5,8 C6.22385763,8 6,8.72457886 6,9 L6,11 Z" id="path-5"></path>
        <filter x="-45.9%" y="-35.7%" width="191.7%" height="185.7%" filterUnits="objectBoundingBox" id="filter-6">
            <feMorphology radius="1" operator="dilate" in="SourceAlpha" result="shadowSpreadOuter1"></feMorphology>
            <feOffset dx="0" dy="1" in="shadowSpreadOuter1" result="shadowOffsetOuter1"></feOffset>
            <feGaussianBlur stdDeviation="1.5" in="shadowOffsetOuter1" result="shadowBlurOuter1"></feGaussianBlur>
            <feComposite in="shadowBlurOuter1" in2="SourceAlpha" operator="out" result="shadowBlurOuter1"></feComposite>
            <feColorMatrix values="0 0 0 0 0   0 0 0 0 0   0 0 0 0 0  0 0 0 0.25 0" type="matrix" in="shadowBlurOuter1"></feColorMatrix>
        </filter>
        <path d="M39,0 L77,0 L77,0 C78.1045695,3.72131305e-15 79,0.8954305 79,2 L79,38 L79,38 C79,39.1045695 78.1045695,40 77,40 L39,40 L39,0 Z" id="path-7"></path>
        <path d="M4.99999977,14 C4.99999977,14 2.780757,12.3012618 1.9999999,11 C1.2192428,9.69873817 -0.260252385,8.04100945 3.47221274e-09,7 C0.260252369,5.95899054 1.2192428,5.63091493 1.99999997,6.41167212 C2.78075719,7.19242921 3.30669849,8.88406944 3.82720333,8.62381703 C4.34770818,8.3635647 3.95732934,5.89116721 3.43682478,4.45977918 C2.91632017,3.0283912 2.37364957,1.74807891e-07 3.43682477,3.01156433e-10 C4.49999997,-9.25366672e-08 4.49999977,1 4.99999977,2.5 C5.49999979,3.99999999 5.1096211,5.99999931 5.49999977,6 C5.89037843,6.00000059 6.03934826,5.65063082 6.03934837,5 C6.0393484,4.82318548 6.07401562,4.67374541 6.14440215,4.54985954 C6.33301949,4.21787805 6.77813669,4.06940091 7.49999977,4.06940079 C8.49124122,4.06940079 7.99999977,6.00000009 8.49999977,6 C8.99999977,6 9.00000016,6.04100937 8.99999977,5 C8.99999939,3.95899063 9.46363903,4.06940096 10.463639,4.06940079 C11.463639,4.06940079 10.9794954,5.9999999 11.4999998,6 C12.0205041,6.00000009 11.4999998,5.00000008 11.9999998,5 C12.4999998,5 12.9999992,5.15772862 12.9999998,7.5 C13.0000004,9.84227138 13.2807572,9.95899044 12.4999998,11 C11.7192423,12.0410096 10.9999998,13 10.9999998,13 C10.9999998,13 10.9999998,14 10.463639,14 C9.92727829,14.0000001 9.65063106,12.9999999 8.99999977,13 C8.34936847,13.0000001 7.99999977,14 7.99999977,14 L4.99999977,14 Z M8,11 C8,11.2708838 8.23193359,12 8.5,12 C8.77614237,12 9,11.2754211 9,11 L9,9 C9,8.7291162 8.76806641,8 8.5,8 C8.22385763,8 8,8.72457886 8,9 L8,11 Z M9.96969104,11 C9.96969104,11.2708838 10.2016246,12 10.469691,12 C10.7458334,12 10.969691,11.2754211 10.969691,11 L10.969691,9 C10.969691,8.7291162 10.7377574,8 10.469691,8 C10.1935487,8 9.96969104,8.72457886 9.96969104,9 L9.96969104,11 Z M6,11 C6,11.2708838 6.23193359,12 6.5,12 C6.77614237,12 7,11.2754211 7,11 L7,9 C7,8.7291162 6.76806641,8 6.5,8 C6.22385763,8 6,8.72457886 6,9 L6,11 Z" id="path-8"></path>
        <filter x="-45.9%" y="-35.7%" width="191.7%" height="185.7%" filterUnits="objectBoundingBox" id="filter-9">
            <feMorphology radius="1" operator="dilate" in="SourceAlpha" result="shadowSpreadOuter1"></feMorphology>
            <feOffset dx="0" dy="1" in="shadowSpreadOuter1" result="shadowOffsetOuter1"></feOffset>
            <feGaussianBlur stdDeviation="1.5" in="shadowOffsetOuter1" result="shadowBlurOuter1"></feGaussianBlur>
            <feComposite in="shadowBlurOuter1" in2="SourceAlpha" operator="out" result="shadowBlurOuter1"></feComposite>
            <feColorMatrix values="0 0 0 0 0   0 0 0 0 0   0 0 0 0 0  0 0 0 0.25 0" type="matrix" in="shadowBlurOuter1"></feColorMatrix>
        </filter>
        <path d="M2,0 L96,0 L96,0 C97.1045695,-2.02906125e-16 98,0.8954305 98,2 L98,40 L0,40 L0,2 L0,2 C-1.3527075e-16,0.8954305 0.8954305,2.02906125e-16 2,0 Z" id="path-10"></path>
        <rect id="path-11" x="0" y="0" width="98" height="40"></rect>
        <path d="M0,0 L98,0 L98,38 L98,38 C98,39.1045695 97.1045695,40 96,40 L2,40 L2,40 C0.8954305,40 4.05948992e-15,39.1045695 0,38 L0,0 Z" id="path-12"></path>
        <path d="M2,0 L78,0 L78,40 L2,40 L2,40 C0.8954305,40 1.3527075e-16,39.1045695 0,38 L0,2 L0,2 C-1.3527075e-16,0.8954305 0.8954305,2.02906125e-16 2,0 Z" id="path-13"></path>
        <path d="M77,0 L151,0 L151,0 C152.104569,-2.02906125e-16 153,0.8954305 153,2 L153,38 L153,38 C153,39.1045695 152.104569,40 151,40 L77,40 L77,0 Z" id="path-14"></path>
    </defs>
    <g id="Designs" stroke="none" stroke-width="1" fill="none" fill-rule="evenodd">
        <g id="170711-V0.9.2" transform="translate(-801.000000, -6939.000000)">
            <g id="Group-26" transform="translate(801.000000, 6939.000000)">
                <g id="Group-47" transform="translate(156.000000, 0.000000)">
                    <rect id="Rectangle-7" fill="#FAFAFA" x="0" y="0" width="258" height="145"></rect>
                    <g id="Group-17" transform="translate(23.000000, 21.000000)">
                        <g id="Rectangle-2">
                            <use fill="#FFFFFF" fill-rule="evenodd" xlink:href="#path-1"></use>
                            <path stroke="#DBDBDB" stroke-width="1" d="M71.5,39.5 L71.5,0.5 L2,0.5 C1.17157288,0.5 0.5,1.17157288 0.5,2 L0.5,38 C0.5,38.8284271 1.17157288,39.5 2,39.5 L71.5,39.5 Z"></path>
                        </g>
                        <text id="Cut" font-family="Roboto-Medium, Roboto" font-size="14" font-weight="400" line-spacing="21" fill="#555555">
                            <tspan x="25.7128906" y="22">Cut</tspan>
                        </text>
                        <g id="Group-41" transform="translate(71.000000, 0.000000)">
                            <g id="Rectangle-2">
                                <use fill="#FFFFFF" fill-rule="evenodd" xlink:href="#path-2"></use>
                                <rect stroke="#DBDBDB" stroke-width="1" x="0.5" y="0.5" width="71" height="39"></rect>
                            </g>
                            <text id="Copy" font-family="Roboto-Medium, Roboto" font-size="14" font-weight="400" line-spacing="21" fill="#555555">
                                <tspan x="20.1337891" y="22">Copy</tspan>
                            </text>
                        </g>
                        <g id="Group-41" transform="translate(142.000000, 0.000000)">
                            <g id="Rectangle-2">
                                <use fill="#FFFFFF" fill-rule="evenodd" xlink:href="#path-3"></use>
                                <path stroke="#DBDBDB" stroke-width="1" d="M0.5,0.5 L0.5,39.5 L70,39.5 C70.8284271,39.5 71.5,38.8284271 71.5,38 L71.5,2 C71.5,1.17157288 70.8284271,0.5 70,0.5 L0.5,0.5 Z"></path>
                            </g>
                            <text id="Paste" font-family="Roboto-Medium, Roboto" font-size="14" font-weight="400" line-spacing="21" fill="#555555">
                                <tspan x="18.0795898" y="22">Paste</tspan>
                            </text>
                        </g>
                    </g>
                    <g id="Group-17" transform="translate(90.000000, 80.000000)">
                        <g id="Rectangle-2">
                            <use fill="#FFFFFF" fill-rule="evenodd" xlink:href="#path-4"></use>
                            <use fill-opacity="0.0299999993" fill="#000000" fill-rule="evenodd" xlink:href="#path-4"></use>
                            <path stroke="#DBDBDB" stroke-width="1" d="M39.5,39.5 L39.5,0.5 L2,0.5 C1.17157288,0.5 0.5,1.17157288 0.5,2 L0.5,38 C0.5,38.8284271 1.17157288,39.5 2,39.5 L39.5,39.5 Z"></path>
                        </g>
                        <g id="Cursor-/-Pointer" transform="translate(23.000000, 34.000000)">
                            <g id="Pointer">
                                <use fill="black" fill-opacity="1" filter="url(#filter-6)" xlink:href="#path-5"></use>
                                <use fill="#FFFFFF" fill-rule="evenodd" xlink:href="#path-5"></use>
                                <path stroke="#000000" stroke-width="1" d="M3.57605264,7.86886829 C3.57241731,7.66457317 3.5650967,7.37326956 3.52581728,7.03939464 C3.43304259,6.25081004 3.21475604,5.31217786 2.96692806,4.63065068 C2.66718322,3.80635221 2.41092929,2.64931273 2.34425269,1.72925958 C2.24727325,0.391065577 2.51057107,-0.499999848 3.43682473,-0.5 C4.36321899,-0.500000081 4.76979273,-0.0142192182 5.1012711,1.08624342 C5.07149731,0.987398516 5.36793341,2.02266209 5.47434141,2.34188611 C5.57905679,2.65603222 5.65272028,2.99864222 5.70224378,3.37472107 C5.7390196,3.65399474 5.7594096,3.89031331 5.77303639,4.2025009 C6.08842116,3.75182727 6.66614661,3.56940093 7.49999977,3.56940079 C8.08903749,3.56940079 8.39871002,3.87344846 8.56379458,4.40706062 C8.6413897,4.10593831 8.79424359,3.88692891 9.04644018,3.74131922 C9.32990252,3.57765775 9.53527388,3.56045628 10.2187362,3.56773854 C10.3386214,3.56899267 10.3923139,3.5694008 10.463639,3.56940079 C11.1273974,3.56940079 11.4389193,3.95190243 11.5929548,4.61662629 C11.7060508,4.54192954 11.844071,4.50000003 11.9999998,4.5 C13.0584447,4.5 13.4999992,5.28235494 13.4999998,7.49999987 C13.4999999,7.9125726 13.5080173,8.26047668 13.5242075,8.68754329 C13.5682665,9.84974276 13.5645332,9.99797054 13.4181946,10.4100702 C13.3205201,10.6851285 13.1648512,10.9468649 12.8999997,11.3000001 C11.8666405,12.6778121 11.7696644,12.8071137 11.4929846,13.1760202 C11.482533,13.3113719 11.45928,13.4677182 11.4158897,13.6295137 C11.2802785,14.135185 10.9867699,14.5 10.4636391,14.5 C10.0829613,14.5000001 9.83512877,14.3231063 9.51768991,13.9659274 C9.48685616,13.9312336 9.45534286,13.8949899 9.39747606,13.8282135 C9.17649616,13.5742554 9.07684634,13.5 8.99999984,13.5 C8.91823665,13.5 8.79792217,13.5907818 8.67049804,13.7796466 C8.57207922,13.9255204 8.50274735,14.0769638 8.47202178,14.1649097 L8.35495172,14.5 L4.83060076,14.5 L4.6960862,14.3970347 C4.58906305,14.3151129 4.4053218,14.1694172 4.17017151,13.9743411 C3.77869498,13.6495797 3.38709033,13.3046237 3.02025764,12.9532621 C2.71263719,12.6586155 2.43572793,12.3718986 2.19673993,12.0965327 C1.93929299,11.799898 1.72894075,11.5200601 1.57125343,11.2572479 C1.39853209,10.969379 1.31312586,10.8424581 0.802180337,10.099907 C0.707491069,9.96229626 0.635551951,9.85699149 0.566085786,9.7539705 C-0.321664053,8.43740331 -0.676590785,7.64481027 -0.485071247,6.87873219 C-0.12834339,5.45182076 1.30373784,5.00830319 2.35355334,6.0581187 C2.60674637,6.31131169 2.82804519,6.62418288 3.10439053,7.08368642 C3.16760755,7.18880288 3.37918524,7.54952018 3.42006044,7.61778007 C3.47918337,7.71651294 3.53021317,7.79883171 3.57605264,7.86886829 Z M8.5,11 C8.5,11.0668258 8.54601018,11.2556897 8.60992198,11.4066746 C8.64137091,11.4809694 8.67329287,11.537784 8.69562967,11.5650611 C8.6730237,11.5374553 8.61446527,11.5 8.5,11.5 C8.39035557,11.5 8.33191764,11.5365374 8.30953113,11.5635695 C8.33095671,11.5376978 8.36196782,11.4825576 8.39251792,11.4097725 C8.45523277,11.2603554 8.5,11.0716349 8.5,11 L8.5,9 C8.5,8.93317417 8.45398982,8.74431031 8.39007802,8.59332539 C8.35862909,8.5190306 8.32670713,8.46221599 8.30437033,8.43493891 C8.3269763,8.46254468 8.38553473,8.5 8.5,8.5 C8.60964443,8.5 8.66808236,8.46346258 8.69046887,8.43643047 C8.66904329,8.46230224 8.63803218,8.5174424 8.60748208,8.59022753 C8.54476723,8.73964463 8.5,8.92836514 8.5,9 L8.5,11 Z M10.469691,11 C10.469691,11.0668258 10.5157012,11.2556897 10.579613,11.4066746 C10.611062,11.4809694 10.6429839,11.537784 10.6653207,11.5650611 C10.6427147,11.5374553 10.5841563,11.5 10.469691,11.5 C10.3600466,11.5 10.3016087,11.5365374 10.2792222,11.5635695 C10.3006478,11.5376978 10.3316589,11.4825576 10.362209,11.4097725 C10.4249238,11.2603554 10.469691,11.0716349 10.469691,11 L10.469691,9 C10.469691,8.93317417 10.4236809,8.74431031 10.3597691,8.59332539 C10.3283201,8.5190306 10.2963982,8.46221599 10.2740614,8.43493891 C10.2966673,8.46254468 10.3552258,8.5 10.469691,8.5 C10.5793355,8.5 10.6377734,8.46346258 10.6601599,8.43643047 C10.6387343,8.46230224 10.6077232,8.5174424 10.5771731,8.59022753 C10.5144583,8.73964463 10.469691,8.92836514 10.469691,9 L10.469691,11 Z M6.5,11 L6.5,9 C6.5,8.92836514 6.54476723,8.73964463 6.60748208,8.59022753 C6.63803218,8.5174424 6.66904329,8.46230224 6.69046887,8.43643047 C6.66808236,8.46346258 6.60964443,8.5 6.5,8.5 C6.38553473,8.5 6.3269763,8.46254468 6.30437033,8.43493891 C6.32670713,8.46221599 6.35862909,8.5190306 6.39007802,8.59332539 C6.45398982,8.74431031 6.5,8.93317417 6.5,9 L6.5,11 C6.5,11.0716349 6.45523277,11.2603554 6.39251792,11.4097725 C6.36196782,11.4825576 6.33095671,11.5376978 6.30953113,11.5635695 C6.33191764,11.5365374 6.39035557,11.5 6.5,11.5 C6.61446527,11.5 6.6730237,11.5374553 6.69562967,11.5650611 C6.67329287,11.537784 6.64137091,11.4809694 6.60992198,11.4066746 C6.54601018,11.2556897 6.5,11.0668258 6.5,11 Z"></path>
                            </g>
                        </g>
                        <g id="Rectangle-2">
                            <use fill="#FFFFFF" fill-rule="evenodd" xlink:href="#path-7"></use>
                            <path stroke="#DBDBDB" stroke-width="1" d="M39.5,0.5 L39.5,39.5 L77,39.5 C77.8284271,39.5 78.5,38.8284271 78.5,38 L78.5,2 C78.5,1.17157288 77.8284271,0.5 77,0.5 L39.5,0.5 Z"></path>
                        </g>
                        <polyline id="Shape" stroke="#555555" stroke-width="2" stroke-linecap="round" stroke-linejoin="round" points="13 17 20 24.6363636 27 17.0198864"></polyline>
                        <polyline id="Shape" stroke="#555555" stroke-width="2" stroke-linecap="round" stroke-linejoin="round" transform="translate(59.000000, 20.818182) scale(1, -1) translate(-59.000000, -20.818182) " points="52 17 59 24.6363636 66 17.0198864"></polyline>
                    </g>
                </g>
                <g id="Group-47" transform="translate(156.000000, 228.000000)">
                    <rect id="Rectangle-7" fill="#FAFAFA" x="0" y="0" width="258" height="83"></rect>
                    <rect id="Rectangle-10" fill-opacity="0.03" fill="#000000" x="45" y="22" width="40" height="40"></rect>
                    <path d="M178,49 L192,49 L192,47 L178,47 L178,49 Z M178,45 L192,45 L192,43 L178,43 L178,45 Z M178,35 L178,37 L192,37 L192,35 L178,35 Z M178,41 L192,41 L192,39 L178,39 L178,41 Z" id="Shape" fill="#555555" fill-rule="nonzero"></path>
                    <path d="M58,49 L68,49 L68,47 L58,47 L58,49 Z M68,39 L58,39 L58,41 L68,41 L68,39 Z M58,35 L58,37 L72,37 L72,35 L58,35 Z M58,45 L72,45 L72,43 L58,43 L58,45 Z" id="Shape" fill="#555555" fill-rule="nonzero"></path>
                    <g id="Cursor-/-Pointer" transform="translate(64.000000, 46.000000)">
                        <g id="Pointer">
                            <use fill="black" fill-opacity="1" filter="url(#filter-9)" xlink:href="#path-8"></use>
                            <use fill="#FFFFFF" fill-rule="evenodd" xlink:href="#path-8"></use>
                            <path stroke="#000000" stroke-width="1" d="M3.57605264,7.86886829 C3.57241731,7.66457317 3.5650967,7.37326956 3.52581728,7.03939464 C3.43304259,6.25081004 3.21475604,5.31217786 2.96692806,4.63065068 C2.66718322,3.80635221 2.41092929,2.64931273 2.34425269,1.72925958 C2.24727325,0.391065577 2.51057107,-0.499999848 3.43682473,-0.5 C4.36321899,-0.500000081 4.76979273,-0.0142192182 5.1012711,1.08624342 C5.07149731,0.987398516 5.36793341,2.02266209 5.47434141,2.34188611 C5.57905679,2.65603222 5.65272028,2.99864222 5.70224378,3.37472107 C5.7390196,3.65399474 5.7594096,3.89031331 5.77303639,4.2025009 C6.08842116,3.75182727 6.66614661,3.56940093 7.49999977,3.56940079 C8.08903749,3.56940079 8.39871002,3.87344846 8.56379458,4.40706062 C8.6413897,4.10593831 8.79424359,3.88692891 9.04644018,3.74131922 C9.32990252,3.57765775 9.53527388,3.56045628 10.2187362,3.56773854 C10.3386214,3.56899267 10.3923139,3.5694008 10.463639,3.56940079 C11.1273974,3.56940079 11.4389193,3.95190243 11.5929548,4.61662629 C11.7060508,4.54192954 11.844071,4.50000003 11.9999998,4.5 C13.0584447,4.5 13.4999992,5.28235494 13.4999998,7.49999987 C13.4999999,7.9125726 13.5080173,8.26047668 13.5242075,8.68754329 C13.5682665,9.84974276 13.5645332,9.99797054 13.4181946,10.4100702 C13.3205201,10.6851285 13.1648512,10.9468649 12.8999997,11.3000001 C11.8666405,12.6778121 11.7696644,12.8071137 11.4929846,13.1760202 C11.482533,13.3113719 11.45928,13.4677182 11.4158897,13.6295137 C11.2802785,14.135185 10.9867699,14.5 10.4636391,14.5 C10.0829613,14.5000001 9.83512877,14.3231063 9.51768991,13.9659274 C9.48685616,13.9312336 9.45534286,13.8949899 9.39747606,13.8282135 C9.17649616,13.5742554 9.07684634,13.5 8.99999984,13.5 C8.91823665,13.5 8.79792217,13.5907818 8.67049804,13.7796466 C8.57207922,13.9255204 8.50274735,14.0769638 8.47202178,14.1649097 L8.35495172,14.5 L4.83060076,14.5 L4.6960862,14.3970347 C4.58906305,14.3151129 4.4053218,14.1694172 4.17017151,13.9743411 C3.77869498,13.6495797 3.38709033,13.3046237 3.02025764,12.9532621 C2.71263719,12.6586155 2.43572793,12.3718986 2.19673993,12.0965327 C1.93929299,11.799898 1.72894075,11.5200601 1.57125343,11.2572479 C1.39853209,10.969379 1.31312586,10.8424581 0.802180337,10.099907 C0.707491069,9.96229626 0.635551951,9.85699149 0.566085786,9.7539705 C-0.321664053,8.43740331 -0.676590785,7.64481027 -0.485071247,6.87873219 C-0.12834339,5.45182076 1.30373784,5.00830319 2.35355334,6.0581187 C2.60674637,6.31131169 2.82804519,6.62418288 3.10439053,7.08368642 C3.16760755,7.18880288 3.37918524,7.54952018 3.42006044,7.61778007 C3.47918337,7.71651294 3.53021317,7.79883171 3.57605264,7.86886829 Z M8.5,11 C8.5,11.0668258 8.54601018,11.2556897 8.60992198,11.4066746 C8.64137091,11.4809694 8.67329287,11.537784 8.69562967,11.5650611 C8.6730237,11.5374553 8.61446527,11.5 8.5,11.5 C8.39035557,11.5 8.33191764,11.5365374 8.30953113,11.5635695 C8.33095671,11.5376978 8.36196782,11.4825576 8.39251792,11.4097725 C8.45523277,11.2603554 8.5,11.0716349 8.5,11 L8.5,9 C8.5,8.93317417 8.45398982,8.74431031 8.39007802,8.59332539 C8.35862909,8.5190306 8.32670713,8.46221599 8.30437033,8.43493891 C8.3269763,8.46254468 8.38553473,8.5 8.5,8.5 C8.60964443,8.5 8.66808236,8.46346258 8.69046887,8.43643047 C8.66904329,8.46230224 8.63803218,8.5174424 8.60748208,8.59022753 C8.54476723,8.73964463 8.5,8.92836514 8.5,9 L8.5,11 Z M10.469691,11 C10.469691,11.0668258 10.5157012,11.2556897 10.579613,11.4066746 C10.611062,11.4809694 10.6429839,11.537784 10.6653207,11.5650611 C10.6427147,11.5374553 10.5841563,11.5 10.469691,11.5 C10.3600466,11.5 10.3016087,11.5365374 10.2792222,11.5635695 C10.3006478,11.5376978 10.3316589,11.4825576 10.362209,11.4097725 C10.4249238,11.2603554 10.469691,11.0716349 10.469691,11 L10.469691,9 C10.469691,8.93317417 10.4236809,8.74431031 10.3597691,8.59332539 C10.3283201,8.5190306 10.2963982,8.46221599 10.2740614,8.43493891 C10.2966673,8.46254468 10.3552258,8.5 10.469691,8.5 C10.5793355,8.5 10.6377734,8.46346258 10.6601599,8.43643047 C10.6387343,8.46230224 10.6077232,8.5174424 10.5771731,8.59022753 C10.5144583,8.73964463 10.469691,8.92836514 10.469691,9 L10.469691,11 Z M6.5,11 L6.5,9 C6.5,8.92836514 6.54476723,8.73964463 6.60748208,8.59022753 C6.63803218,8.5174424 6.66904329,8.46230224 6.69046887,8.43643047 C6.66808236,8.46346258 6.60964443,8.5 6.5,8.5 C6.38553473,8.5 6.3269763,8.46254468 6.30437033,8.43493891 C6.32670713,8.46221599 6.35862909,8.5190306 6.39007802,8.59332539 C6.45398982,8.74431031 6.5,8.93317417 6.5,9 L6.5,11 C6.5,11.0716349 6.45523277,11.2603554 6.39251792,11.4097725 C6.36196782,11.4825576 6.33095671,11.5376978 6.30953113,11.5635695 C6.33191764,11.5365374 6.39035557,11.5 6.5,11.5 C6.61446527,11.5 6.6730237,11.5374553 6.69562967,11.5650611 C6.67329287,11.537784 6.64137091,11.4809694 6.60992198,11.4066746 C6.54601018,11.2556897 6.5,11.0668258 6.5,11 Z"></path>
                        </g>
                    </g>
                    <path d="M100,47 L100,49 L110,49 L110,47 L100,47 Z M100,39 L100,41 L110,41 L110,39 L100,39 Z M98,45 L112,45 L112,43 L98,43 L98,45 Z M98,35 L98,37 L112,37 L112,35 L98,35 Z" id="Shape" fill="#555555" fill-rule="nonzero"></path>
                    <path d="M142,49 L152,49 L152,47 L142,47 L142,49 Z M138,45 L152,45 L152,43 L138,43 L138,45 Z M138,35 L138,37 L152,37 L152,35 L138,35 Z M142,41 L152,41 L152,39 L142,39 L142,41 Z" id="Shape" fill="#555555" fill-rule="nonzero"></path>
                </g>
                <g id="Group-46" transform="translate(424.000000, 0.000000)">
                    <rect id="Rectangle-7" fill="#FAFAFA" x="0" y="0" width="184" height="145"></rect>
                    <g id="Group-17" transform="translate(40.000000, 11.000000)">
                        <g id="Rectangle-2">
                            <use fill="#FFFFFF" fill-rule="evenodd" xlink:href="#path-10"></use>
                            <path stroke="#DBDBDB" stroke-width="1" d="M0.5,39.5 L97.5,39.5 L97.5,2 C97.5,1.17157288 96.8284271,0.5 96,0.5 L2,0.5 C1.17157288,0.5 0.5,1.17157288 0.5,2 L0.5,39.5 Z"></path>
                        </g>
                        <text id="Edit" font-family="Roboto-Medium, Roboto" font-size="14" font-weight="400" line-spacing="21" fill="#555555">
                            <tspan x="37.5405273" y="22">Edit</tspan>
                        </text>
                        <g id="Group-42" transform="translate(0.000000, 39.000000)">
                            <g id="Rectangle-2">
                                <use fill="#FFFFFF" fill-rule="evenodd" xlink:href="#path-11"></use>
                                <rect stroke="#DBDBDB" stroke-width="1" x="0.5" y="0.5" width="97" height="39"></rect>
                            </g>
                            <text id="Delete" font-family="Roboto-Medium, Roboto" font-size="14" font-weight="400" line-spacing="21" fill="#555555">
                                <tspan x="29.0424805" y="22">Delete</tspan>
                            </text>
                        </g>
                        <g id="Group-42" transform="translate(0.000000, 78.000000)">
                            <g id="Rectangle-2">
                                <use fill="#FFFFFF" fill-rule="evenodd" xlink:href="#path-12"></use>
                                <path stroke="#DBDBDB" stroke-width="1" d="M0.5,0.5 L0.5,38 C0.5,38.8284271 1.17157288,39.5 2,39.5 L96,39.5 C96.8284271,39.5 97.5,38.8284271 97.5,38 L97.5,0.5 L0.5,0.5 Z"></path>
                            </g>
                            <text id="Preview" font-family="Roboto-Medium, Roboto" font-size="14" font-weight="400" line-spacing="21" fill="#555555">
                                <tspan x="24.2094727" y="22">Preview</tspan>
                            </text>
                        </g>
                    </g>
                </g>
                <g id="Group-23" transform="translate(635.000000, 13.000000)">
                    <g id="Group-30">
                        <g id="Group-17">
                            <g id="Rectangle-2">
                                <use fill="#FFFFFF" fill-rule="evenodd" xlink:href="#path-13"></use>
                                <path stroke="#DBDBDB" stroke-width="1" d="M77.5,39.5 L77.5,0.5 L2,0.5 C1.17157288,0.5 0.5,1.17157288 0.5,2 L0.5,38 C0.5,38.8284271 1.17157288,39.5 2,39.5 L77.5,39.5 Z"></path>
                            </g>
                            <g id="Rectangle-2">
                                <use fill="#FFFFFF" fill-rule="evenodd" xlink:href="#path-14"></use>
                                <path stroke="#DBDBDB" stroke-width="1" d="M77.5,0.5 L77.5,39.5 L151,39.5 C151.828427,39.5 152.5,38.8284271 152.5,38 L152.5,2 C152.5,1.17157288 151.828427,0.5 151,0.5 L77.5,0.5 Z"></path>
                            </g>
                            <text id="Grid" font-family="Roboto-Medium, Roboto" font-size="14" font-weight="400" line-spacing="21" fill="#555555">
                                <tspan x="36.0356445" y="22">Grid</tspan>
                            </text>
                            <path d="M16,14.4931188 C16,14.2207768 16.2209821,14 16.4931188,14 L20.6497384,14 C20.9220804,14 21.1428571,14.2209821 21.1428571,14.4931188 L21.1428571,18.6497384 C21.1428571,18.9220804 20.921875,19.1428571 20.6497384,19.1428571 L16.4931188,19.1428571 C16.2207768,19.1428571 16,18.921875 16,18.6497384 L16,14.4931188 Z M22.8571429,14.4931188 C22.8571429,14.2207768 23.078125,14 23.3502616,14 L27.5068812,14 C27.7792232,14 28,14.2209821 28,14.4931188 L28,18.6497384 C28,18.9220804 27.7790179,19.1428571 27.5068812,19.1428571 L23.3502616,19.1428571 C23.0779196,19.1428571 22.8571429,18.921875 22.8571429,18.6497384 L22.8571429,14.4931188 Z M22.8571429,21.3502616 C22.8571429,21.0779196 23.078125,20.8571429 23.3502616,20.8571429 L27.5068812,20.8571429 C27.7792232,20.8571429 28,21.078125 28,21.3502616 L28,25.5068812 C28,25.7792232 27.7790179,26 27.5068812,26 L23.3502616,26 C23.0779196,26 22.8571429,25.7790179 22.8571429,25.5068812 L22.8571429,21.3502616 Z M16,21.3502616 C16,21.0779196 16.2209821,20.8571429 16.4931188,20.8571429 L20.6497384,20.8571429 C20.9220804,20.8571429 21.1428571,21.078125 21.1428571,21.3502616 L21.1428571,25.5068812 C21.1428571,25.7792232 20.921875,26 20.6497384,26 L16.4931188,26 C16.2207768,26 16,25.7790179 16,25.5068812 L16,21.3502616 Z" id="Combined-Shape" fill="#808080"></path>
                            <text id="List" font-family="Roboto-Medium, Roboto" font-size="14" font-weight="400" line-spacing="21" fill="#555555">
                                <tspan x="113.484863" y="22">List</tspan>
                            </text>
                            <path d="M93,16.2092154 L93,15.5050703 C93,15.2241129 93.2240131,15 93.5003473,15 L104.499653,15 C104.770999,15 105,15.2261277 105,15.5050703 L105,16.2092154 C105,16.4901728 104.775987,16.7142857 104.499653,16.7142857 L93.5003473,16.7142857 C93.2290006,16.7142857 93,16.488158 93,16.2092154 Z M93,24.780644 L93,24.0764988 C93,23.7955415 93.2240131,23.5714286 93.5003473,23.5714286 L104.499653,23.5714286 C104.770999,23.5714286 105,23.7975562 105,24.0764988 L105,24.780644 C105,25.0616014 104.775987,25.2857143 104.499653,25.2857143 L93.5003473,25.2857143 C93.2290006,25.2857143 93,25.0595866 93,24.780644 Z M93,20.4949297 L93,19.7907846 C93,19.5098272 93.2240131,19.2857143 93.5003473,19.2857143 L104.499653,19.2857143 C104.770999,19.2857143 105,19.511842 105,19.7907846 L105,20.4949297 C105,20.7758871 104.775987,21 104.499653,21 L93.5003473,21 C93.2290006,21 93,20.7738723 93,20.4949297 Z" id="Combined-Shape" fill="#808080" fill-rule="nonzero"></path>
                        </g>
                        <g id="Group-20" transform="translate(2.000000, 57.000000)">
                            <text id="Under-the-premise-of" font-family="PingFangSC-Regular, PingFang SC" font-size="12" font-weight="normal" line-spacing="18" fill="#888888">
                                <tspan x="20" y="24">Under the premise of clarity and clarity, try to </tspan>
                                <tspan x="20" y="42">avoid using the "ICON + TEXT" button in the </tspan>
                                <tspan x="20" y="60">button group to avoid duplication and </tspan>
                                <tspan x="20" y="78">cumbersome.</tspan>
                            </text>
                            <g id="Group-21" transform="translate(0.000000, 16.000000)" stroke="#FF424F" stroke-width="2">
                                <path d="M0,0 L10.4891959,10.4891959" id="Path-6"></path>
                                <path d="M10.4891959,0 L0,10.4891959" id="Path-6"></path>
                            </g>
                            <path d="M0.5,1 L280.5,1" id="Line" stroke="#FF424F" stroke-width="4" stroke-linecap="square"></path>
                        </g>
                    </g>
                </g>
                <text id="Solid-Buttons" font-family="Roboto-Regular, Roboto" font-size="14" font-weight="normal" fill="#888888">
                    <tspan x="0" y="26">Solid Buttons</tspan>
                </text>
                <text id="Frameless-Buttons" font-family="Roboto-Regular, Roboto" font-size="14" font-weight="normal" fill="#888888">
                    <tspan x="0" y="277">Frameless Buttons</tspan>
                </text>
            </g>
        </g>
    </g>
</svg>