<?xml version="1.0" encoding="UTF-8"?>
<svg width="767px" height="333px" viewBox="0 0 767 333" version="1.1" xmlns="http://www.w3.org/2000/svg" xmlns:xlink="http://www.w3.org/1999/xlink">
    <!-- Generator: Sketch 47 (45396) - http://www.bohemiancoding.com/sketch -->
    <title>Group 28</title>
    <desc>Created with Sketch.</desc>
    <defs>
        <path d="M0,0 L0,12 L3.375,9 L6.1875,14 L7.3125,14 C7.3125,14 8.03886775,13.3495845 7.875,13 C7.10136777,11.3495845 5.0625,8 5.0625,8 L9,8 L0,0 Z" id="path-1"></path>
        <filter x="-66.7%" y="-35.7%" width="233.3%" height="185.7%" filterUnits="objectBoundingBox" id="filter-2">
            <feMorphology radius="1" operator="dilate" in="SourceAlpha" result="shadowSpreadOuter1"></feMorphology>
            <feOffset dx="0" dy="1" in="shadowSpreadOuter1" result="shadowOffsetOuter1"></feOffset>
            <feGaussianBlur stdDeviation="1.5" in="shadowOffsetOuter1" result="shadowBlurOuter1"></feGaussianBlur>
            <feComposite in="shadowBlurOuter1" in2="SourceAlpha" operator="out" result="shadowBlurOuter1"></feComposite>
            <feColorMatrix values="0 0 0 0 0   0 0 0 0 0   0 0 0 0 0  0 0 0 0.25 0" type="matrix" in="shadowBlurOuter1"></feColorMatrix>
        </filter>
        <path d="M0,0 L0,12 L3.375,9 L6.1875,14 L7.3125,14 C7.3125,14 8.03886775,13.3495845 7.875,13 C7.10136777,11.3495845 5.0625,8 5.0625,8 L9,8 L0,0 Z" id="path-3"></path>
        <filter x="-66.7%" y="-35.7%" width="233.3%" height="185.7%" filterUnits="objectBoundingBox" id="filter-4">
            <feMorphology radius="1" operator="dilate" in="SourceAlpha" result="shadowSpreadOuter1"></feMorphology>
            <feOffset dx="0" dy="1" in="shadowSpreadOuter1" result="shadowOffsetOuter1"></feOffset>
            <feGaussianBlur stdDeviation="1.5" in="shadowOffsetOuter1" result="shadowBlurOuter1"></feGaussianBlur>
            <feComposite in="shadowBlurOuter1" in2="SourceAlpha" operator="out" result="shadowBlurOuter1"></feComposite>
            <feColorMatrix values="0 0 0 0 0   0 0 0 0 0   0 0 0 0 0  0 0 0 0.25 0" type="matrix" in="shadowBlurOuter1"></feColorMatrix>
        </filter>
        <rect id="path-5" x="0" y="0" width="140" height="40" rx="2"></rect>
        <rect id="path-6" x="0" y="0" width="140" height="40" rx="2"></rect>
        <path d="M0,0 L0,12 L3.375,9 L6.1875,14 L7.3125,14 C7.3125,14 8.03886775,13.3495845 7.875,13 C7.10136777,11.3495845 5.0625,8 5.0625,8 L9,8 L0,0 Z" id="path-7"></path>
        <filter x="-66.7%" y="-35.7%" width="233.3%" height="185.7%" filterUnits="objectBoundingBox" id="filter-8">
            <feMorphology radius="1" operator="dilate" in="SourceAlpha" result="shadowSpreadOuter1"></feMorphology>
            <feOffset dx="0" dy="1" in="shadowSpreadOuter1" result="shadowOffsetOuter1"></feOffset>
            <feGaussianBlur stdDeviation="1.5" in="shadowOffsetOuter1" result="shadowBlurOuter1"></feGaussianBlur>
            <feComposite in="shadowBlurOuter1" in2="SourceAlpha" operator="out" result="shadowBlurOuter1"></feComposite>
            <feColorMatrix values="0 0 0 0 0   0 0 0 0 0   0 0 0 0 0  0 0 0 0.25 0" type="matrix" in="shadowBlurOuter1"></feColorMatrix>
        </filter>
    </defs>
    <g id="Designs" stroke="none" stroke-width="1" fill="none" fill-rule="evenodd">
        <g id="170711-V0.9.2" transform="translate(-800.000000, -4241.000000)">
            <g id="Group-28" transform="translate(800.000000, 4241.000000)">
                <g id="Group-22">
                    <rect id="Rectangle-5" fill-opacity="0.02" fill="#000000" x="0" y="0" width="375" height="149"></rect>
                    <g id="Group-18" transform="translate(32.000000, 38.000000)">
                        <g id="Group-17">
                            <rect id="Rectangle-2" fill="#FF5722" x="0" y="0" width="140" height="40" rx="2"></rect>
                            <text id="A-Button" font-family="Roboto-Medium, Roboto" font-size="14" font-weight="400" fill="#FAFAFA">
                                <tspan x="41.8613281" y="24">A Button</tspan>
                            </text>
                        </g>
                        <text id="Normal" font-family="Roboto-Regular, Roboto" font-size="14" font-weight="normal" fill="#888888">
                            <tspan x="41" y="73">Normal</tspan>
                        </text>
                    </g>
                    <g id="Group-3" transform="translate(214.000000, 38.000000)">
                        <text id="Loading" font-family="Roboto-Regular, Roboto" font-size="14" font-weight="normal" fill="#888888">
                            <tspan x="41" y="73">Loading</tspan>
                        </text>
                        <g id="Group-17">
                            <rect id="Rectangle-2" fill="#FF5722" x="0" y="0" width="140" height="40" rx="2"></rect>
                            <g id="Group-12" transform="translate(31.000000, 9.000000)">
                                <text id="A-Button" font-family="Roboto-Medium, Roboto" font-size="14" font-weight="400" fill="#FAFAFA">
                                    <tspan x="22.8613281" y="15">A Button</tspan>
                                </text>
                                <path d="M1.4,13.2 C0.62680135,13.2 0,12.5731986 0,11.8 C0,11.0268014 0.62680135,10.4 1.4,10.4 C2.17319865,10.4 2.8,11.0268014 2.8,11.8 C2.8,12.5731986 2.17319865,13.2 1.4,13.2 Z M7,13.2 C6.22680135,13.2 5.6,12.5731986 5.6,11.8 C5.6,11.0268014 6.22680135,10.4 7,10.4 C7.77319865,10.4 8.4,11.0268014 8.4,11.8 C8.4,12.5731986 7.77319865,13.2 7,13.2 Z M12.6,11.8 C11.8268014,11.8 11.2,11.1731986 11.2,10.4 C11.2,9.62680135 11.8268014,9 12.6,9 C13.3731986,9 14,9.62680135 14,10.4 C14,11.1731986 13.3731986,11.8 12.6,11.8 Z" id="Combined-Shape" fill="#FFFFFF"></path>
                            </g>
                            <rect id="Cover" fill-opacity="0.2" fill="#FFFFFF" x="0" y="0" width="140" height="40" rx="2"></rect>
                        </g>
                    </g>
                </g>
                <g id="Cursor-/-Default" transform="translate(332.000000, 60.000000)">
                    <g id="Default">
                        <use fill="black" fill-opacity="1" filter="url(#filter-2)" xlink:href="#path-1"></use>
                        <use fill="#000000" fill-rule="evenodd" xlink:href="#path-1"></use>
                        <path stroke="#FFFFFF" stroke-width="1" d="M5.9460907,8.5 C5.95642733,8.51736045 5.96687946,8.53492334 5.9774444,8.55268453 C6.34289215,9.16705514 6.70837848,9.79268326 7.04979825,10.3927984 C7.13785224,10.5478246 7.13785224,10.5478246 7.22562581,10.7034481 C7.7056538,11.556155 8.08281912,12.2653076 8.32772947,12.7877831 C8.4576257,13.064895 8.40615195,13.3453845 8.25553159,13.6273965 C8.18664122,13.7563824 8.09668678,13.8840432 7.99021818,14.0120662 C7.86208243,14.1661428 7.73604623,14.2918983 7.64604194,14.3724913 L7.50364342,14.5 L5.89507626,14.5 L3.24341739,9.78593979 L-0.5,13.1134219 L-0.5,-1.11342192 L10.3150997,8.5 L5.94609079,8.5 Z"></path>
                    </g>
                </g>
                <g id="Group-22" transform="translate(392.000000, 0.000000)">
                    <rect id="Rectangle-5" fill-opacity="0.02" fill="#000000" x="0" y="0" width="375" height="149"></rect>
                    <g id="Group-18" transform="translate(32.000000, 38.000000)">
                        <g id="Group-14">
                            <rect id="Rectangle-2" stroke="#FF5722" x="0.5" y="0.5" width="139" height="39" rx="2"></rect>
                            <text id="A-Button" font-family="Roboto-Medium, Roboto" font-size="14" font-weight="400" fill="#FF5722">
                                <tspan x="43.8613281" y="24">A Button</tspan>
                            </text>
                        </g>
                        <text id="Normal" font-family="Roboto-Regular, Roboto" font-size="14" font-weight="normal" fill="#888888">
                            <tspan x="41" y="73">Normal</tspan>
                        </text>
                    </g>
                    <g id="Group-3" transform="translate(214.000000, 38.000000)">
                        <text id="Loading" font-family="Roboto-Regular, Roboto" font-size="14" font-weight="normal" fill="#888888">
                            <tspan x="41" y="73">Loading</tspan>
                        </text>
                        <g id="Group-17">
                            <rect id="Rectangle-2" stroke="#FF5722" x="0.5" y="0.5" width="139" height="39" rx="2"></rect>
                            <text id="A-Button" font-family="Roboto-Medium, Roboto" font-size="14" font-weight="400" fill="#FF5722">
                                <tspan x="53.8613281" y="24">A Button</tspan>
                            </text>
                            <path d="M32.4,22.2 C31.6268014,22.2 31,21.5731986 31,20.8 C31,20.0268014 31.6268014,19.4 32.4,19.4 C33.1731986,19.4 33.8,20.0268014 33.8,20.8 C33.8,21.5731986 33.1731986,22.2 32.4,22.2 Z M38,22.2 C37.2268014,22.2 36.6,21.5731986 36.6,20.8 C36.6,20.0268014 37.2268014,19.4 38,19.4 C38.7731986,19.4 39.4,20.0268014 39.4,20.8 C39.4,21.5731986 38.7731986,22.2 38,22.2 Z M43.6,20.8 C42.8268014,20.8 42.2,20.1731986 42.2,19.4 C42.2,18.6268014 42.8268014,18 43.6,18 C44.3731986,18 45,18.6268014 45,19.4 C45,20.1731986 44.3731986,20.8 43.6,20.8 Z" id="Combined-Shape" fill="#FF5722"></path>
                            <rect id="Cover" fill-opacity="0.2" fill="#FFFFFF" x="0" y="0" width="140" height="40" rx="2"></rect>
                        </g>
                        <g id="Cursor-/-Default" transform="translate(110.000000, 24.000000)">
                            <g id="Default">
                                <use fill="black" fill-opacity="1" filter="url(#filter-4)" xlink:href="#path-3"></use>
                                <use fill="#000000" fill-rule="evenodd" xlink:href="#path-3"></use>
                                <path stroke="#FFFFFF" stroke-width="1" d="M5.9460907,8.5 C5.95642733,8.51736045 5.96687946,8.53492334 5.9774444,8.55268453 C6.34289215,9.16705514 6.70837848,9.79268326 7.04979825,10.3927984 C7.13785224,10.5478246 7.13785224,10.5478246 7.22562581,10.7034481 C7.7056538,11.556155 8.08281912,12.2653076 8.32772947,12.7877831 C8.4576257,13.064895 8.40615195,13.3453845 8.25553159,13.6273965 C8.18664122,13.7563824 8.09668678,13.8840432 7.99021818,14.0120662 C7.86208243,14.1661428 7.73604623,14.2918983 7.64604194,14.3724913 L7.50364342,14.5 L5.89507626,14.5 L3.24341739,9.78593979 L-0.5,13.1134219 L-0.5,-1.11342192 L10.3150997,8.5 L5.94609079,8.5 Z"></path>
                            </g>
                        </g>
                    </g>
                </g>
                <g id="Group-22" transform="translate(0.000000, 184.000000)">
                    <rect id="Rectangle-5" fill-opacity="0.02" fill="#000000" x="0" y="0" width="375" height="149"></rect>
                    <g id="Group-18" transform="translate(32.000000, 38.000000)">
                        <g id="Group-14">
                            <g id="Rectangle-2">
                                <use fill="#FFFFFF" fill-rule="evenodd" xlink:href="#path-5"></use>
                                <rect stroke="#DBDBDB" stroke-width="1" x="0.5" y="0.5" width="139" height="39" rx="2"></rect>
                            </g>
                            <text id="A-Button" font-family="Roboto-Medium, Roboto" font-size="14" font-weight="400" fill="#555555">
                                <tspan x="43.8613281" y="24">A Button</tspan>
                            </text>
                        </g>
                        <text id="Normal" font-family="Roboto-Regular, Roboto" font-size="14" font-weight="normal" fill="#888888">
                            <tspan x="41" y="73">Normal</tspan>
                        </text>
                    </g>
                    <g id="Group-3" transform="translate(214.000000, 38.000000)">
                        <text id="Loading" font-family="Roboto-Regular, Roboto" font-size="14" font-weight="normal" fill="#888888">
                            <tspan x="41" y="73">Loading</tspan>
                        </text>
                        <g id="Group-17">
                            <g id="Rectangle-2">
                                <use fill="#FFFFFF" fill-rule="evenodd" xlink:href="#path-6"></use>
                                <rect stroke="#DBDBDB" stroke-width="1" x="0.5" y="0.5" width="139" height="39" rx="2"></rect>
                            </g>
                            <text id="A-Button" font-family="Roboto-Medium, Roboto" font-size="14" font-weight="400" fill="#555555">
                                <tspan x="53.8613281" y="24">A Button</tspan>
                            </text>
                            <path d="M32.4,22.2 C31.6268014,22.2 31,21.5731986 31,20.8 C31,20.0268014 31.6268014,19.4 32.4,19.4 C33.1731986,19.4 33.8,20.0268014 33.8,20.8 C33.8,21.5731986 33.1731986,22.2 32.4,22.2 Z M38,22.2 C37.2268014,22.2 36.6,21.5731986 36.6,20.8 C36.6,20.0268014 37.2268014,19.4 38,19.4 C38.7731986,19.4 39.4,20.0268014 39.4,20.8 C39.4,21.5731986 38.7731986,22.2 38,22.2 Z M43.6,20.8 C42.8268014,20.8 42.2,20.1731986 42.2,19.4 C42.2,18.6268014 42.8268014,18 43.6,18 C44.3731986,18 45,18.6268014 45,19.4 C45,20.1731986 44.3731986,20.8 43.6,20.8 Z" id="Combined-Shape" fill="#555555"></path>
                            <rect id="Cover" fill-opacity="0.2" fill="#FFFFFF" x="0" y="0" width="140" height="40" rx="2"></rect>
                        </g>
                        <g id="Cursor-/-Default" transform="translate(110.000000, 24.000000)">
                            <g id="Default">
                                <use fill="black" fill-opacity="1" filter="url(#filter-8)" xlink:href="#path-7"></use>
                                <use fill="#000000" fill-rule="evenodd" xlink:href="#path-7"></use>
                                <path stroke="#FFFFFF" stroke-width="1" d="M5.9460907,8.5 C5.95642733,8.51736045 5.96687946,8.53492334 5.9774444,8.55268453 C6.34289215,9.16705514 6.70837848,9.79268326 7.04979825,10.3927984 C7.13785224,10.5478246 7.13785224,10.5478246 7.22562581,10.7034481 C7.7056538,11.556155 8.08281912,12.2653076 8.32772947,12.7877831 C8.4576257,13.064895 8.40615195,13.3453845 8.25553159,13.6273965 C8.18664122,13.7563824 8.09668678,13.8840432 7.99021818,14.0120662 C7.86208243,14.1661428 7.73604623,14.2918983 7.64604194,14.3724913 L7.50364342,14.5 L5.89507626,14.5 L3.24341739,9.78593979 L-0.5,13.1134219 L-0.5,-1.11342192 L10.3150997,8.5 L5.94609079,8.5 Z"></path>
                            </g>
                        </g>
                    </g>
                </g>
            </g>
        </g>
    </g>
</svg>