<?xml version="1.0" encoding="UTF-8"?>
<svg width="827px" height="597px" viewBox="0 0 827 597" version="1.1" xmlns="http://www.w3.org/2000/svg" xmlns:xlink="http://www.w3.org/1999/xlink">
    <!-- Generator: Sketch 47.1 (45422) - http://www.bohemiancoding.com/sketch -->
    <title>Group 23</title>
    <desc>Created with Sketch.</desc>
    <defs>
        <rect id="path-1" x="0" y="0" width="230" height="237" rx="3"></rect>
        <filter x="-8.7%" y="-5.1%" width="117.4%" height="116.9%" filterUnits="objectBoundingBox" id="filter-2">
            <feOffset dx="0" dy="8" in="SourceAlpha" result="shadowOffsetOuter1"></feOffset>
            <feGaussianBlur stdDeviation="4" in="shadowOffsetOuter1" result="shadowBlurOuter1"></feGaussianBlur>
            <feColorMatrix values="0 0 0 0 0   0 0 0 0 0   0 0 0 0 0  0 0 0 0.09 0" type="matrix" in="shadowBlurOuter1" result="shadowMatrixOuter1"></feColorMatrix>
            <feOffset dx="0" dy="0" in="SourceAlpha" result="shadowOffsetOuter2"></feOffset>
            <feGaussianBlur stdDeviation="2" in="shadowOffsetOuter2" result="shadowBlurOuter2"></feGaussianBlur>
            <feColorMatrix values="0 0 0 0 0   0 0 0 0 0   0 0 0 0 0  0 0 0 0.05 0" type="matrix" in="shadowBlurOuter2" result="shadowMatrixOuter2"></feColorMatrix>
            <feMerge>
                <feMergeNode in="shadowMatrixOuter1"></feMergeNode>
                <feMergeNode in="shadowMatrixOuter2"></feMergeNode>
            </feMerge>
        </filter>
        <path d="M5.99999977,14 C5.99999977,14 3.780757,12.3012618 2.9999999,11 C2.2192428,9.69873817 0.739747615,8.04100945 1,7 C1.26025237,5.95899054 2.2192428,5.63091493 2.99999997,6.41167212 C3.78075719,7.19242921 4.30669849,8.88406944 4.82720333,8.62381703 C5.34770818,8.3635647 4.95732934,5.89116721 4.43682478,4.45977918 C3.91632017,3.0283912 3.37364957,1.74807891e-07 4.43682477,3.01156433e-10 C5.49999997,-9.25366672e-08 5.49999977,1 5.99999977,2.5 C6.49999979,3.99999999 6.1096211,5.99999931 6.49999977,6 C6.89037843,6.00000059 7.03934826,5.65063082 7.03934837,5 C7.0393484,4.82318548 7.07401562,4.67374541 7.14440215,4.54985954 C7.33301949,4.21787805 7.77813669,4.06940091 8.49999977,4.06940079 C9.49124122,4.06940079 8.99999977,6.00000009 9.49999977,6 C9.99999977,6 10.0000002,6.04100937 9.99999977,5 C9.99999939,3.95899063 10.463639,4.06940096 11.463639,4.06940079 C12.463639,4.06940079 11.9794954,5.9999999 12.4999998,6 C13.0205041,6.00000009 12.4999998,5.00000008 12.9999998,5 C13.4999998,5 13.9999992,5.15772862 13.9999998,7.5 C14.0000004,9.84227138 14.2807572,9.95899044 13.4999998,11 C12.7192423,12.0410096 11.9999998,13 11.9999998,13 C11.9999998,13 11.9999998,14 11.463639,14 C10.9272783,14.0000001 10.6506311,12.9999999 9.99999977,13 C9.34936847,13.0000001 8.99999977,14 8.99999977,14 L5.99999977,14 Z M9,11 C9,11.2708838 9.23193359,12 9.5,12 C9.77614237,12 10,11.2754211 10,11 L10,9 C10,8.7291162 9.76806641,8 9.5,8 C9.22385763,8 9,8.72457886 9,9 L9,11 Z M10.969691,11 C10.969691,11.2708838 11.2016246,12 11.469691,12 C11.7458334,12 11.969691,11.2754211 11.969691,11 L11.969691,9 C11.969691,8.7291162 11.7377574,8 11.469691,8 C11.1935487,8 10.969691,8.72457886 10.969691,9 L10.969691,11 Z M7,11 C7,11.2708838 7.23193359,12 7.5,12 C7.77614237,12 8,11.2754211 8,11 L8,9 C8,8.7291162 7.76806641,8 7.5,8 C7.22385763,8 7,8.72457886 7,9 L7,11 Z" id="path-3"></path>
        <filter x="-34.4%" y="-25.0%" width="168.8%" height="164.3%" filterUnits="objectBoundingBox" id="filter-4">
            <feMorphology radius="1" operator="dilate" in="SourceAlpha" result="shadowSpreadOuter1"></feMorphology>
            <feOffset dx="0" dy="1" in="shadowSpreadOuter1" result="shadowOffsetOuter1"></feOffset>
            <feGaussianBlur stdDeviation="1" in="shadowOffsetOuter1" result="shadowBlurOuter1"></feGaussianBlur>
            <feComposite in="shadowBlurOuter1" in2="SourceAlpha" operator="out" result="shadowBlurOuter1"></feComposite>
            <feColorMatrix values="0 0 0 0 0   0 0 0 0 0   0 0 0 0 0  0 0 0 1 0" type="matrix" in="shadowBlurOuter1"></feColorMatrix>
        </filter>
        <rect id="path-5" x="0" y="0" width="230" height="237" rx="3"></rect>
        <filter x="-8.7%" y="-5.1%" width="117.4%" height="116.9%" filterUnits="objectBoundingBox" id="filter-6">
            <feOffset dx="0" dy="8" in="SourceAlpha" result="shadowOffsetOuter1"></feOffset>
            <feGaussianBlur stdDeviation="4" in="shadowOffsetOuter1" result="shadowBlurOuter1"></feGaussianBlur>
            <feColorMatrix values="0 0 0 0 0   0 0 0 0 0   0 0 0 0 0  0 0 0 0.09 0" type="matrix" in="shadowBlurOuter1" result="shadowMatrixOuter1"></feColorMatrix>
            <feOffset dx="0" dy="0" in="SourceAlpha" result="shadowOffsetOuter2"></feOffset>
            <feGaussianBlur stdDeviation="2" in="shadowOffsetOuter2" result="shadowBlurOuter2"></feGaussianBlur>
            <feColorMatrix values="0 0 0 0 0   0 0 0 0 0   0 0 0 0 0  0 0 0 0.05 0" type="matrix" in="shadowBlurOuter2" result="shadowMatrixOuter2"></feColorMatrix>
            <feMerge>
                <feMergeNode in="shadowMatrixOuter1"></feMergeNode>
                <feMergeNode in="shadowMatrixOuter2"></feMergeNode>
            </feMerge>
        </filter>
        <path d="M5.99999977,14 C5.99999977,14 3.780757,12.3012618 2.9999999,11 C2.2192428,9.69873817 0.739747615,8.04100945 1,7 C1.26025237,5.95899054 2.2192428,5.63091493 2.99999997,6.41167212 C3.78075719,7.19242921 4.30669849,8.88406944 4.82720333,8.62381703 C5.34770818,8.3635647 4.95732934,5.89116721 4.43682478,4.45977918 C3.91632017,3.0283912 3.37364957,1.74807891e-07 4.43682477,3.01156433e-10 C5.49999997,-9.25366672e-08 5.49999977,1 5.99999977,2.5 C6.49999979,3.99999999 6.1096211,5.99999931 6.49999977,6 C6.89037843,6.00000059 7.03934826,5.65063082 7.03934837,5 C7.0393484,4.82318548 7.07401562,4.67374541 7.14440215,4.54985954 C7.33301949,4.21787805 7.77813669,4.06940091 8.49999977,4.06940079 C9.49124122,4.06940079 8.99999977,6.00000009 9.49999977,6 C9.99999977,6 10.0000002,6.04100937 9.99999977,5 C9.99999939,3.95899063 10.463639,4.06940096 11.463639,4.06940079 C12.463639,4.06940079 11.9794954,5.9999999 12.4999998,6 C13.0205041,6.00000009 12.4999998,5.00000008 12.9999998,5 C13.4999998,5 13.9999992,5.15772862 13.9999998,7.5 C14.0000004,9.84227138 14.2807572,9.95899044 13.4999998,11 C12.7192423,12.0410096 11.9999998,13 11.9999998,13 C11.9999998,13 11.9999998,14 11.463639,14 C10.9272783,14.0000001 10.6506311,12.9999999 9.99999977,13 C9.34936847,13.0000001 8.99999977,14 8.99999977,14 L5.99999977,14 Z M9,11 C9,11.2708838 9.23193359,12 9.5,12 C9.77614237,12 10,11.2754211 10,11 L10,9 C10,8.7291162 9.76806641,8 9.5,8 C9.22385763,8 9,8.72457886 9,9 L9,11 Z M10.969691,11 C10.969691,11.2708838 11.2016246,12 11.469691,12 C11.7458334,12 11.969691,11.2754211 11.969691,11 L11.969691,9 C11.969691,8.7291162 11.7377574,8 11.469691,8 C11.1935487,8 10.969691,8.72457886 10.969691,9 L10.969691,11 Z M7,11 C7,11.2708838 7.23193359,12 7.5,12 C7.77614237,12 8,11.2754211 8,11 L8,9 C8,8.7291162 7.76806641,8 7.5,8 C7.22385763,8 7,8.72457886 7,9 L7,11 Z" id="path-7"></path>
        <filter x="-34.4%" y="-25.0%" width="168.8%" height="164.3%" filterUnits="objectBoundingBox" id="filter-8">
            <feMorphology radius="1" operator="dilate" in="SourceAlpha" result="shadowSpreadOuter1"></feMorphology>
            <feOffset dx="0" dy="1" in="shadowSpreadOuter1" result="shadowOffsetOuter1"></feOffset>
            <feGaussianBlur stdDeviation="1" in="shadowOffsetOuter1" result="shadowBlurOuter1"></feGaussianBlur>
            <feComposite in="shadowBlurOuter1" in2="SourceAlpha" operator="out" result="shadowBlurOuter1"></feComposite>
            <feColorMatrix values="0 0 0 0 0   0 0 0 0 0   0 0 0 0 0  0 0 0 1 0" type="matrix" in="shadowBlurOuter1"></feColorMatrix>
        </filter>
        <rect id="path-9" x="0" y="0" width="230" height="237" rx="3"></rect>
        <filter x="-8.7%" y="-5.1%" width="117.4%" height="116.9%" filterUnits="objectBoundingBox" id="filter-10">
            <feOffset dx="0" dy="8" in="SourceAlpha" result="shadowOffsetOuter1"></feOffset>
            <feGaussianBlur stdDeviation="4" in="shadowOffsetOuter1" result="shadowBlurOuter1"></feGaussianBlur>
            <feColorMatrix values="0 0 0 0 0   0 0 0 0 0   0 0 0 0 0  0 0 0 0.09 0" type="matrix" in="shadowBlurOuter1" result="shadowMatrixOuter1"></feColorMatrix>
            <feOffset dx="0" dy="0" in="SourceAlpha" result="shadowOffsetOuter2"></feOffset>
            <feGaussianBlur stdDeviation="2" in="shadowOffsetOuter2" result="shadowBlurOuter2"></feGaussianBlur>
            <feColorMatrix values="0 0 0 0 0   0 0 0 0 0   0 0 0 0 0  0 0 0 0.05 0" type="matrix" in="shadowBlurOuter2" result="shadowMatrixOuter2"></feColorMatrix>
            <feMerge>
                <feMergeNode in="shadowMatrixOuter1"></feMergeNode>
                <feMergeNode in="shadowMatrixOuter2"></feMergeNode>
            </feMerge>
        </filter>
        <path d="M5.99999977,14 C5.99999977,14 3.780757,12.3012618 2.9999999,11 C2.2192428,9.69873817 0.739747615,8.04100945 1,7 C1.26025237,5.95899054 2.2192428,5.63091493 2.99999997,6.41167212 C3.78075719,7.19242921 4.30669849,8.88406944 4.82720333,8.62381703 C5.34770818,8.3635647 4.95732934,5.89116721 4.43682478,4.45977918 C3.91632017,3.0283912 3.37364957,1.74807891e-07 4.43682477,3.01156433e-10 C5.49999997,-9.25366672e-08 5.49999977,1 5.99999977,2.5 C6.49999979,3.99999999 6.1096211,5.99999931 6.49999977,6 C6.89037843,6.00000059 7.03934826,5.65063082 7.03934837,5 C7.0393484,4.82318548 7.07401562,4.67374541 7.14440215,4.54985954 C7.33301949,4.21787805 7.77813669,4.06940091 8.49999977,4.06940079 C9.49124122,4.06940079 8.99999977,6.00000009 9.49999977,6 C9.99999977,6 10.0000002,6.04100937 9.99999977,5 C9.99999939,3.95899063 10.463639,4.06940096 11.463639,4.06940079 C12.463639,4.06940079 11.9794954,5.9999999 12.4999998,6 C13.0205041,6.00000009 12.4999998,5.00000008 12.9999998,5 C13.4999998,5 13.9999992,5.15772862 13.9999998,7.5 C14.0000004,9.84227138 14.2807572,9.95899044 13.4999998,11 C12.7192423,12.0410096 11.9999998,13 11.9999998,13 C11.9999998,13 11.9999998,14 11.463639,14 C10.9272783,14.0000001 10.6506311,12.9999999 9.99999977,13 C9.34936847,13.0000001 8.99999977,14 8.99999977,14 L5.99999977,14 Z M9,11 C9,11.2708838 9.23193359,12 9.5,12 C9.77614237,12 10,11.2754211 10,11 L10,9 C10,8.7291162 9.76806641,8 9.5,8 C9.22385763,8 9,8.72457886 9,9 L9,11 Z M10.969691,11 C10.969691,11.2708838 11.2016246,12 11.469691,12 C11.7458334,12 11.969691,11.2754211 11.969691,11 L11.969691,9 C11.969691,8.7291162 11.7377574,8 11.469691,8 C11.1935487,8 10.969691,8.72457886 10.969691,9 L10.969691,11 Z M7,11 C7,11.2708838 7.23193359,12 7.5,12 C7.77614237,12 8,11.2754211 8,11 L8,9 C8,8.7291162 7.76806641,8 7.5,8 C7.22385763,8 7,8.72457886 7,9 L7,11 Z" id="path-11"></path>
        <filter x="-34.4%" y="-25.0%" width="168.8%" height="164.3%" filterUnits="objectBoundingBox" id="filter-12">
            <feMorphology radius="1" operator="dilate" in="SourceAlpha" result="shadowSpreadOuter1"></feMorphology>
            <feOffset dx="0" dy="1" in="shadowSpreadOuter1" result="shadowOffsetOuter1"></feOffset>
            <feGaussianBlur stdDeviation="1" in="shadowOffsetOuter1" result="shadowBlurOuter1"></feGaussianBlur>
            <feComposite in="shadowBlurOuter1" in2="SourceAlpha" operator="out" result="shadowBlurOuter1"></feComposite>
            <feColorMatrix values="0 0 0 0 0   0 0 0 0 0   0 0 0 0 0  0 0 0 1 0" type="matrix" in="shadowBlurOuter1"></feColorMatrix>
        </filter>
        <rect id="path-13" x="0" y="0" width="230" height="237" rx="3"></rect>
        <filter x="-8.7%" y="-5.1%" width="117.4%" height="116.9%" filterUnits="objectBoundingBox" id="filter-14">
            <feOffset dx="0" dy="8" in="SourceAlpha" result="shadowOffsetOuter1"></feOffset>
            <feGaussianBlur stdDeviation="4" in="shadowOffsetOuter1" result="shadowBlurOuter1"></feGaussianBlur>
            <feColorMatrix values="0 0 0 0 0   0 0 0 0 0   0 0 0 0 0  0 0 0 0.09 0" type="matrix" in="shadowBlurOuter1" result="shadowMatrixOuter1"></feColorMatrix>
            <feOffset dx="0" dy="0" in="SourceAlpha" result="shadowOffsetOuter2"></feOffset>
            <feGaussianBlur stdDeviation="2" in="shadowOffsetOuter2" result="shadowBlurOuter2"></feGaussianBlur>
            <feColorMatrix values="0 0 0 0 0   0 0 0 0 0   0 0 0 0 0  0 0 0 0.05 0" type="matrix" in="shadowBlurOuter2" result="shadowMatrixOuter2"></feColorMatrix>
            <feMerge>
                <feMergeNode in="shadowMatrixOuter1"></feMergeNode>
                <feMergeNode in="shadowMatrixOuter2"></feMergeNode>
            </feMerge>
        </filter>
    </defs>
    <g id="Design" stroke="none" stroke-width="1" fill="none" fill-rule="evenodd">
        <g id="V0.9.0" transform="translate(-800.000000, -3197.000000)">
            <g id="Group-39" transform="translate(106.000000, 3150.000000)">
                <g id="Group-23" transform="translate(694.000000, 47.000000)">
                    <rect id="Rectangle" fill="#FAFAFA" x="0" y="0" width="827" height="597"></rect>
                    <g id="Group-17" transform="translate(94.000000, 42.000000)">
                        <g id="Group-13">
                            <g id="Group-10">
                                <g id="Rectangle-2">
                                    <use fill="black" fill-opacity="1" filter="url(#filter-2)" xlink:href="#path-1"></use>
                                    <use fill="#FFFFFF" fill-rule="evenodd" xlink:href="#path-1"></use>
                                </g>
                                <g id="calendar/single" transform="translate(16.000000, 16.000000)">
                                    <g id="Group-6">
                                        <path d="M5.88319895,11.3567966 C5.86431228,11.3783108 5.83684075,11.3723068 5.81580786,11.3883173 L0.698806938,16.8604084 C0.538699452,17.0465305 0.279866169,17.0465305 0.120187925,16.8604084 C-0.0394903184,16.6742863 -0.0394903184,16.3720879 0.120187925,16.1859658 L4.97105845,10.9995622 L0.119758683,5.81315864 C-0.039919561,5.62703649 -0.039919561,5.32483818 0.119758683,5.13921636 C0.279436927,4.95359455 0.538270209,4.95359455 0.697948453,5.13921636 L5.81409089,10.6088058 C5.83555302,10.6258169 5.86431228,10.619813 5.88319895,10.6423278 C5.96818898,10.7408925 6.0046746,10.8719785 5.99952369,11.0015635 C6.00381612,11.1291473 5.96647201,11.2587323 5.88319895,11.3567966 Z" id="Imported-Layers-Copy" fill="#8C8C8C" transform="translate(3.000000, 11.000000) scale(-1, 1) translate(-3.000000, -11.000000) "></path>
                                        <path d="M193.883199,11.3567966 C193.864312,11.3783108 193.836841,11.3723068 193.815808,11.3883173 L188.698807,16.8604084 C188.538699,17.0465305 188.279866,17.0465305 188.120188,16.8604084 C187.96051,16.6742863 187.96051,16.3720879 188.120188,16.1859658 L192.971058,10.9995622 L188.119759,5.81315864 C187.96008,5.62703649 187.96008,5.32483818 188.119759,5.13921636 C188.279437,4.95359455 188.53827,4.95359455 188.697948,5.13921636 L193.814091,10.6088058 C193.835553,10.6258169 193.864312,10.619813 193.883199,10.6423278 C193.968189,10.7408925 194.004675,10.8719785 193.999524,11.0015635 C194.003816,11.1291473 193.966472,11.2587323 193.883199,11.3567966 Z" id="Imported-Layers-Copy" fill="#8C8C8C"></path>
                                        <g id="Group-5" transform="translate(30.000000, 67.000000)" font-weight="normal" font-family="Roboto-Regular, Roboto" font-size="12">
                                            <text id="1" fill-opacity="0.8" fill="#000000">
                                                <tspan x="5.63085938" y="12">1</tspan>
                                            </text>
                                            <text id="2" fill-opacity="0.8" fill="#000000">
                                                <tspan x="35.6308594" y="12">2</tspan>
                                            </text>
                                            <text id="3" line-spacing="18" fill="#333333">
                                                <tspan x="65.6308594" y="11">3</tspan>
                                            </text>
                                            <text id="4" line-spacing="18" fill-opacity="0.8" fill="#000000">
                                                <tspan x="95.6308594" y="11">4</tspan>
                                            </text>
                                            <text id="5" fill-opacity="0.8" fill="#000000">
                                                <tspan x="125.630859" y="12">5</tspan>
                                            </text>
                                            <text id="6" fill-opacity="0.8" fill="#000000">
                                                <tspan x="155.630859" y="12">6</tspan>
                                            </text>
                                        </g>
                                        <g id="Group-2" transform="translate(0.000000, 37.000000)" font-size="12" font-family="Roboto-Regular, Roboto" fill="#888888" font-weight="normal">
                                            <text id="S" line-spacing="18">
                                                <tspan x="5.44042969" y="11">S</tspan>
                                            </text>
                                            <text id="M" line-spacing="12">
                                                <tspan x="30" y="14">M</tspan>
                                            </text>
                                            <text id="T" line-spacing="12">
                                                <tspan x="60" y="14">T</tspan>
                                            </text>
                                            <text id="W" line-spacing="18">
                                                <tspan x="93.6767578" y="11">W</tspan>
                                            </text>
                                            <text id="T" line-spacing="18">
                                                <tspan x="125.419922" y="11">T</tspan>
                                            </text>
                                            <text id="F" line-spacing="12">
                                                <tspan x="150" y="14">F</tspan>
                                            </text>
                                            <text id="S" line-spacing="12">
                                                <tspan x="180" y="14">S</tspan>
                                            </text>
                                        </g>
                                        <g id="Group-4" transform="translate(0.000000, 97.000000)" font-weight="normal" font-family="Roboto-Regular, Roboto" line-spacing="18" fill="#000000" font-size="12" fill-opacity="0.8">
                                            <text id="11">
                                                <tspan x="122.261719" y="11">11</tspan>
                                            </text>
                                            <text id="8">
                                                <tspan x="35.6308594" y="11">8</tspan>
                                            </text>
                                            <text id="9">
                                                <tspan x="65.6308594" y="11">9</tspan>
                                            </text>
                                            <text id="10">
                                                <tspan x="92.2617188" y="11">10</tspan>
                                            </text>
                                            <text id="7">
                                                <tspan x="5.63085938" y="11">7</tspan>
                                            </text>
                                            <text id="12">
                                                <tspan x="152.261719" y="11">12</tspan>
                                            </text>
                                            <text id="13">
                                                <tspan x="182.261719" y="11">13</tspan>
                                            </text>
                                        </g>
                                        <g id="Group-3" transform="translate(0.000000, 127.000000)" font-weight="normal" font-family="Roboto-Regular, Roboto" line-spacing="18" font-size="12">
                                            <text id="14" fill="#333333">
                                                <tspan x="2.26171875" y="11">14</tspan>
                                            </text>
                                            <text id="15" fill-opacity="0.8" fill="#000000">
                                                <tspan x="32.2617188" y="11">15</tspan>
                                            </text>
                                            <text id="16" fill-opacity="0.8" fill="#000000">
                                                <tspan x="62.2617188" y="11">16</tspan>
                                            </text>
                                            <text id="17" fill-opacity="0.8" fill="#000000">
                                                <tspan x="92.2617188" y="11">17</tspan>
                                            </text>
                                            <text id="18" fill-opacity="0.8" fill="#000000">
                                                <tspan x="122.261719" y="11">18</tspan>
                                            </text>
                                            <text id="19" fill-opacity="0.8" fill="#000000">
                                                <tspan x="152.261719" y="11">19</tspan>
                                            </text>
                                            <text id="20" fill-opacity="0.8" fill="#000000">
                                                <tspan x="182.261719" y="11">20</tspan>
                                            </text>
                                        </g>
                                        <g id="Group" transform="translate(0.000000, 157.000000)" font-weight="normal" font-family="Roboto-Regular, Roboto" line-spacing="18" fill="#000000" font-size="12" fill-opacity="0.8">
                                            <text id="21">
                                                <tspan x="2.26171875" y="11">21</tspan>
                                            </text>
                                            <text id="22">
                                                <tspan x="32.2617188" y="11">22</tspan>
                                            </text>
                                            <text id="23">
                                                <tspan x="62.2617188" y="11">23</tspan>
                                            </text>
                                            <text id="24">
                                                <tspan x="92.2617188" y="11">24</tspan>
                                            </text>
                                            <text id="25">
                                                <tspan x="122.261719" y="11">25</tspan>
                                            </text>
                                            <text id="26">
                                                <tspan x="152.261719" y="11">26</tspan>
                                            </text>
                                            <text id="27">
                                                <tspan x="182.261719" y="11">27</tspan>
                                            </text>
                                        </g>
                                        <g id="Group-11" transform="translate(0.000000, 187.000000)" font-weight="normal" font-family="Roboto-Regular, Roboto" line-spacing="18" fill="#000000" font-size="12" fill-opacity="0.8">
                                            <text id="28">
                                                <tspan x="2.26171875" y="11">28</tspan>
                                            </text>
                                            <text id="29">
                                                <tspan x="32.2617188" y="11">29</tspan>
                                            </text>
                                            <text id="30">
                                                <tspan x="62.2617188" y="11">30</tspan>
                                            </text>
                                            <text id="31">
                                                <tspan x="92.2617188" y="11">31</tspan>
                                            </text>
                                        </g>
                                        <text id="July-2017" font-family="Roboto-Medium, Roboto" font-size="14" font-weight="400" line-spacing="21">
                                            <tspan x="67.5629883" y="13" fill="#4A4A4A">July </tspan>
                                            <tspan x="96.9916992" y="13" font-family="Roboto-Regular, Roboto" font-weight="normal" fill="#9B9B9B">2017</tspan>
                                        </text>
                                    </g>
                                </g>
                                <rect id="Rectangle-9" fill="#FFFFFF" x="79" y="17" width="32" height="20"></rect>
                                <text id="July" font-family="Roboto-Medium, Roboto" font-size="14" font-weight="400" fill="#FF5722">
                                    <tspan x="83.5288086" y="30">July</tspan>
                                </text>
                                <g id="HD-/-Pointer" transform="translate(108.000000, 31.000000)">
                                    <g id="Pointer">
                                        <use fill="black" fill-opacity="1" filter="url(#filter-4)" xlink:href="#path-3"></use>
                                        <use fill="#FFFFFF" fill-rule="evenodd" xlink:href="#path-3"></use>
                                        <path stroke="#000000" stroke-width="1" d="M4.57605264,7.86886829 C4.57241731,7.66457317 4.5650967,7.37326956 4.52581728,7.03939464 C4.43304259,6.25081004 4.21475604,5.31217786 3.96692806,4.63065068 C3.66718322,3.80635221 3.41092929,2.64931273 3.34425269,1.72925958 C3.24727325,0.391065577 3.51057107,-0.499999848 4.43682473,-0.5 C5.36321899,-0.500000081 5.76979273,-0.0142192182 6.1012711,1.08624342 C6.07149731,0.987398516 6.36793341,2.02266209 6.47434141,2.34188611 C6.57905679,2.65603222 6.65272028,2.99864222 6.70224378,3.37472107 C6.7390196,3.65399474 6.7594096,3.89031331 6.77303639,4.2025009 C7.08842116,3.75182727 7.66614661,3.56940093 8.49999977,3.56940079 C9.08903749,3.56940079 9.39871002,3.87344846 9.56379458,4.40706062 C9.6413897,4.10593831 9.79424359,3.88692891 10.0464402,3.74131922 C10.3299025,3.57765775 10.5352739,3.56045628 11.2187362,3.56773854 C11.3386214,3.56899267 11.3923139,3.5694008 11.463639,3.56940079 C12.1273974,3.56940079 12.4389193,3.95190243 12.5929548,4.61662629 C12.7060508,4.54192954 12.844071,4.50000003 12.9999998,4.5 C14.0584447,4.5 14.4999992,5.28235494 14.4999998,7.49999987 C14.4999999,7.9125726 14.5080173,8.26047668 14.5242075,8.68754329 C14.5682665,9.84974276 14.5645332,9.99797054 14.4181946,10.4100702 C14.3205201,10.6851285 14.1648512,10.9468649 13.8999997,11.3000001 C12.8666405,12.6778121 12.7696644,12.8071137 12.4929846,13.1760202 C12.482533,13.3113719 12.45928,13.4677182 12.4158897,13.6295137 C12.2802785,14.135185 11.9867699,14.5 11.4636391,14.5 C11.0829613,14.5000001 10.8351288,14.3231063 10.5176899,13.9659274 C10.4868562,13.9312336 10.4553429,13.8949899 10.3974761,13.8282135 C10.1764962,13.5742554 10.0768463,13.5 9.99999984,13.5 C9.91823665,13.5 9.79792217,13.5907818 9.67049804,13.7796466 C9.57207922,13.9255204 9.50274735,14.0769638 9.47202178,14.1649097 L9.35495172,14.5 L5.83060076,14.5 L5.6960862,14.3970347 C5.58906305,14.3151129 5.4053218,14.1694172 5.17017151,13.9743411 C4.77869498,13.6495797 4.38709033,13.3046237 4.02025764,12.9532621 C3.71263719,12.6586155 3.43572793,12.3718986 3.19673993,12.0965327 C2.93929299,11.799898 2.72894075,11.5200601 2.57125343,11.2572479 C2.39853209,10.969379 2.31312586,10.8424581 1.80218034,10.099907 C1.70749107,9.96229626 1.63555195,9.85699149 1.56608579,9.7539705 C0.678335947,8.43740331 0.323409215,7.64481027 0.514928753,6.87873219 C0.87165661,5.45182076 2.30373784,5.00830319 3.35355334,6.0581187 C3.60674637,6.31131169 3.82804519,6.62418288 4.10439053,7.08368642 C4.16760755,7.18880288 4.37918524,7.54952018 4.42006044,7.61778007 C4.47918337,7.71651294 4.53021317,7.79883171 4.57605264,7.86886829 Z M9.5,11 C9.5,11.0668258 9.54601018,11.2556897 9.60992198,11.4066746 C9.64137091,11.4809694 9.67329287,11.537784 9.69562967,11.5650611 C9.6730237,11.5374553 9.61446527,11.5 9.5,11.5 C9.39035557,11.5 9.33191764,11.5365374 9.30953113,11.5635695 C9.33095671,11.5376978 9.36196782,11.4825576 9.39251792,11.4097725 C9.45523277,11.2603554 9.5,11.0716349 9.5,11 L9.5,9 C9.5,8.93317417 9.45398982,8.74431031 9.39007802,8.59332539 C9.35862909,8.5190306 9.32670713,8.46221599 9.30437033,8.43493891 C9.3269763,8.46254468 9.38553473,8.5 9.5,8.5 C9.60964443,8.5 9.66808236,8.46346258 9.69046887,8.43643047 C9.66904329,8.46230224 9.63803218,8.5174424 9.60748208,8.59022753 C9.54476723,8.73964463 9.5,8.92836514 9.5,9 L9.5,11 Z M11.469691,11 C11.469691,11.0668258 11.5157012,11.2556897 11.579613,11.4066746 C11.611062,11.4809694 11.6429839,11.537784 11.6653207,11.5650611 C11.6427147,11.5374553 11.5841563,11.5 11.469691,11.5 C11.3600466,11.5 11.3016087,11.5365374 11.2792222,11.5635695 C11.3006478,11.5376978 11.3316589,11.4825576 11.362209,11.4097725 C11.4249238,11.2603554 11.469691,11.0716349 11.469691,11 L11.469691,9 C11.469691,8.93317417 11.4236809,8.74431031 11.3597691,8.59332539 C11.3283201,8.5190306 11.2963982,8.46221599 11.2740614,8.43493891 C11.2966673,8.46254468 11.3552258,8.5 11.469691,8.5 C11.5793355,8.5 11.6377734,8.46346258 11.6601599,8.43643047 C11.6387343,8.46230224 11.6077232,8.5174424 11.5771731,8.59022753 C11.5144583,8.73964463 11.469691,8.92836514 11.469691,9 L11.469691,11 Z M7.5,11 L7.5,9 C7.5,8.92836514 7.54476723,8.73964463 7.60748208,8.59022753 C7.63803218,8.5174424 7.66904329,8.46230224 7.69046887,8.43643047 C7.66808236,8.46346258 7.60964443,8.5 7.5,8.5 C7.38553473,8.5 7.3269763,8.46254468 7.30437033,8.43493891 C7.32670713,8.46221599 7.35862909,8.5190306 7.39007802,8.59332539 C7.45398982,8.74431031 7.5,8.93317417 7.5,9 L7.5,11 C7.5,11.0716349 7.45523277,11.2603554 7.39251792,11.4097725 C7.36196782,11.4825576 7.33095671,11.5376978 7.30953113,11.5635695 C7.33191764,11.5365374 7.39035557,11.5 7.5,11.5 C7.61446527,11.5 7.6730237,11.5374553 7.69562967,11.5650611 C7.67329287,11.537784 7.64137091,11.4809694 7.60992198,11.4066746 C7.54601018,11.2556897 7.5,11.0668258 7.5,11 Z"></path>
                                    </g>
                                </g>
                            </g>
                        </g>
                    </g>
                    <g id="Group-17" transform="translate(94.000000, 319.000000)">
                        <g id="Group-13">
                            <g id="Group-10">
                                <g id="Rectangle-2">
                                    <use fill="black" fill-opacity="1" filter="url(#filter-6)" xlink:href="#path-5"></use>
                                    <use fill="#FFFFFF" fill-rule="evenodd" xlink:href="#path-5"></use>
                                </g>
                                <g id="calendar/single" transform="translate(16.000000, 16.000000)">
                                    <g id="Group-6">
                                        <path d="M5.88319895,11.3567966 C5.86431228,11.3783108 5.83684075,11.3723068 5.81580786,11.3883173 L0.698806938,16.8604084 C0.538699452,17.0465305 0.279866169,17.0465305 0.120187925,16.8604084 C-0.0394903184,16.6742863 -0.0394903184,16.3720879 0.120187925,16.1859658 L4.97105845,10.9995622 L0.119758683,5.81315864 C-0.039919561,5.62703649 -0.039919561,5.32483818 0.119758683,5.13921636 C0.279436927,4.95359455 0.538270209,4.95359455 0.697948453,5.13921636 L5.81409089,10.6088058 C5.83555302,10.6258169 5.86431228,10.619813 5.88319895,10.6423278 C5.96818898,10.7408925 6.0046746,10.8719785 5.99952369,11.0015635 C6.00381612,11.1291473 5.96647201,11.2587323 5.88319895,11.3567966 Z" id="Imported-Layers-Copy" fill="#8C8C8C" transform="translate(3.000000, 11.000000) scale(-1, 1) translate(-3.000000, -11.000000) "></path>
                                        <path d="M193.883199,11.3567966 C193.864312,11.3783108 193.836841,11.3723068 193.815808,11.3883173 L188.698807,16.8604084 C188.538699,17.0465305 188.279866,17.0465305 188.120188,16.8604084 C187.96051,16.6742863 187.96051,16.3720879 188.120188,16.1859658 L192.971058,10.9995622 L188.119759,5.81315864 C187.96008,5.62703649 187.96008,5.32483818 188.119759,5.13921636 C188.279437,4.95359455 188.53827,4.95359455 188.697948,5.13921636 L193.814091,10.6088058 C193.835553,10.6258169 193.864312,10.619813 193.883199,10.6423278 C193.968189,10.7408925 194.004675,10.8719785 193.999524,11.0015635 C194.003816,11.1291473 193.966472,11.2587323 193.883199,11.3567966 Z" id="Imported-Layers-Copy" fill="#8C8C8C"></path>
                                        <g id="Group-5" transform="translate(30.000000, 67.000000)" font-weight="normal" font-family="Roboto-Regular, Roboto" font-size="12">
                                            <text id="1" fill-opacity="0.8" fill="#000000">
                                                <tspan x="5.63085938" y="12">1</tspan>
                                            </text>
                                            <text id="2" fill-opacity="0.8" fill="#000000">
                                                <tspan x="35.6308594" y="12">2</tspan>
                                            </text>
                                            <text id="3" line-spacing="18" fill="#333333">
                                                <tspan x="65.6308594" y="11">3</tspan>
                                            </text>
                                            <text id="4" line-spacing="18" fill-opacity="0.8" fill="#000000">
                                                <tspan x="95.6308594" y="11">4</tspan>
                                            </text>
                                            <text id="5" fill-opacity="0.8" fill="#000000">
                                                <tspan x="125.630859" y="12">5</tspan>
                                            </text>
                                            <text id="6" fill-opacity="0.8" fill="#000000">
                                                <tspan x="155.630859" y="12">6</tspan>
                                            </text>
                                        </g>
                                        <g id="Group-2" transform="translate(0.000000, 37.000000)" font-size="12" font-family="Roboto-Regular, Roboto" fill="#888888" font-weight="normal">
                                            <text id="S" line-spacing="18">
                                                <tspan x="5.44042969" y="11">S</tspan>
                                            </text>
                                            <text id="M" line-spacing="12">
                                                <tspan x="30" y="14">M</tspan>
                                            </text>
                                            <text id="T" line-spacing="12">
                                                <tspan x="60" y="14">T</tspan>
                                            </text>
                                            <text id="W" line-spacing="18">
                                                <tspan x="93.6767578" y="11">W</tspan>
                                            </text>
                                            <text id="T" line-spacing="18">
                                                <tspan x="125.419922" y="11">T</tspan>
                                            </text>
                                            <text id="F" line-spacing="12">
                                                <tspan x="150" y="14">F</tspan>
                                            </text>
                                            <text id="S" line-spacing="12">
                                                <tspan x="180" y="14">S</tspan>
                                            </text>
                                        </g>
                                        <g id="Group-4" transform="translate(0.000000, 97.000000)" font-weight="normal" font-family="Roboto-Regular, Roboto" line-spacing="18" fill="#000000" font-size="12" fill-opacity="0.8">
                                            <text id="11">
                                                <tspan x="122.261719" y="11">11</tspan>
                                            </text>
                                            <text id="8">
                                                <tspan x="35.6308594" y="11">8</tspan>
                                            </text>
                                            <text id="9">
                                                <tspan x="65.6308594" y="11">9</tspan>
                                            </text>
                                            <text id="10">
                                                <tspan x="92.2617188" y="11">10</tspan>
                                            </text>
                                            <text id="7">
                                                <tspan x="5.63085938" y="11">7</tspan>
                                            </text>
                                            <text id="12">
                                                <tspan x="152.261719" y="11">12</tspan>
                                            </text>
                                            <text id="13">
                                                <tspan x="182.261719" y="11">13</tspan>
                                            </text>
                                        </g>
                                        <g id="Group-3" transform="translate(0.000000, 127.000000)" font-weight="normal" font-family="Roboto-Regular, Roboto" line-spacing="18" font-size="12">
                                            <text id="14" fill="#333333">
                                                <tspan x="2.26171875" y="11">14</tspan>
                                            </text>
                                            <text id="15" fill-opacity="0.8" fill="#000000">
                                                <tspan x="32.2617188" y="11">15</tspan>
                                            </text>
                                            <text id="16" fill-opacity="0.8" fill="#000000">
                                                <tspan x="62.2617188" y="11">16</tspan>
                                            </text>
                                            <text id="17" fill-opacity="0.8" fill="#000000">
                                                <tspan x="92.2617188" y="11">17</tspan>
                                            </text>
                                            <text id="18" fill-opacity="0.8" fill="#000000">
                                                <tspan x="122.261719" y="11">18</tspan>
                                            </text>
                                            <text id="19" fill-opacity="0.8" fill="#000000">
                                                <tspan x="152.261719" y="11">19</tspan>
                                            </text>
                                            <text id="20" fill-opacity="0.8" fill="#000000">
                                                <tspan x="182.261719" y="11">20</tspan>
                                            </text>
                                        </g>
                                        <g id="Group" transform="translate(0.000000, 157.000000)" font-weight="normal" font-family="Roboto-Regular, Roboto" line-spacing="18" fill="#000000" font-size="12" fill-opacity="0.8">
                                            <text id="21">
                                                <tspan x="2.26171875" y="11">21</tspan>
                                            </text>
                                            <text id="22">
                                                <tspan x="32.2617188" y="11">22</tspan>
                                            </text>
                                            <text id="23">
                                                <tspan x="62.2617188" y="11">23</tspan>
                                            </text>
                                            <text id="24">
                                                <tspan x="92.2617188" y="11">24</tspan>
                                            </text>
                                            <text id="25">
                                                <tspan x="122.261719" y="11">25</tspan>
                                            </text>
                                            <text id="26">
                                                <tspan x="152.261719" y="11">26</tspan>
                                            </text>
                                            <text id="27">
                                                <tspan x="182.261719" y="11">27</tspan>
                                            </text>
                                        </g>
                                        <g id="Group-11" transform="translate(0.000000, 187.000000)" font-weight="normal" font-family="Roboto-Regular, Roboto" line-spacing="18" fill="#000000" font-size="12" fill-opacity="0.8">
                                            <text id="28">
                                                <tspan x="2.26171875" y="11">28</tspan>
                                            </text>
                                            <text id="29">
                                                <tspan x="32.2617188" y="11">29</tspan>
                                            </text>
                                            <text id="30">
                                                <tspan x="62.2617188" y="11">30</tspan>
                                            </text>
                                            <text id="31">
                                                <tspan x="92.2617188" y="11">31</tspan>
                                            </text>
                                        </g>
                                        <text id="July-2017" font-family="Roboto-Medium, Roboto" font-size="14" font-weight="400" line-spacing="21">
                                            <tspan x="67.5629883" y="13" fill="#4A4A4A">July </tspan>
                                            <tspan x="96.9916992" y="13" font-family="Roboto-Regular, Roboto" font-weight="normal" fill="#9B9B9B">2017</tspan>
                                        </text>
                                    </g>
                                </g>
                                <rect id="Rectangle-9" fill="#FFFFFF" x="110" y="17" width="42" height="20"></rect>
                                <text id="2017" font-family="Roboto-Regular, Roboto" font-size="14" font-weight="normal" fill="#FF5722">
                                    <tspan x="112.777344" y="30">2017</tspan>
                                </text>
                                <g id="HD-/-Pointer" transform="translate(139.000000, 31.000000)">
                                    <g id="Pointer">
                                        <use fill="black" fill-opacity="1" filter="url(#filter-8)" xlink:href="#path-7"></use>
                                        <use fill="#FFFFFF" fill-rule="evenodd" xlink:href="#path-7"></use>
                                        <path stroke="#000000" stroke-width="1" d="M4.57605264,7.86886829 C4.57241731,7.66457317 4.5650967,7.37326956 4.52581728,7.03939464 C4.43304259,6.25081004 4.21475604,5.31217786 3.96692806,4.63065068 C3.66718322,3.80635221 3.41092929,2.64931273 3.34425269,1.72925958 C3.24727325,0.391065577 3.51057107,-0.499999848 4.43682473,-0.5 C5.36321899,-0.500000081 5.76979273,-0.0142192182 6.1012711,1.08624342 C6.07149731,0.987398516 6.36793341,2.02266209 6.47434141,2.34188611 C6.57905679,2.65603222 6.65272028,2.99864222 6.70224378,3.37472107 C6.7390196,3.65399474 6.7594096,3.89031331 6.77303639,4.2025009 C7.08842116,3.75182727 7.66614661,3.56940093 8.49999977,3.56940079 C9.08903749,3.56940079 9.39871002,3.87344846 9.56379458,4.40706062 C9.6413897,4.10593831 9.79424359,3.88692891 10.0464402,3.74131922 C10.3299025,3.57765775 10.5352739,3.56045628 11.2187362,3.56773854 C11.3386214,3.56899267 11.3923139,3.5694008 11.463639,3.56940079 C12.1273974,3.56940079 12.4389193,3.95190243 12.5929548,4.61662629 C12.7060508,4.54192954 12.844071,4.50000003 12.9999998,4.5 C14.0584447,4.5 14.4999992,5.28235494 14.4999998,7.49999987 C14.4999999,7.9125726 14.5080173,8.26047668 14.5242075,8.68754329 C14.5682665,9.84974276 14.5645332,9.99797054 14.4181946,10.4100702 C14.3205201,10.6851285 14.1648512,10.9468649 13.8999997,11.3000001 C12.8666405,12.6778121 12.7696644,12.8071137 12.4929846,13.1760202 C12.482533,13.3113719 12.45928,13.4677182 12.4158897,13.6295137 C12.2802785,14.135185 11.9867699,14.5 11.4636391,14.5 C11.0829613,14.5000001 10.8351288,14.3231063 10.5176899,13.9659274 C10.4868562,13.9312336 10.4553429,13.8949899 10.3974761,13.8282135 C10.1764962,13.5742554 10.0768463,13.5 9.99999984,13.5 C9.91823665,13.5 9.79792217,13.5907818 9.67049804,13.7796466 C9.57207922,13.9255204 9.50274735,14.0769638 9.47202178,14.1649097 L9.35495172,14.5 L5.83060076,14.5 L5.6960862,14.3970347 C5.58906305,14.3151129 5.4053218,14.1694172 5.17017151,13.9743411 C4.77869498,13.6495797 4.38709033,13.3046237 4.02025764,12.9532621 C3.71263719,12.6586155 3.43572793,12.3718986 3.19673993,12.0965327 C2.93929299,11.799898 2.72894075,11.5200601 2.57125343,11.2572479 C2.39853209,10.969379 2.31312586,10.8424581 1.80218034,10.099907 C1.70749107,9.96229626 1.63555195,9.85699149 1.56608579,9.7539705 C0.678335947,8.43740331 0.323409215,7.64481027 0.514928753,6.87873219 C0.87165661,5.45182076 2.30373784,5.00830319 3.35355334,6.0581187 C3.60674637,6.31131169 3.82804519,6.62418288 4.10439053,7.08368642 C4.16760755,7.18880288 4.37918524,7.54952018 4.42006044,7.61778007 C4.47918337,7.71651294 4.53021317,7.79883171 4.57605264,7.86886829 Z M9.5,11 C9.5,11.0668258 9.54601018,11.2556897 9.60992198,11.4066746 C9.64137091,11.4809694 9.67329287,11.537784 9.69562967,11.5650611 C9.6730237,11.5374553 9.61446527,11.5 9.5,11.5 C9.39035557,11.5 9.33191764,11.5365374 9.30953113,11.5635695 C9.33095671,11.5376978 9.36196782,11.4825576 9.39251792,11.4097725 C9.45523277,11.2603554 9.5,11.0716349 9.5,11 L9.5,9 C9.5,8.93317417 9.45398982,8.74431031 9.39007802,8.59332539 C9.35862909,8.5190306 9.32670713,8.46221599 9.30437033,8.43493891 C9.3269763,8.46254468 9.38553473,8.5 9.5,8.5 C9.60964443,8.5 9.66808236,8.46346258 9.69046887,8.43643047 C9.66904329,8.46230224 9.63803218,8.5174424 9.60748208,8.59022753 C9.54476723,8.73964463 9.5,8.92836514 9.5,9 L9.5,11 Z M11.469691,11 C11.469691,11.0668258 11.5157012,11.2556897 11.579613,11.4066746 C11.611062,11.4809694 11.6429839,11.537784 11.6653207,11.5650611 C11.6427147,11.5374553 11.5841563,11.5 11.469691,11.5 C11.3600466,11.5 11.3016087,11.5365374 11.2792222,11.5635695 C11.3006478,11.5376978 11.3316589,11.4825576 11.362209,11.4097725 C11.4249238,11.2603554 11.469691,11.0716349 11.469691,11 L11.469691,9 C11.469691,8.93317417 11.4236809,8.74431031 11.3597691,8.59332539 C11.3283201,8.5190306 11.2963982,8.46221599 11.2740614,8.43493891 C11.2966673,8.46254468 11.3552258,8.5 11.469691,8.5 C11.5793355,8.5 11.6377734,8.46346258 11.6601599,8.43643047 C11.6387343,8.46230224 11.6077232,8.5174424 11.5771731,8.59022753 C11.5144583,8.73964463 11.469691,8.92836514 11.469691,9 L11.469691,11 Z M7.5,11 L7.5,9 C7.5,8.92836514 7.54476723,8.73964463 7.60748208,8.59022753 C7.63803218,8.5174424 7.66904329,8.46230224 7.69046887,8.43643047 C7.66808236,8.46346258 7.60964443,8.5 7.5,8.5 C7.38553473,8.5 7.3269763,8.46254468 7.30437033,8.43493891 C7.32670713,8.46221599 7.35862909,8.5190306 7.39007802,8.59332539 C7.45398982,8.74431031 7.5,8.93317417 7.5,9 L7.5,11 C7.5,11.0716349 7.45523277,11.2603554 7.39251792,11.4097725 C7.36196782,11.4825576 7.33095671,11.5376978 7.30953113,11.5635695 C7.33191764,11.5365374 7.39035557,11.5 7.5,11.5 C7.61446527,11.5 7.6730237,11.5374553 7.69562967,11.5650611 C7.67329287,11.537784 7.64137091,11.4809694 7.60992198,11.4066746 C7.54601018,11.2556897 7.5,11.0668258 7.5,11 Z"></path>
                                    </g>
                                </g>
                            </g>
                        </g>
                    </g>
                    <g id="Group-17" transform="translate(444.000000, 42.000000)">
                        <g id="Group-13">
                            <g id="Group-10">
                                <g id="Rectangle-2">
                                    <use fill="black" fill-opacity="1" filter="url(#filter-10)" xlink:href="#path-9"></use>
                                    <use fill="#FFFFFF" fill-rule="evenodd" xlink:href="#path-9"></use>
                                </g>
                                <text id="Jan" font-family="Roboto-Regular, Roboto" font-size="12" font-weight="normal" line-spacing="18" fill="#333333">
                                    <tspan x="26.1152344" y="72">Jan</tspan>
                                </text>
                                <text id="Apr" font-family="Roboto-Regular, Roboto" font-size="12" font-weight="normal" line-spacing="18" fill="#333333">
                                    <tspan x="26.6894531" y="116">Apr</tspan>
                                </text>
                                <text id="Jul" font-family="Roboto-Medium, Roboto" font-size="12" font-weight="400" line-spacing="18" fill="#FF5722">
                                    <tspan x="27.8027344" y="160">Jul</tspan>
                                </text>
                                <text id="Aug" font-family="Roboto-Regular, Roboto" font-size="12" font-weight="normal" line-spacing="18" fill="#333333">
                                    <tspan x="102.444336" y="160">Aug</tspan>
                                </text>
                                <text id="Sept" font-family="Roboto-Regular, Roboto" font-size="12" font-weight="normal" line-spacing="18" fill="#333333">
                                    <tspan x="177.935547" y="160">Sept</tspan>
                                </text>
                                <text id="Oct" font-family="Roboto-Regular, Roboto" font-size="12" font-weight="normal" line-spacing="18" fill="#333333">
                                    <tspan x="26.7744141" y="204">Oct</tspan>
                                </text>
                                <text id="Nov" font-family="Roboto-Regular, Roboto" font-size="12" font-weight="normal" line-spacing="18" fill="#333333">
                                    <tspan x="102.438477" y="204">Nov</tspan>
                                </text>
                                <text id="Dec" font-family="Roboto-Regular, Roboto" font-size="12" font-weight="normal" line-spacing="18" fill="#333333">
                                    <tspan x="179.746094" y="204">Dec</tspan>
                                </text>
                                <text id="May" font-family="Roboto-Regular, Roboto" font-size="12" font-weight="normal" line-spacing="18" fill="#333333">
                                    <tspan x="101.703125" y="116">May</tspan>
                                </text>
                                <text id="Jun" font-family="Roboto-Regular, Roboto" font-size="12" font-weight="normal" line-spacing="18" fill="#333333">
                                    <tspan x="180.071289" y="116">Jun</tspan>
                                </text>
                                <text id="Feb" font-family="Roboto-Regular, Roboto" font-size="12" font-weight="normal" line-spacing="18" fill="#333333">
                                    <tspan x="103.200195" y="72">Feb</tspan>
                                </text>
                                <text id="Mar" font-family="Roboto-Regular, Roboto" font-size="12" font-weight="normal" line-spacing="18" fill="#333333">
                                    <tspan x="179.467773" y="72">Mar</tspan>
                                </text>
                                <g id="Group-6" transform="translate(16.000000, 16.000000)">
                                    <text id="2017" font-family="Roboto-Medium, Roboto" font-size="14" font-weight="400" fill="#FF5722">
                                        <tspan x="81" y="13">2017</tspan>
                                    </text>
                                    <path d="M5.88319895,10.3567966 C5.86431228,10.3783108 5.83684075,10.3723068 5.81580786,10.3883173 L0.698806938,15.8604084 C0.538699452,16.0465305 0.279866169,16.0465305 0.120187925,15.8604084 C-0.0394903184,15.6742863 -0.0394903184,15.3720879 0.120187925,15.1859658 L4.97105845,9.99956221 L0.119758683,4.81315864 C-0.039919561,4.62703649 -0.039919561,4.32483818 0.119758683,4.13921636 C0.279436927,3.95359455 0.538270209,3.95359455 0.697948453,4.13921636 L5.81409089,9.60880578 C5.83555302,9.62581694 5.86431228,9.619813 5.88319895,9.64232778 C5.96818898,9.74089246 6.0046746,9.87197849 5.99952369,10.0015635 C6.00381612,10.1291473 5.96647201,10.2587323 5.88319895,10.3567966 Z" id="Imported-Layers-Copy" fill="#8C8C8C" transform="translate(3.000000, 10.000000) scale(-1, 1) translate(-3.000000, -10.000000) "></path>
                                    <path d="M193.883199,10.3567966 C193.864312,10.3783108 193.836841,10.3723068 193.815808,10.3883173 L188.698807,15.8604084 C188.538699,16.0465305 188.279866,16.0465305 188.120188,15.8604084 C187.96051,15.6742863 187.96051,15.3720879 188.120188,15.1859658 L192.971058,9.99956221 L188.119759,4.81315864 C187.96008,4.62703649 187.96008,4.32483818 188.119759,4.13921636 C188.279437,3.95359455 188.53827,3.95359455 188.697948,4.13921636 L193.814091,9.60880578 C193.835553,9.62581694 193.864312,9.619813 193.883199,9.64232778 C193.968189,9.74089246 194.004675,9.87197849 193.999524,10.0015635 C194.003816,10.1291473 193.966472,10.2587323 193.883199,10.3567966 Z" id="Imported-Layers-Copy" fill="#8C8C8C"></path>
                                    <g id="HD-/-Pointer" transform="translate(109.000000, 15.000000)">
                                        <g id="Pointer">
                                            <use fill="black" fill-opacity="1" filter="url(#filter-12)" xlink:href="#path-11"></use>
                                            <use fill="#FFFFFF" fill-rule="evenodd" xlink:href="#path-11"></use>
                                            <path stroke="#000000" stroke-width="1" d="M4.57605264,7.86886829 C4.57241731,7.66457317 4.5650967,7.37326956 4.52581728,7.03939464 C4.43304259,6.25081004 4.21475604,5.31217786 3.96692806,4.63065068 C3.66718322,3.80635221 3.41092929,2.64931273 3.34425269,1.72925958 C3.24727325,0.391065577 3.51057107,-0.499999848 4.43682473,-0.5 C5.36321899,-0.500000081 5.76979273,-0.0142192182 6.1012711,1.08624342 C6.07149731,0.987398516 6.36793341,2.02266209 6.47434141,2.34188611 C6.57905679,2.65603222 6.65272028,2.99864222 6.70224378,3.37472107 C6.7390196,3.65399474 6.7594096,3.89031331 6.77303639,4.2025009 C7.08842116,3.75182727 7.66614661,3.56940093 8.49999977,3.56940079 C9.08903749,3.56940079 9.39871002,3.87344846 9.56379458,4.40706062 C9.6413897,4.10593831 9.79424359,3.88692891 10.0464402,3.74131922 C10.3299025,3.57765775 10.5352739,3.56045628 11.2187362,3.56773854 C11.3386214,3.56899267 11.3923139,3.5694008 11.463639,3.56940079 C12.1273974,3.56940079 12.4389193,3.95190243 12.5929548,4.61662629 C12.7060508,4.54192954 12.844071,4.50000003 12.9999998,4.5 C14.0584447,4.5 14.4999992,5.28235494 14.4999998,7.49999987 C14.4999999,7.9125726 14.5080173,8.26047668 14.5242075,8.68754329 C14.5682665,9.84974276 14.5645332,9.99797054 14.4181946,10.4100702 C14.3205201,10.6851285 14.1648512,10.9468649 13.8999997,11.3000001 C12.8666405,12.6778121 12.7696644,12.8071137 12.4929846,13.1760202 C12.482533,13.3113719 12.45928,13.4677182 12.4158897,13.6295137 C12.2802785,14.135185 11.9867699,14.5 11.4636391,14.5 C11.0829613,14.5000001 10.8351288,14.3231063 10.5176899,13.9659274 C10.4868562,13.9312336 10.4553429,13.8949899 10.3974761,13.8282135 C10.1764962,13.5742554 10.0768463,13.5 9.99999984,13.5 C9.91823665,13.5 9.79792217,13.5907818 9.67049804,13.7796466 C9.57207922,13.9255204 9.50274735,14.0769638 9.47202178,14.1649097 L9.35495172,14.5 L5.83060076,14.5 L5.6960862,14.3970347 C5.58906305,14.3151129 5.4053218,14.1694172 5.17017151,13.9743411 C4.77869498,13.6495797 4.38709033,13.3046237 4.02025764,12.9532621 C3.71263719,12.6586155 3.43572793,12.3718986 3.19673993,12.0965327 C2.93929299,11.799898 2.72894075,11.5200601 2.57125343,11.2572479 C2.39853209,10.969379 2.31312586,10.8424581 1.80218034,10.099907 C1.70749107,9.96229626 1.63555195,9.85699149 1.56608579,9.7539705 C0.678335947,8.43740331 0.323409215,7.64481027 0.514928753,6.87873219 C0.87165661,5.45182076 2.30373784,5.00830319 3.35355334,6.0581187 C3.60674637,6.31131169 3.82804519,6.62418288 4.10439053,7.08368642 C4.16760755,7.18880288 4.37918524,7.54952018 4.42006044,7.61778007 C4.47918337,7.71651294 4.53021317,7.79883171 4.57605264,7.86886829 Z M9.5,11 C9.5,11.0668258 9.54601018,11.2556897 9.60992198,11.4066746 C9.64137091,11.4809694 9.67329287,11.537784 9.69562967,11.5650611 C9.6730237,11.5374553 9.61446527,11.5 9.5,11.5 C9.39035557,11.5 9.33191764,11.5365374 9.30953113,11.5635695 C9.33095671,11.5376978 9.36196782,11.4825576 9.39251792,11.4097725 C9.45523277,11.2603554 9.5,11.0716349 9.5,11 L9.5,9 C9.5,8.93317417 9.45398982,8.74431031 9.39007802,8.59332539 C9.35862909,8.5190306 9.32670713,8.46221599 9.30437033,8.43493891 C9.3269763,8.46254468 9.38553473,8.5 9.5,8.5 C9.60964443,8.5 9.66808236,8.46346258 9.69046887,8.43643047 C9.66904329,8.46230224 9.63803218,8.5174424 9.60748208,8.59022753 C9.54476723,8.73964463 9.5,8.92836514 9.5,9 L9.5,11 Z M11.469691,11 C11.469691,11.0668258 11.5157012,11.2556897 11.579613,11.4066746 C11.611062,11.4809694 11.6429839,11.537784 11.6653207,11.5650611 C11.6427147,11.5374553 11.5841563,11.5 11.469691,11.5 C11.3600466,11.5 11.3016087,11.5365374 11.2792222,11.5635695 C11.3006478,11.5376978 11.3316589,11.4825576 11.362209,11.4097725 C11.4249238,11.2603554 11.469691,11.0716349 11.469691,11 L11.469691,9 C11.469691,8.93317417 11.4236809,8.74431031 11.3597691,8.59332539 C11.3283201,8.5190306 11.2963982,8.46221599 11.2740614,8.43493891 C11.2966673,8.46254468 11.3552258,8.5 11.469691,8.5 C11.5793355,8.5 11.6377734,8.46346258 11.6601599,8.43643047 C11.6387343,8.46230224 11.6077232,8.5174424 11.5771731,8.59022753 C11.5144583,8.73964463 11.469691,8.92836514 11.469691,9 L11.469691,11 Z M7.5,11 L7.5,9 C7.5,8.92836514 7.54476723,8.73964463 7.60748208,8.59022753 C7.63803218,8.5174424 7.66904329,8.46230224 7.69046887,8.43643047 C7.66808236,8.46346258 7.60964443,8.5 7.5,8.5 C7.38553473,8.5 7.3269763,8.46254468 7.30437033,8.43493891 C7.32670713,8.46221599 7.35862909,8.5190306 7.39007802,8.59332539 C7.45398982,8.74431031 7.5,8.93317417 7.5,9 L7.5,11 C7.5,11.0716349 7.45523277,11.2603554 7.39251792,11.4097725 C7.36196782,11.4825576 7.33095671,11.5376978 7.30953113,11.5635695 C7.33191764,11.5365374 7.39035557,11.5 7.5,11.5 C7.61446527,11.5 7.6730237,11.5374553 7.69562967,11.5650611 C7.67329287,11.537784 7.64137091,11.4809694 7.60992198,11.4066746 C7.54601018,11.2556897 7.5,11.0668258 7.5,11 Z"></path>
                                        </g>
                                    </g>
                                </g>
                            </g>
                        </g>
                    </g>
                    <g id="Group-17" transform="translate(444.000000, 319.000000)">
                        <g id="Group-13">
                            <g id="Group-10">
                                <g id="Rectangle-2">
                                    <use fill="black" fill-opacity="1" filter="url(#filter-14)" xlink:href="#path-13"></use>
                                    <use fill="#FFFFFF" fill-rule="evenodd" xlink:href="#path-13"></use>
                                </g>
                                <path d="M222,0 L227,0 L227,0 C228.656854,-3.04359188e-16 230,1.34314575 230,3 L230,234 L230,234 C230,235.656854 228.656854,237 227,237 L222,237 L222,0 Z" id="Rectangle-2" fill="#F5F5F5"></path>
                                <rect id="Rectangle-2" fill="#DBDBDB" x="222" y="74" width="8" height="80"></rect>
                                <text id="2013" font-family="Roboto-Regular, Roboto" font-size="12" font-weight="normal" line-spacing="18" fill="#333333">
                                    <tspan x="22.5234375" y="72">2013</tspan>
                                </text>
                                <text id="2016" font-family="Roboto-Regular, Roboto" font-size="12" font-weight="normal" line-spacing="18" fill="#333333">
                                    <tspan x="22.5234375" y="116">2016</tspan>
                                </text>
                                <text id="2019" font-family="Roboto-Regular, Roboto" font-size="12" font-weight="normal" line-spacing="18" fill="#333333">
                                    <tspan x="22.5234375" y="160">2019</tspan>
                                </text>
                                <text id="2020" font-family="Roboto-Regular, Roboto" font-size="12" font-weight="normal" line-spacing="18" fill="#333333">
                                    <tspan x="99.5234375" y="160">2020</tspan>
                                </text>
                                <text id="2021" font-family="Roboto-Regular, Roboto" font-size="12" font-weight="normal" line-spacing="18" fill="#333333">
                                    <tspan x="176.523438" y="160">2021</tspan>
                                </text>
                                <text id="2022" font-family="Roboto-Regular, Roboto" font-size="12" font-weight="normal" line-spacing="18" fill="#333333">
                                    <tspan x="22.5234375" y="204">2022</tspan>
                                </text>
                                <text id="2023" font-family="Roboto-Regular, Roboto" font-size="12" font-weight="normal" line-spacing="18" fill="#333333">
                                    <tspan x="99.5234375" y="204">2023</tspan>
                                </text>
                                <text id="2024" font-family="Roboto-Regular, Roboto" font-size="12" font-weight="normal" line-spacing="18" fill="#333333">
                                    <tspan x="176.523438" y="204">2024</tspan>
                                </text>
                                <text id="2017" font-family="Roboto-Medium, Roboto" font-size="12" font-weight="400" line-spacing="18" fill="#FF5722">
                                    <tspan x="99.359375" y="116">2017</tspan>
                                </text>
                                <text id="2018" font-family="Roboto-Regular, Roboto" font-size="12" font-weight="normal" line-spacing="18" fill="#333333">
                                    <tspan x="176.523438" y="116">2018</tspan>
                                </text>
                                <text id="2014" font-family="Roboto-Regular, Roboto" font-size="12" font-weight="normal" line-spacing="18" fill="#333333">
                                    <tspan x="99.5234375" y="72">2014</tspan>
                                </text>
                                <text id="2015" font-family="Roboto-Regular, Roboto" font-size="12" font-weight="normal" line-spacing="18" fill="#333333">
                                    <tspan x="176.523438" y="72">2015</tspan>
                                </text>
                                <text id="2010" font-family="Roboto-Regular, Roboto" font-size="12" font-weight="normal" line-spacing="18" fill="#333333">
                                    <tspan x="22.5234375" y="28">2010</tspan>
                                </text>
                                <text id="2011" font-family="Roboto-Regular, Roboto" font-size="12" font-weight="normal" line-spacing="18" fill="#333333">
                                    <tspan x="99.5234375" y="28">2011</tspan>
                                </text>
                                <text id="2012" font-family="Roboto-Regular, Roboto" font-size="12" font-weight="normal" line-spacing="18" fill="#333333">
                                    <tspan x="176.523438" y="28">2012</tspan>
                                </text>
                            </g>
                        </g>
                    </g>
                    <g id="Group-7" transform="translate(345.000000, 60.000000)" stroke="#FF5722">
                        <path d="M0.48175924,7.5 L72.0461704,7.5" id="Path-2" stroke-linecap="round"></path>
                        <path id="Path-2-decoration-1" d="M0.48175924,4.5 L0.48175924,10.5" stroke-linecap="round"></path>
                        <path d="M70.5,4.20710678 L62.2071068,12.5 L70.5,12.5 L70.5,4.20710678 Z" id="Rectangle-10" transform="translate(66.000000, 8.000000) rotate(-45.000000) translate(-66.000000, -8.000000) "></path>
                    </g>
                    <g id="Group-7" transform="translate(382.000000, 84.000000) scale(-1, 1) translate(-382.000000, -84.000000) translate(345.000000, 76.000000)" stroke="#FF5722">
                        <path d="M0.48175924,7.5 L72.0461704,7.5" id="Path-2" stroke-linecap="round" stroke-dasharray="2,3"></path>
                        <path id="Path-2-decoration-1" d="M0.48175924,4.5 L0.48175924,10.5" stroke-linecap="round" stroke-dasharray="2,3"></path>
                        <path d="M70.5,4.20710678 L62.2071068,12.5 L70.5,12.5 L70.5,4.20710678 Z" id="Rectangle-10" transform="translate(66.000000, 8.000000) rotate(-45.000000) translate(-66.000000, -8.000000) "></path>
                    </g>
                    <g id="Group-7" transform="translate(345.000000, 339.000000)" stroke="#FF5722">
                        <path d="M0.48175924,7.5 L72.0461704,7.5" id="Path-2" stroke-linecap="round"></path>
                        <path id="Path-2-decoration-1" d="M0.48175924,4.5 L0.48175924,10.5" stroke-linecap="round"></path>
                        <path d="M70.5,4.20710678 L62.2071068,12.5 L70.5,12.5 L70.5,4.20710678 Z" id="Rectangle-10" transform="translate(66.000000, 8.000000) rotate(-45.000000) translate(-66.000000, -8.000000) "></path>
                    </g>
                    <g id="Group-7" transform="translate(382.000000, 363.000000) scale(-1, 1) translate(-382.000000, -363.000000) translate(345.000000, 355.000000)" stroke="#FF5722">
                        <path d="M0.48175924,7.5 L72.0461704,7.5" id="Path-2" stroke-linecap="round" stroke-dasharray="2,3"></path>
                        <path id="Path-2-decoration-1" d="M0.48175924,4.5 L0.48175924,10.5" stroke-linecap="round" stroke-dasharray="2,3"></path>
                        <path d="M70.5,4.20710678 L62.2071068,12.5 L70.5,12.5 L70.5,4.20710678 Z" id="Rectangle-10" transform="translate(66.000000, 8.000000) rotate(-45.000000) translate(-66.000000, -8.000000) "></path>
                    </g>
                    <path d="M680.250105,67.9633941 L757.286598,67.9633941 L757.286598,67.9633941 C762.809445,67.9633941 767.286598,72.4405466 767.286598,77.9633941 L767.286598,414.963394 L767.286598,414.963394 C767.286598,420.486242 762.809445,424.963394 757.286598,424.963394 L682.189725,424.963394" id="Path-3" stroke="#FF5722" stroke-linecap="round"></path>
                    <path id="Path-3-decoration-1" d="M680.250105,64.9633941 L680.250105,70.9633941" stroke="#FF5722" stroke-linecap="round"></path>
                    <path d="M691.5,421.207107 L683.207107,429.5 L691.5,429.5 L691.5,421.207107 Z" id="Rectangle-10" stroke="#FF5722" transform="translate(687.000000, 425.000000) scale(-1, 1) rotate(-45.000000) translate(-687.000000, -425.000000) "></path>
                </g>
            </g>
        </g>
    </g>
</svg>