<?xml version="1.0" encoding="UTF-8"?>
<svg width="900px" height="510px" viewBox="0 0 900 510" version="1.1" xmlns="http://www.w3.org/2000/svg" xmlns:xlink="http://www.w3.org/1999/xlink">
    <!-- Generator: Sketch 47.1 (45422) - http://www.bohemiancoding.com/sketch -->
    <title>Group 53</title>
    <desc>Created with Sketch.</desc>
    <defs>
        <rect id="path-1" x="0" y="0" width="400" height="220" rx="3"></rect>
        <filter x="-12.0%" y="-14.5%" width="124.0%" height="143.6%" filterUnits="objectBoundingBox" id="filter-2">
            <feOffset dx="0" dy="16" in="SourceAlpha" result="shadowOffsetOuter1"></feOffset>
            <feGaussianBlur stdDeviation="8" in="shadowOffsetOuter1" result="shadowBlurOuter1"></feGaussianBlur>
            <feColorMatrix values="0 0 0 0 0   0 0 0 0 0   0 0 0 0 0  0 0 0 0.09 0" type="matrix" in="shadowBlurOuter1" result="shadowMatrixOuter1"></feColorMatrix>
            <feOffset dx="0" dy="0" in="SourceAlpha" result="shadowOffsetOuter2"></feOffset>
            <feGaussianBlur stdDeviation="8" in="shadowOffsetOuter2" result="shadowBlurOuter2"></feGaussianBlur>
            <feColorMatrix values="0 0 0 0 0   0 0 0 0 0   0 0 0 0 0  0 0 0 0.05 0" type="matrix" in="shadowBlurOuter2" result="shadowMatrixOuter2"></feColorMatrix>
            <feMerge>
                <feMergeNode in="shadowMatrixOuter1"></feMergeNode>
                <feMergeNode in="shadowMatrixOuter2"></feMergeNode>
            </feMerge>
        </filter>
        <rect id="path-3" x="0" y="0" width="200" height="110" rx="3"></rect>
        <filter x="-24.0%" y="-29.1%" width="148.0%" height="187.3%" filterUnits="objectBoundingBox" id="filter-4">
            <feOffset dx="0" dy="16" in="SourceAlpha" result="shadowOffsetOuter1"></feOffset>
            <feGaussianBlur stdDeviation="8" in="shadowOffsetOuter1" result="shadowBlurOuter1"></feGaussianBlur>
            <feColorMatrix values="0 0 0 0 0   0 0 0 0 0   0 0 0 0 0  0 0 0 0.09 0" type="matrix" in="shadowBlurOuter1" result="shadowMatrixOuter1"></feColorMatrix>
            <feOffset dx="0" dy="0" in="SourceAlpha" result="shadowOffsetOuter2"></feOffset>
            <feGaussianBlur stdDeviation="8" in="shadowOffsetOuter2" result="shadowBlurOuter2"></feGaussianBlur>
            <feColorMatrix values="0 0 0 0 0   0 0 0 0 0   0 0 0 0 0  0 0 0 0.05 0" type="matrix" in="shadowBlurOuter2" result="shadowMatrixOuter2"></feColorMatrix>
            <feMerge>
                <feMergeNode in="shadowMatrixOuter1"></feMergeNode>
                <feMergeNode in="shadowMatrixOuter2"></feMergeNode>
            </feMerge>
        </filter>
    </defs>
    <g id="Designs" stroke="none" stroke-width="1" fill="none" fill-rule="evenodd">
        <g id="170705-V0.9.1" transform="translate(-777.000000, -6374.000000)">
            <g id="Group-53" transform="translate(777.000000, 6374.000000)">
                <rect id="Rectangle-12" fill="#FAFAFA" x="0" y="0" width="900" height="510"></rect>
                <g id="Group-42" transform="translate(100.000000, 49.000000)">
                    <rect id="Rectangle-10" fill="#F5F5F5" x="0" y="0" width="700" height="412"></rect>
                    <g id="Group-41" transform="translate(47.000000, 137.000000)">
                        <g id="Group-40">
                            <rect id="Rectangle-13" fill="#FFFFFF" x="0" y="0" width="194" height="222" rx="2"></rect>
                            <circle id="Oval" fill="#E8E8E8" cx="97" cy="76" r="40"></circle>
                            <path d="M29,144 L166,144 L166,160 L29,160 L29,144 Z M48,170 L148,170 L148,186 L48,186 L48,170 Z" id="Combined-Shape" fill="#D8D8D8"></path>
                        </g>
                        <g id="Group-40" transform="translate(207.000000, 0.000000)">
                            <rect id="Rectangle-13" fill="#FFFFFF" x="0" y="0" width="194" height="222" rx="2"></rect>
                            <circle id="Oval" fill="#E8E8E8" cx="97" cy="76" r="40"></circle>
                            <path d="M29,144 L166,144 L166,160 L29,160 L29,144 Z M48,170 L148,170 L148,186 L48,186 L48,170 Z" id="Combined-Shape" fill="#D8D8D8"></path>
                        </g>
                        <g id="Group-40" transform="translate(412.000000, 0.000000)">
                            <rect id="Rectangle-13" fill="#FFFFFF" x="0" y="0" width="194" height="222" rx="2"></rect>
                            <circle id="Oval" fill="#E8E8E8" cx="97" cy="76" r="40"></circle>
                            <path d="M29,144 L166,144 L166,160 L29,160 L29,144 Z M48,170 L148,170 L148,186 L48,186 L48,170 Z" id="Combined-Shape" fill="#D8D8D8"></path>
                        </g>
                    </g>
                    <path d="M257,55 L444,55 L444,85 L257,85 L257,55 Z M283,97 L419,97 L419,113 L283,113 L283,97 Z" id="Combined-Shape" fill="#E8E8E8"></path>
                    <rect id="Rectangle-10" fill="#CCCCCC" x="0" y="0" width="700" height="20"></rect>
                </g>
                <rect id="Rectangle-10" fill-opacity="0.4" fill="#000000" x="100" y="49" width="700" height="412"></rect>
                <g id="Group-55" transform="translate(250.000000, 145.000000)">
                    <g id="Mask">
                        <use fill="black" fill-opacity="1" filter="url(#filter-2)" xlink:href="#path-1"></use>
                        <use fill="#FFFFFF" fill-rule="evenodd" xlink:href="#path-1"></use>
                    </g>
                    <path d="M424,7.24575277 L416.910457,0.156209717 C416.702177,-0.0520699056 416.364489,-0.0520699056 416.15621,0.156209717 C415.94793,0.364489339 415.94793,0.702177328 416.15621,0.91045695 L423.245753,8 L416.15621,15.0895431 C415.94793,15.2978227 415.94793,15.6355107 416.15621,15.8437903 C416.364489,16.0520699 416.702177,16.0520699 416.910457,15.8437903 L424,8.75424723 L431.089543,15.8437903 C431.297823,16.0520699 431.635511,16.0520699 431.84379,15.8437903 C432.05207,15.6355107 432.05207,15.2978227 431.84379,15.0895431 L424.754247,8 L431.84379,0.91045695 C432.05207,0.702177328 432.05207,0.364489339 431.84379,0.156209717 C431.635511,-0.0520699056 431.297823,-0.0520699056 431.089543,0.156209717 L424,7.24575277 Z" id="Combined-Shape" fill="#FFFFFF" fill-rule="nonzero"></path>
                </g>
                <rect id="Rectangle-10" fill-opacity="0.4" fill="#000000" x="100" y="49" width="700" height="412"></rect>
                <g id="confirmation" transform="translate(350.000000, 200.000000)">
                    <g id="Mask">
                        <use fill="black" fill-opacity="1" filter="url(#filter-4)" xlink:href="#path-3"></use>
                        <use fill="#FFFFFF" fill-rule="evenodd" xlink:href="#path-3"></use>
                    </g>
                    <path d="M12,38 L188,38 L188,48 L12,48 L12,38 Z M12,54 L100,54 L100,64 L12,64 L12,54 Z" id="Combined-Shape" fill="#E8E8E8"></path>
                    <rect id="Rectangle-20" fill="#DBDBDB" x="12" y="12" width="100" height="14"></rect>
                    <g id="Group-56" transform="translate(116.000000, 78.000000)">
                        <rect id="Rectangle-20" fill="#E8E8E8" x="0" y="4" width="24" height="12"></rect>
                        <rect id="Rectangle-20" fill="#FF5722" x="32" y="0" width="40" height="20" rx="2"></rect>
                    </g>
                </g>
            </g>
        </g>
    </g>
</svg>