<?xml version="1.0" encoding="UTF-8"?>
<svg width="900px" height="140px" viewBox="0 0 900 140" version="1.1" xmlns="http://www.w3.org/2000/svg" xmlns:xlink="http://www.w3.org/1999/xlink">
    <!-- Generator: Sketch 47.1 (45422) - http://www.bohemiancoding.com/sketch -->
    <title>Group 12</title>
    <desc>Created with Sketch.</desc>
    <defs>
        <rect id="path-1" x="88" y="0" width="100" height="40" rx="2"></rect>
        <rect id="path-2" x="88" y="0" width="100" height="40" rx="2"></rect>
        <path d="M0,0 L0,12 L3.375,9 L6.1875,14 L7.3125,14 C7.3125,14 8.03886775,13.3495845 7.875,13 C7.10136777,11.3495845 5.0625,8 5.0625,8 L9,8 L0,0 Z" id="path-3"></path>
        <filter x="-66.7%" y="-35.7%" width="233.3%" height="185.7%" filterUnits="objectBoundingBox" id="filter-4">
            <feMorphology radius="1" operator="dilate" in="SourceAlpha" result="shadowSpreadOuter1"></feMorphology>
            <feOffset dx="0" dy="1" in="shadowSpreadOuter1" result="shadowOffsetOuter1"></feOffset>
            <feGaussianBlur stdDeviation="1.5" in="shadowOffsetOuter1" result="shadowBlurOuter1"></feGaussianBlur>
            <feComposite in="shadowBlurOuter1" in2="SourceAlpha" operator="out" result="shadowBlurOuter1"></feComposite>
            <feColorMatrix values="0 0 0 0 0   0 0 0 0 0   0 0 0 0 0  0 0 0 1 0" type="matrix" in="shadowBlurOuter1"></feColorMatrix>
        </filter>
    </defs>
    <g id="Final" stroke="none" stroke-width="1" fill="none" fill-rule="evenodd">
        <g id="v1.0.0" transform="translate(-700.000000, -3242.000000)">
            <g id="Group-12" transform="translate(700.000000, 3242.000000)">
                <rect id="Rectangle-2-Copy" fill="#FAFAFA" x="0" y="0" width="900" height="140"></rect>
                <g id="Group-22" transform="translate(151.000000, 47.000000)">
                    <g id="Group">
                        <g id="Rectangle-4">
                            <use fill="#FFFFFF" fill-rule="evenodd" xlink:href="#path-1"></use>
                            <rect stroke="#E8E8E8" stroke-width="1" x="88.5" y="0.5" width="99" height="39" rx="2"></rect>
                        </g>
                        <text id="3" font-family="Roboto-Regular, Roboto" font-size="14" font-weight="normal" line-spacing="21" fill="#333333">
                            <tspan x="100" y="23">3</tspan>
                        </text>
                        <text id="天" font-family="PingFangSC-Regular, PingFang SC" font-size="14" font-weight="normal" line-spacing="21" fill="#BBBBBB">
                            <tspan x="162" y="25">天</tspan>
                        </text>
                        <text id="备货时间" font-family="PingFangSC-Regular, PingFang SC" font-size="14" font-weight="normal" line-spacing="21" fill="#333333">
                            <tspan x="0" y="25">备货时间</tspan>
                        </text>
                    </g>
                    <g id="Group" transform="translate(402.000000, 0.000000)">
                        <g id="Rectangle-4">
                            <use fill="#FFFFFF" fill-rule="evenodd" xlink:href="#path-2"></use>
                            <rect stroke="#BBBBBB" stroke-width="1" x="88.5" y="0.5" width="99" height="39" rx="2"></rect>
                        </g>
                        <text id="3" font-family="Roboto-Regular, Roboto" font-size="14" font-weight="normal" line-spacing="21" fill="#333333">
                            <tspan x="100" y="23">3</tspan>
                        </text>
                        <g id="Group-2" transform="translate(151.000000, 21.000000) scale(1, -1) translate(-151.000000, -21.000000) translate(147.000000, 11.000000)" fill="#888888">
                            <path d="M4.35355339,0.853553391 L8,4.5 L0,4.5 L3.64644661,0.853553391 L3.64644661,0.853553391 C3.84170876,0.658291245 4.15829124,0.658291245 4.35355339,0.853553391 Z" id="Triangle"></path>
                            <path d="M4.35355339,15.6464466 L8,19.2928932 L0,19.2928932 L3.64644661,15.6464466 L3.64644661,15.6464466 C3.84170876,15.4511845 4.15829124,15.4511845 4.35355339,15.6464466 Z" id="Triangle" transform="translate(4.000000, 17.396447) scale(1, -1) translate(-4.000000, -17.396447) "></path>
                        </g>
                        <text id="天" font-family="PingFangSC-Regular, PingFang SC" font-size="14" font-weight="normal" line-spacing="21" fill="#BBBBBB">
                            <tspan x="162" y="25">天</tspan>
                        </text>
                        <g id="hd-regular" transform="translate(159.000000, 32.000000)">
                            <g id="Default">
                                <use fill="black" fill-opacity="1" filter="url(#filter-4)" xlink:href="#path-3"></use>
                                <use fill="#000000" fill-rule="evenodd" xlink:href="#path-3"></use>
                                <path stroke="#FFFFFF" stroke-width="1" d="M5.9460907,8.5 C5.95642733,8.51736045 5.96687946,8.53492334 5.9774444,8.55268453 C6.34289215,9.16705514 6.70837848,9.79268326 7.04979825,10.3927984 C7.13785224,10.5478246 7.13785224,10.5478246 7.22562581,10.7034481 C7.7056538,11.556155 8.08281912,12.2653076 8.32772947,12.7877831 C8.4576257,13.064895 8.40615195,13.3453845 8.25553159,13.6273965 C8.18664122,13.7563824 8.09668678,13.8840432 7.99021818,14.0120662 C7.86208243,14.1661428 7.73604623,14.2918983 7.64604194,14.3724913 L7.50364342,14.5 L5.89507626,14.5 L3.24341739,9.78593979 L-0.5,13.1134219 L-0.5,-1.11342192 L10.3150997,8.5 L5.94609079,8.5 Z"></path>
                            </g>
                        </g>
                        <text id="备货时间" font-family="PingFangSC-Regular, PingFang SC" font-size="14" font-weight="normal" line-spacing="21" fill="#333333">
                            <tspan x="0" y="25">备货时间</tspan>
                        </text>
                    </g>
                </g>
            </g>
        </g>
    </g>
</svg>