<?xml version="1.0" encoding="UTF-8"?>
<svg width="900px" height="395px" viewBox="0 0 900 395" version="1.1" xmlns="http://www.w3.org/2000/svg" xmlns:xlink="http://www.w3.org/1999/xlink">
    <!-- Generator: Sketch 47.1 (45422) - http://www.bohemiancoding.com/sketch -->
    <title>Group 21</title>
    <desc>Created with Sketch.</desc>
    <defs>
        <rect id="path-1" x="68" y="0" width="150" height="40" rx="2"></rect>
        <path d="M0,0 L0,12 L3.375,9 L6.1875,14 L7.3125,14 C7.3125,14 8.03886775,13.3495845 7.875,13 C7.10136777,11.3495845 5.0625,8 5.0625,8 L9,8 L0,0 Z" id="path-2"></path>
        <filter x="-66.7%" y="-35.7%" width="233.3%" height="185.7%" filterUnits="objectBoundingBox" id="filter-3">
            <feMorphology radius="1" operator="dilate" in="SourceAlpha" result="shadowSpreadOuter1"></feMorphology>
            <feOffset dx="0" dy="1" in="shadowSpreadOuter1" result="shadowOffsetOuter1"></feOffset>
            <feGaussianBlur stdDeviation="1.5" in="shadowOffsetOuter1" result="shadowBlurOuter1"></feGaussianBlur>
            <feComposite in="shadowBlurOuter1" in2="SourceAlpha" operator="out" result="shadowBlurOuter1"></feComposite>
            <feColorMatrix values="0 0 0 0 0   0 0 0 0 0   0 0 0 0 0  0 0 0 1 0" type="matrix" in="shadowBlurOuter1"></feColorMatrix>
        </filter>
        <rect id="path-4" x="68" y="0" width="150" height="40" rx="2"></rect>
        <path d="M0,0 L0,12 L3.375,9 L6.1875,14 L7.3125,14 C7.3125,14 8.03886775,13.3495845 7.875,13 C7.10136777,11.3495845 5.0625,8 5.0625,8 L9,8 L0,0 Z" id="path-5"></path>
        <filter x="-66.7%" y="-35.7%" width="233.3%" height="185.7%" filterUnits="objectBoundingBox" id="filter-6">
            <feMorphology radius="1" operator="dilate" in="SourceAlpha" result="shadowSpreadOuter1"></feMorphology>
            <feOffset dx="0" dy="1" in="shadowSpreadOuter1" result="shadowOffsetOuter1"></feOffset>
            <feGaussianBlur stdDeviation="1.5" in="shadowOffsetOuter1" result="shadowBlurOuter1"></feGaussianBlur>
            <feComposite in="shadowBlurOuter1" in2="SourceAlpha" operator="out" result="shadowBlurOuter1"></feComposite>
            <feColorMatrix values="0 0 0 0 0   0 0 0 0 0   0 0 0 0 0  0 0 0 1 0" type="matrix" in="shadowBlurOuter1"></feColorMatrix>
        </filter>
        <polygon id="path-7" points="0 0 0 12 3.34394479 8 8 8"></polygon>
        <filter x="-75.0%" y="-41.7%" width="250.0%" height="200.0%" filterUnits="objectBoundingBox" id="filter-8">
            <feMorphology radius="1" operator="dilate" in="SourceAlpha" result="shadowSpreadOuter1"></feMorphology>
            <feOffset dx="0" dy="1" in="shadowSpreadOuter1" result="shadowOffsetOuter1"></feOffset>
            <feGaussianBlur stdDeviation="1.5" in="shadowOffsetOuter1" result="shadowBlurOuter1"></feGaussianBlur>
            <feComposite in="shadowBlurOuter1" in2="SourceAlpha" operator="out" result="shadowBlurOuter1"></feComposite>
            <feColorMatrix values="0 0 0 0 0   0 0 0 0 0   0 0 0 0 0  0 0 0 0.25 0" type="matrix" in="shadowBlurOuter1"></feColorMatrix>
        </filter>
        <path d="M3.99933287,15.783011 C3.51966105,16.5758802 3.24358974,17.5057002 3.24358974,18.5 C3.24358974,21.4030352 5.59696478,23.7564103 8.5,23.7564103 C9.49429985,23.7564103 10.4241198,23.4803389 11.216989,23.0006671 L3.99933287,15.783011 Z M5.597089,14.1171974 L12.8828026,21.402911 C13.4348391,20.5711183 13.7564103,19.5731126 13.7564103,18.5 C13.7564103,15.5969648 11.4030352,13.2435897 8.5,13.2435897 C7.42688736,13.2435897 6.4288817,13.5651609 5.597089,14.1171974 Z M8.5,26 C4.35786438,26 1,22.6421356 1,18.5 C1,14.3578644 4.35786438,11 8.5,11 C12.6421356,11 16,14.3578644 16,18.5 C16,22.6421356 12.6421356,26 8.5,26 Z" id="path-9"></path>
        <filter x="-23.3%" y="-16.7%" width="146.7%" height="146.7%" filterUnits="objectBoundingBox" id="filter-10">
            <feOffset dx="0" dy="1" in="SourceAlpha" result="shadowOffsetOuter1"></feOffset>
            <feGaussianBlur stdDeviation="1" in="shadowOffsetOuter1" result="shadowBlurOuter1"></feGaussianBlur>
            <feColorMatrix values="0 0 0 0 0   0 0 0 0 0   0 0 0 0 0  0 0 0 0.25 0" type="matrix" in="shadowBlurOuter1"></feColorMatrix>
        </filter>
    </defs>
    <g id="Final" stroke="none" stroke-width="1" fill="none" fill-rule="evenodd">
        <g id="v1.0.0" transform="translate(-715.000000, -2540.000000)">
            <g id="Group-21" transform="translate(715.000000, 2540.000000)">
                <rect id="Rectangle-2-Copy" fill="#FAFAFA" x="0" y="0" width="900" height="395"></rect>
                <g id="Group-30" transform="translate(123.000000, 47.000000)">
                    <text id="1.-The-input-value-i" font-family="PingFangSC-Regular, PingFang SC" font-size="12" font-weight="normal" line-spacing="18" fill="#888888">
                        <tspan x="0" y="96">1. The input value is below the minimum display warning</tspan>
                    </text>
                    <g id="Group">
                        <rect id="Rectangle-4" stroke="#FF4742" fill="#FFF1F0" x="68" y="0" width="150" height="40" rx="2"></rect>
                        <text id="折扣范围：60%---90%" font-family="PingFangTC-Regular, PingFang TC" font-size="12" font-weight="normal" line-spacing="18" fill="#FF4742">
                            <tspan x="68" y="61">折扣范围：</tspan>
                            <tspan x="128" y="61" font-family="Roboto-Regular, Roboto">60% - 90%</tspan>
                        </text>
                        <text id="20" font-family="Roboto-Regular, Roboto" font-size="14" font-weight="normal" line-spacing="21" fill="#333333">
                            <tspan x="80" y="23">20</tspan>
                        </text>
                        <text id="%" font-family="Roboto-Regular, Roboto" font-size="14" font-weight="normal" line-spacing="21" fill="#BBBBBB">
                            <tspan x="195" y="23">%</tspan>
                        </text>
                        <text id="活动折扣" font-family="PingFangSC-Regular, PingFang SC" font-size="14" font-weight="normal" line-spacing="21" fill="#333333">
                            <tspan x="0" y="25">活动折扣</tspan>
                        </text>
                    </g>
                </g>
                <g id="Group-29" transform="translate(123.000000, 225.000000)">
                    <text id="3.-Click-the-up-butt" font-family="PingFangSC-Regular, PingFang SC" font-size="12" font-weight="normal" line-spacing="18" fill="#888888">
                        <tspan x="0" y="86">3. Click the up button after the value </tspan>
                        <tspan x="0" y="104">immediately adjusted to the minimum, </tspan>
                        <tspan x="0" y="122">but this time is still not allowed to down</tspan>
                    </text>
                    <g id="Group">
                        <g id="Rectangle-4">
                            <use fill="#FFFFFF" fill-rule="evenodd" xlink:href="#path-1"></use>
                            <rect stroke="#E8E8E8" stroke-width="1" x="68.5" y="0.5" width="149" height="39" rx="2"></rect>
                        </g>
                        <g id="Group-3" transform="translate(181.000000, 10.000000)">
                            <path d="M4.35355339,15.6464466 L8,19.2928932 L0,19.2928932 L3.64644661,15.6464466 L3.64644661,15.6464466 C3.84170876,15.4511845 4.15829124,15.4511845 4.35355339,15.6464466 Z" id="Triangle" fill="#CCCCCC" transform="translate(4.000000, 17.396447) scale(1, -1) translate(-4.000000, -17.396447) "></path>
                            <path d="M4.35355339,0.853553391 L8,4.5 L0,4.5 L3.64644661,0.853553391 L3.64644661,0.853553391 C3.84170876,0.658291245 4.15829124,0.658291245 4.35355339,0.853553391 Z" id="Triangle" fill="#555555"></path>
                        </g>
                        <text id="60" font-family="Roboto-Regular, Roboto" font-size="14" font-weight="normal" line-spacing="21" fill="#333333">
                            <tspan x="80" y="23">60</tspan>
                        </text>
                        <text id="%" font-family="Roboto-Regular, Roboto" font-size="14" font-weight="normal" line-spacing="21" fill="#BBBBBB">
                            <tspan x="195" y="23">%</tspan>
                        </text>
                        <text id="活动折扣" font-family="PingFangSC-Regular, PingFang SC" font-size="14" font-weight="normal" line-spacing="21" fill="#333333">
                            <tspan x="0" y="25">活动折扣</tspan>
                        </text>
                        <g id="hd-regular" transform="translate(190.000000, 13.000000)">
                            <g id="Default">
                                <use fill="black" fill-opacity="1" filter="url(#filter-3)" xlink:href="#path-2"></use>
                                <use fill="#000000" fill-rule="evenodd" xlink:href="#path-2"></use>
                                <path stroke="#FFFFFF" stroke-width="1" d="M5.9460907,8.5 C5.95642733,8.51736045 5.96687946,8.53492334 5.9774444,8.55268453 C6.34289215,9.16705514 6.70837848,9.79268326 7.04979825,10.3927984 C7.13785224,10.5478246 7.13785224,10.5478246 7.22562581,10.7034481 C7.7056538,11.556155 8.08281912,12.2653076 8.32772947,12.7877831 C8.4576257,13.064895 8.40615195,13.3453845 8.25553159,13.6273965 C8.18664122,13.7563824 8.09668678,13.8840432 7.99021818,14.0120662 C7.86208243,14.1661428 7.73604623,14.2918983 7.64604194,14.3724913 L7.50364342,14.5 L5.89507626,14.5 L3.24341739,9.78593979 L-0.5,13.1134219 L-0.5,-1.11342192 L10.3150997,8.5 L5.94609079,8.5 Z"></path>
                            </g>
                        </g>
                    </g>
                </g>
                <g id="Group-28" transform="translate(525.000000, 225.000000)">
                    <text id="4.-After-the-value-f" font-family="PingFangSC-Regular, PingFang SC" font-size="12" font-weight="normal" line-spacing="18" fill="#888888">
                        <tspan x="0" y="86">4. After the value falls within the normal </tspan>
                        <tspan x="0" y="104">range, you can restore the down button</tspan>
                    </text>
                    <g id="Group">
                        <g id="Rectangle-4">
                            <use fill="#FFFFFF" fill-rule="evenodd" xlink:href="#path-4"></use>
                            <rect stroke="#E8E8E8" stroke-width="1" x="68.5" y="0.5" width="149" height="39" rx="2"></rect>
                        </g>
                        <g id="Group-3" transform="translate(179.000000, 10.000000)" fill="#888888">
                            <path d="M4.35355339,15.6464466 L8,19.2928932 L0,19.2928932 L3.64644661,15.6464466 L3.64644661,15.6464466 C3.84170876,15.4511845 4.15829124,15.4511845 4.35355339,15.6464466 Z" id="Triangle" transform="translate(4.000000, 17.396447) scale(1, -1) translate(-4.000000, -17.396447) "></path>
                            <path d="M4.35355339,0.853553391 L8,4.5 L0,4.5 L3.64644661,0.853553391 L3.64644661,0.853553391 C3.84170876,0.658291245 4.15829124,0.658291245 4.35355339,0.853553391 Z" id="Triangle"></path>
                        </g>
                        <text id="65" font-family="Roboto-Regular, Roboto" font-size="14" font-weight="normal" line-spacing="20" fill="#333333">
                            <tspan x="80" y="23">65</tspan>
                        </text>
                        <text id="%" font-family="Roboto-Regular, Roboto" font-size="14" font-weight="normal" line-spacing="21" fill="#BBBBBB">
                            <tspan x="195" y="22">%</tspan>
                        </text>
                        <text id="活动折扣" font-family="PingFangSC-Regular, PingFang SC" font-size="14" font-weight="normal" line-spacing="21" fill="#333333">
                            <tspan x="0" y="25">活动折扣</tspan>
                        </text>
                        <g id="hd-regular" transform="translate(139.000000, 33.000000)">
                            <g id="Default">
                                <use fill="black" fill-opacity="1" filter="url(#filter-6)" xlink:href="#path-5"></use>
                                <use fill="#000000" fill-rule="evenodd" xlink:href="#path-5"></use>
                                <path stroke="#FFFFFF" stroke-width="1" d="M5.9460907,8.5 C5.95642733,8.51736045 5.96687946,8.53492334 5.9774444,8.55268453 C6.34289215,9.16705514 6.70837848,9.79268326 7.04979825,10.3927984 C7.13785224,10.5478246 7.13785224,10.5478246 7.22562581,10.7034481 C7.7056538,11.556155 8.08281912,12.2653076 8.32772947,12.7877831 C8.4576257,13.064895 8.40615195,13.3453845 8.25553159,13.6273965 C8.18664122,13.7563824 8.09668678,13.8840432 7.99021818,14.0120662 C7.86208243,14.1661428 7.73604623,14.2918983 7.64604194,14.3724913 L7.50364342,14.5 L5.89507626,14.5 L3.24341739,9.78593979 L-0.5,13.1134219 L-0.5,-1.11342192 L10.3150997,8.5 L5.94609079,8.5 Z"></path>
                            </g>
                        </g>
                    </g>
                </g>
                <g id="Group-31" transform="translate(525.000000, 47.000000)">
                    <text id="2.-Hover-trigger-adj" font-family="PingFangSC-Regular, PingFang SC" font-size="12" font-weight="normal" line-spacing="18" fill="#888888">
                        <tspan x="0" y="96">2. Hover trigger adjustment button (at this time should </tspan>
                        <tspan x="0" y="114">be prohibited down operation)</tspan>
                    </text>
                    <g id="Group">
                        <rect id="Rectangle-4" stroke="#FF4742" fill="#FFF1F0" x="68" y="0" width="150" height="40" rx="2"></rect>
                        <g id="Cursor-/-Not-Allowed" transform="translate(187.000000, 31.000000)">
                            <g id="Group-3">
                                <g id="Default">
                                    <use fill="black" fill-opacity="1" filter="url(#filter-8)" xlink:href="#path-7"></use>
                                    <use fill="#000000" fill-rule="evenodd" xlink:href="#path-7"></use>
                                    <path stroke="#FFFFFF" stroke-width="1" d="M3.57765579,8.5 L-0.5,13.3776592 L-0.5,-1.20710678 L9.20710678,8.5 L3.57765579,8.5 Z"></path>
                                </g>
                                <g id="Oval-1">
                                    <use fill="black" fill-opacity="1" filter="url(#filter-10)" xlink:href="#path-9"></use>
                                    <use fill="#FFFFFF" fill-rule="evenodd" xlink:href="#path-9"></use>
                                </g>
                            </g>
                        </g>
                        <text id="折扣范围：60%---90%" font-family="PingFangTC-Regular, PingFang TC" font-size="12" font-weight="normal" line-spacing="18" fill="#FF4742">
                            <tspan x="68" y="61">折扣范围：</tspan>
                            <tspan x="128" y="61" font-family="Roboto-Regular, Roboto">60% - 90%</tspan>
                        </text>
                        <text id="20" font-family="Roboto-Regular, Roboto" font-size="14" font-weight="normal" line-spacing="21" fill="#333333">
                            <tspan x="80" y="23">20</tspan>
                        </text>
                        <text id="%" font-family="Roboto-Regular, Roboto" font-size="14" font-weight="normal" line-spacing="21" fill="#BBBBBB">
                            <tspan x="195" y="23">%</tspan>
                        </text>
                        <g id="Group-3" transform="translate(181.000000, 11.000000)">
                            <path d="M4.35355339,15.6464466 L8,19.2928932 L0,19.2928932 L3.64644661,15.6464466 L3.64644661,15.6464466 C3.84170876,15.4511845 4.15829124,15.4511845 4.35355339,15.6464466 Z" id="Triangle" fill="#CCCCCC" transform="translate(4.000000, 17.396447) scale(1, -1) translate(-4.000000, -17.396447) "></path>
                            <path d="M4.35355339,0.853553391 L8,4.5 L0,4.5 L3.64644661,0.853553391 L3.64644661,0.853553391 C3.84170876,0.658291245 4.15829124,0.658291245 4.35355339,0.853553391 Z" id="Triangle" fill="#888888"></path>
                        </g>
                        <text id="活动折扣" font-family="PingFangSC-Regular, PingFang SC" font-size="14" font-weight="normal" line-spacing="21" fill="#333333">
                            <tspan x="0" y="25">活动折扣</tspan>
                        </text>
                    </g>
                </g>
            </g>
        </g>
    </g>
</svg>