<?xml version="1.0" encoding="UTF-8"?>
<svg width="900px" height="414px" viewBox="0 0 900 414" version="1.1" xmlns="http://www.w3.org/2000/svg" xmlns:xlink="http://www.w3.org/1999/xlink">
    <!-- Generator: Sketch 47.1 (45422) - http://www.bohemiancoding.com/sketch -->
    <title>Group 33</title>
    <desc>Created with Sketch.</desc>
    <defs>
        <rect id="path-1" x="0" y="0" width="100" height="40" rx="2"></rect>
        <rect id="path-2" x="0" y="0" width="100" height="40" rx="2"></rect>
        <rect id="path-3" x="0" y="0" width="100" height="40" rx="2"></rect>
        <rect id="path-4" x="0" y="0" width="100" height="40" rx="2"></rect>
        <rect id="path-5" x="0" y="0" width="100" height="40" rx="2"></rect>
        <rect id="path-6" x="0" y="0" width="100" height="40" rx="2"></rect>
    </defs>
    <g id="Final" stroke="none" stroke-width="1" fill="none" fill-rule="evenodd">
        <g id="v1.0.0" transform="translate(-715.000000, -3509.000000)">
            <g id="Group-33" transform="translate(715.000000, 3509.000000)">
                <g id="Group-19">
                    <rect id="Rectangle-2" fill="#FAFAFA" x="0" y="0" width="900" height="352"></rect>
                    <text id="Digital-adjustment-b" font-family="PingFangSC-Regular, PingFang SC" font-size="12" font-weight="normal" line-spacing="18" fill="#888888">
                        <tspan x="0" y="375">Digital adjustment button:</tspan>
                        <tspan x="0" y="393">Size 12px (normal state) 16px (hover state)</tspan>
                        <tspan x="0" y="411">Color: G70 (normal state) G90 (hover state) G50 (prohibited state)</tspan>
                    </text>
                </g>
                <g id="Group-20" transform="translate(111.000000, 42.000000)">
                    <g id="Group" transform="translate(440.000000, 25.000000)">
                        <g id="Rectangle-4">
                            <use fill="#FFFFFF" fill-rule="evenodd" xlink:href="#path-1"></use>
                            <rect stroke="#BBBBBB" stroke-width="1" x="0.5" y="0.5" width="99" height="39" rx="2"></rect>
                        </g>
                        <text id="3" font-family="Roboto-Regular, Roboto" font-size="14" font-weight="normal" line-spacing="21" fill="#333333">
                            <tspan x="12" y="23">3</tspan>
                        </text>
                        <rect id="Rectangle-3" fill-opacity="0.3" fill="#55CC77" x="12" y="10" width="37" height="20"></rect>
                        <g id="Group-2" transform="translate(61.000000, 20.000000) scale(1, -1) translate(-61.000000, -20.000000) translate(57.000000, 8.000000)" fill="#888888">
                            <path d="M4.35355339,0.853553391 L8,4.5 L0,4.5 L3.64644661,0.853553391 L3.64644661,0.853553391 C3.84170876,0.658291245 4.15829124,0.658291245 4.35355339,0.853553391 Z" id="Triangle"></path>
                            <path d="M4.35355339,19.6464466 L8,23.2928932 L0,23.2928932 L3.64644661,19.6464466 L3.64644661,19.6464466 C3.84170876,19.4511845 4.15829124,19.4511845 4.35355339,19.6464466 Z" id="Triangle" transform="translate(4.000000, 21.396447) scale(1, -1) translate(-4.000000, -21.396447) "></path>
                        </g>
                        <rect id="overlay" fill-opacity="0.3" fill="#FF8100" x="49" y="0" width="24" height="40"></rect>
                        <text id="天" font-family="PingFangSC-Regular, PingFang SC" font-size="14" font-weight="normal" line-spacing="21" fill="#BBBBBB">
                            <tspan x="74" y="25">天</tspan>
                        </text>
                        <rect id="overlay" fill-opacity="0.3" fill="#FF5500" x="88" y="0" width="12" height="40"></rect>
                    </g>
                    <g id="Group" transform="translate(0.000000, 25.000000)">
                        <g id="Rectangle-4">
                            <use fill="#FFFFFF" fill-rule="evenodd" xlink:href="#path-2"></use>
                            <rect stroke="#E8E8E8" stroke-width="1" x="0.5" y="0.5" width="99" height="39" rx="2"></rect>
                        </g>
                        <rect id="overlay" fill-opacity="0.3" fill="#FF8100" x="0" y="0" width="12" height="40"></rect>
                        <text id="100" font-family="Roboto-Regular, Roboto" font-size="14" font-weight="normal" line-spacing="21" fill="#333333">
                            <tspan x="12" y="23">100</tspan>
                        </text>
                        <rect id="Rectangle-3" fill-opacity="0.3" fill="#55CC77" x="12" y="10" width="58" height="20"></rect>
                    </g>
                    <g id="Group-7" transform="translate(216.000000, 0.000000)">
                        <g id="Group-14" transform="translate(0.000000, 25.000000)">
                            <g id="Rectangle-4">
                                <use fill="#FFFFFF" fill-rule="evenodd" xlink:href="#path-3"></use>
                                <rect stroke="#BBBBBB" stroke-width="1" x="0.5" y="0.5" width="99" height="39" rx="2"></rect>
                            </g>
                            <g id="Group-2" transform="translate(88.000000, 20.000000) scale(1, -1) translate(-88.000000, -20.000000) translate(84.000000, 8.000000)" fill="#888888">
                                <path d="M4.35355339,0.853553391 L8,4.5 L0,4.5 L3.64644661,0.853553391 L3.64644661,0.853553391 C3.84170876,0.658291245 4.15829124,0.658291245 4.35355339,0.853553391 Z" id="Triangle"></path>
                                <path d="M4.35355339,19.6464466 L8,23.2928932 L0,23.2928932 L3.64644661,19.6464466 L3.64644661,19.6464466 C3.84170876,19.4511845 4.15829124,19.4511845 4.35355339,19.6464466 Z" id="Triangle" transform="translate(4.000000, 21.396447) scale(1, -1) translate(-4.000000, -21.396447) "></path>
                            </g>
                            <text id="100" font-family="Roboto-Regular, Roboto" font-size="14" font-weight="normal" line-spacing="21" fill="#333333">
                                <tspan x="12" y="23">100</tspan>
                            </text>
                        </g>
                        <rect id="Rectangle-3" fill-opacity="0.3" fill="#55CC77" x="12" y="35" width="63" height="20"></rect>
                        <rect id="overlay" fill-opacity="0.3" fill="#FF8100" x="75" y="25" width="24" height="40"></rect>
                        <g id="Group-4" transform="translate(74.000000, 0.000000)">
                            <text id="24px" font-family="Roboto-Regular, Roboto" font-size="12" font-weight="normal" fill="#FF5722">
                                <tspan x="0.465820312" y="11">24px</tspan>
                            </text>
                            <g id="WIDTH#37FFF9E4-9482-43DE-97B5-BB9337A97BA1" transform="translate(2.000000, 19.000000)" fill="#FF5500">
                                <rect id="ruler-start" x="0" y="0" width="1" height="5"></rect>
                                <rect id="ruler-end" x="23" y="0" width="1" height="5"></rect>
                                <rect id="ruler-line" x="0" y="2" width="24" height="1"></rect>
                            </g>
                        </g>
                    </g>
                    <path d="M5.95222867,65.1963368 L5.95222867,130.735227" id="Path-3" stroke="#FF8100"></path>
                    <path id="Path-3-decoration-1" d="M8.95222867,65.1963368 L2.95222867,65.1963368" stroke="#FF8100"></path>
                    <path d="M231,55 L231,130.540001" id="Path-3" stroke="#55CC77"></path>
                    <path id="Path-3-decoration-1" d="M234,55 L228,55" stroke="#55CC77"></path>
                    <polyline id="Path-3" stroke="#55CC77" points="41 55 41 121 231.109048 121"></polyline>
                    <path id="Path-3-decoration-1" d="M44,55 L38,55" stroke="#55CC77"></path>
                    <polyline id="Path-3" stroke="#55CC77" transform="translate(350.554524, 88.000000) scale(-1, 1) translate(-350.554524, -88.000000) " points="231.109048 55 231.109048 121 470 121"></polyline>
                    <path id="Path-3-decoration-1" d="M234.109048,55 L228.109048,55" stroke="#55CC77"></path>
                    <text id="The-left-margin-depe" font-family="PingFangSC-Regular, PingFang SC" font-size="12" font-weight="normal" line-spacing="18" fill="#FF8100">
                        <tspan x="0" y="142">The left margin depends </tspan>
                        <tspan x="0" y="160">on the text box size</tspan>
                    </text>
                    <path d="M533.952229,65.1963368 L533.952229,130.735227" id="Path-3" stroke="#FF8100"></path>
                    <path id="Path-3-decoration-1" d="M536.952229,65.1963368 L530.952229,65.1963368" stroke="#FF8100"></path>
                    <text id="The-right-margin-dep" font-family="PingFangSC-Regular, PingFang SC" font-size="12" font-weight="normal" line-spacing="18" fill="#FF8100">
                        <tspan x="511" y="142">The right margin depends on the </tspan>
                        <tspan x="511" y="160">size of the text box</tspan>
                    </text>
                    <text id="Text-content-area" font-family="PingFangSC-Regular, PingFang SC" font-size="12" font-weight="normal" line-spacing="18" fill="#55CC77">
                        <tspan x="202" y="142">Text content area</tspan>
                    </text>
                </g>
                <g id="Group-32" transform="translate(116.000000, 256.000000)">
                    <g id="Group-11">
                        <g id="Group-14">
                            <g id="Rectangle-4">
                                <use fill="#FFFFFF" fill-rule="evenodd" xlink:href="#path-4"></use>
                                <rect stroke="#BBBBBB" stroke-width="1" x="0.5" y="0.5" width="99" height="39" rx="2"></rect>
                            </g>
                            <g id="Group-2" transform="translate(88.000000, 20.000000) scale(1, -1) translate(-88.000000, -20.000000) translate(84.000000, 9.000000)" fill="#888888">
                                <path d="M4.35355339,0.853553391 L8,4.5 L0,4.5 L3.64644661,0.853553391 L3.64644661,0.853553391 C3.84170876,0.658291245 4.15829124,0.658291245 4.35355339,0.853553391 Z" id="Triangle"></path>
                                <path d="M4.35355339,17.6464466 L8,21.2928932 L0,21.2928932 L3.64644661,17.6464466 L3.64644661,17.6464466 C3.84170876,17.4511845 4.15829124,17.4511845 4.35355339,17.6464466 Z" id="Triangle" transform="translate(4.000000, 19.396447) scale(1, -1) translate(-4.000000, -19.396447) "></path>
                            </g>
                            <text id="100" font-family="Roboto-Regular, Roboto" font-size="14" font-weight="normal" line-spacing="21" fill="#333333">
                                <tspan x="12" y="23">100</tspan>
                            </text>
                        </g>
                        <g id="Group-17" transform="translate(274.000000, 0.000000)">
                            <g id="Rectangle-4">
                                <use fill="#FFFFFF" fill-rule="evenodd" xlink:href="#path-5"></use>
                                <rect stroke="#E8E8E8" stroke-width="1" x="0.5" y="0.5" width="99" height="39" rx="2"></rect>
                            </g>
                            <g id="Group-2" transform="translate(88.000000, 20.000000) scale(1, -1) translate(-88.000000, -20.000000) translate(84.000000, 8.000000)">
                                <path d="M4.35355339,0.853553391 L8,4.5 L0,4.5 L3.64644661,0.853553391 L3.64644661,0.853553391 C3.84170876,0.658291245 4.15829124,0.658291245 4.35355339,0.853553391 Z" id="Triangle" fill="#888888"></path>
                                <path d="M4.35355339,19.6464466 L8,23.2928932 L0,23.2928932 L3.64644661,19.6464466 L3.64644661,19.6464466 C3.84170876,19.4511845 4.15829124,19.4511845 4.35355339,19.6464466 Z" id="Triangle" fill="#E8E8E8" transform="translate(4.000000, 21.396447) scale(1, -1) translate(-4.000000, -21.396447) "></path>
                            </g>
                            <text id="999" font-family="Roboto-Regular, Roboto" font-size="14" font-weight="normal" line-spacing="21" fill="#333333">
                                <tspan x="12" y="22">999</tspan>
                            </text>
                        </g>
                        <g id="Group-9" transform="translate(137.000000, 0.000000)">
                            <g id="Rectangle-4-Copy">
                                <use fill="#FFFFFF" fill-rule="evenodd" xlink:href="#path-6"></use>
                                <rect stroke="#BBBBBB" stroke-width="1" x="0.5" y="0.5" width="99" height="39" rx="2"></rect>
                            </g>
                            <text id="99" font-family="Roboto-Regular, Roboto" font-size="14" font-weight="normal" line-spacing="21" fill="#191919">
                                <tspan x="12" y="23">99</tspan>
                            </text>
                            <g id="Group-2-Copy" transform="translate(88.000000, 20.000000) scale(1, -1) translate(-88.000000, -20.000000) translate(83.000000, 8.000000)">
                                <path d="M5.35355339,0.791421356 L10,5.43786797 L0,5.43786797 L4.64644661,0.791421356 L4.64644661,0.791421356 C4.84170876,0.59615921 5.15829124,0.59615921 5.35355339,0.791421356 Z" id="Triangle" fill="#333333"></path>
                                <path d="M5.35355339,19.6464466 L9,23.2928932 L1,23.2928932 L4.64644661,19.6464466 L4.64644661,19.6464466 C4.84170876,19.4511845 5.15829124,19.4511845 5.35355339,19.6464466 Z" id="Triangle" fill="#888888" transform="translate(5.000000, 21.396447) scale(1, -1) translate(-5.000000, -21.396447) "></path>
                            </g>
                            <rect id="overlay" fill-opacity="0.3" fill="#FF5500" x="80" y="20" width="16" height="16"></rect>
                        </g>
                    </g>
                    <g id="OVERLAY#6273A4DF-7E29-4DB2-A0B9-F394D164D632" transform="translate(82.000000, 6.000000)" fill="#FF5500" fill-opacity="0.3">
                        <rect id="overlay" x="0" y="0" width="12" height="12"></rect>
                    </g>
                    <g id="OVERLAY#6273A4DF-7E29-4DB2-A0B9-F394D164D632" transform="translate(82.000000, 22.000000)" fill="#FF5500" fill-opacity="0.3">
                        <rect id="overlay" x="0" y="0" width="12" height="12"></rect>
                    </g>
                </g>
            </g>
        </g>
    </g>
</svg>