<?xml version="1.0" encoding="UTF-8"?>
<svg width="900px" height="432px" viewBox="0 0 900 432" version="1.1" xmlns="http://www.w3.org/2000/svg" xmlns:xlink="http://www.w3.org/1999/xlink">
    <!-- Generator: Sketch 47.1 (45422) - http://www.bohemiancoding.com/sketch -->
    <title>Group 25</title>
    <desc>Created with Sketch.</desc>
    <defs>
        <rect id="path-1" x="0" y="0" width="100" height="40" rx="2"></rect>
        <rect id="path-2" x="0" y="0" width="100" height="40" rx="2"></rect>
        <rect id="path-3" x="0" y="0" width="100" height="40" rx="2"></rect>
        <rect id="path-4" x="0" y="0" width="100" height="40" rx="2"></rect>
        <rect id="path-5" x="0" y="0" width="100" height="40" rx="2"></rect>
        <rect id="path-6" x="0" y="0" width="100" height="40" rx="2"></rect>
        <rect id="path-7" x="0" y="0" width="100" height="40" rx="2"></rect>
        <rect id="path-8" x="0" y="0" width="100" height="40" rx="2"></rect>
    </defs>
    <g id="Final" stroke="none" stroke-width="1" fill="none" fill-rule="evenodd">
        <g id="v1.0.0" transform="translate(-700.000000, -536.000000)">
            <g id="Group-25" transform="translate(700.000000, 536.000000)">
                <rect id="Rectangle-2" fill="#FAFAFA" x="0" y="0" width="900" height="432"></rect>
                <g id="Group" transform="translate(245.000000, 35.000000)">
                    <g id="Rectangle-4">
                        <use fill="#FFFFFF" fill-rule="evenodd" xlink:href="#path-1"></use>
                        <rect stroke="#E8E8E8" stroke-width="1" x="0.5" y="0.5" width="99" height="39" rx="2"></rect>
                    </g>
                    <text id="1" font-family="Roboto-Regular, Roboto" font-size="14" font-weight="normal" line-spacing="21" fill="#333333">
                        <tspan x="12" y="23">1</tspan>
                    </text>
                </g>
                <g id="Group-14" transform="translate(245.000000, 100.000000)">
                    <g id="Rectangle-4">
                        <use fill="#FFFFFF" fill-rule="evenodd" xlink:href="#path-2"></use>
                        <rect stroke="#BBBBBB" stroke-width="1" x="0.5" y="0.5" width="99" height="39" rx="2"></rect>
                    </g>
                    <g id="Group-2" transform="translate(88.000000, 20.000000) scale(1, -1) translate(-88.000000, -20.000000) translate(84.000000, 8.000000)" fill="#888888">
                        <path d="M4.35355339,0.853553391 L8,4.5 L0,4.5 L3.64644661,0.853553391 L3.64644661,0.853553391 C3.84170876,0.658291245 4.15829124,0.658291245 4.35355339,0.853553391 Z" id="Triangle"></path>
                        <path d="M4.35355339,19.6464466 L8,23.2928932 L0,23.2928932 L3.64644661,19.6464466 L3.64644661,19.6464466 C3.84170876,19.4511845 4.15829124,19.4511845 4.35355339,19.6464466 Z" id="Triangle" transform="translate(4.000000, 21.396447) scale(1, -1) translate(-4.000000, -21.396447) "></path>
                    </g>
                    <text id="1" font-family="Roboto-Regular, Roboto" font-size="14" font-weight="normal" line-spacing="21" fill="#333333">
                        <tspan x="12" y="23">1</tspan>
                    </text>
                </g>
                <g id="Group-5" transform="translate(245.000000, 150.000000)">
                    <rect id="Rectangle-4" fill="#E8E8E8" x="0" y="0" width="100" height="40"></rect>
                    <rect id="Rectangle-4" fill="#50E3C2" x="0" y="0" width="76" height="40"></rect>
                </g>
                <g id="Group-5" transform="translate(382.000000, 150.000000)">
                    <rect id="Rectangle-4" fill="#E8E8E8" x="0" y="0" width="100" height="40"></rect>
                    <rect id="Rectangle-4" fill="#50E3C2" transform="translate(88.000000, 30.000000) scale(-1, 1) translate(-88.000000, -30.000000) " x="76" y="20" width="24" height="20"></rect>
                </g>
                <g id="Group-5" transform="translate(520.000000, 150.000000)">
                    <rect id="Rectangle-4" fill="#E8E8E8" x="0" y="0" width="100" height="40"></rect>
                    <rect id="Rectangle-4" fill="#50E3C2" transform="translate(88.000000, 10.000000) scale(-1, 1) translate(-88.000000, -10.000000) " x="76" y="0" width="24" height="20"></rect>
                </g>
                <g id="Group-13" transform="translate(245.000000, 215.000000)">
                    <g id="Rectangle-4">
                        <use fill="#FFFFFF" fill-rule="evenodd" xlink:href="#path-3"></use>
                        <rect stroke="#BBBBBB" stroke-width="1" x="0.5" y="0.5" width="99" height="39" rx="2"></rect>
                    </g>
                    <text id="6" font-family="Roboto-Regular, Roboto" font-size="14" font-weight="normal" line-spacing="21" fill="#191919">
                        <tspan x="12" y="23">6</tspan>
                    </text>
                    <path d="M21,11 L21,29" id="Line" stroke="#212121" stroke-linecap="square"></path>
                </g>
                <text id="Normal" font-family="PingFangSC-Regular, PingFang SC" font-size="14" font-weight="normal" line-spacing="21" fill="#555555">
                    <tspan x="126" y="59">Normal</tspan>
                </text>
                <text id="Hover" font-family="PingFangSC-Regular, PingFang SC" font-size="14" font-weight="normal" line-spacing="21" fill="#555555">
                    <tspan x="126" y="125">Hover</tspan>
                </text>
                <text id="（Hover-area）" font-family="PingFangSC-Regular, PingFang SC" font-size="12" font-weight="normal" line-spacing="18" fill="#888888">
                    <tspan x="126" y="174">（Hover area）</tspan>
                </text>
                <text id="Focus" font-family="PingFangSC-Regular, PingFang SC" font-size="14" font-weight="normal" line-spacing="21" fill="#555555">
                    <tspan x="126" y="240">Focus</tspan>
                </text>
                <text id="Disabled" font-family="PingFangSC-Regular, PingFang SC" font-size="14" font-weight="normal" line-spacing="21" fill="#555555">
                    <tspan x="126" y="305">Disabled</tspan>
                </text>
                <g id="Group-17" transform="translate(245.000000, 280.000000)">
                    <g id="Rectangle-4">
                        <use fill="#FAFAFA" fill-rule="evenodd" xlink:href="#path-4"></use>
                        <rect stroke="#E8E8E8" stroke-width="1" x="0.5" y="0.5" width="99" height="39" rx="2"></rect>
                    </g>
                    <text id="6" font-family="Roboto-Regular, Roboto" font-size="14" font-weight="normal" line-spacing="21" fill="#CCCCCC">
                        <tspan x="12" y="22">6</tspan>
                    </text>
                </g>
                <text id="Prohibited" font-family="PingFangSC-Regular, PingFang SC" font-size="14" font-weight="normal" line-spacing="21" fill="#555555">
                    <tspan x="126" y="371">Prohibited</tspan>
                </text>
                <g id="Group-17" transform="translate(245.000000, 345.000000)">
                    <g id="Rectangle-4">
                        <use fill="#FFFFFF" fill-rule="evenodd" xlink:href="#path-5"></use>
                        <rect stroke="#E8E8E8" stroke-width="1" x="0.5" y="0.5" width="99" height="39" rx="2"></rect>
                    </g>
                    <g id="Group-2" transform="translate(88.000000, 20.000000) scale(1, -1) translate(-88.000000, -20.000000) translate(84.000000, 8.000000)">
                        <path d="M4.35355339,0.853553391 L8,4.5 L0,4.5 L3.64644661,0.853553391 L3.64644661,0.853553391 C3.84170876,0.658291245 4.15829124,0.658291245 4.35355339,0.853553391 Z" id="Triangle" fill="#888888"></path>
                        <path d="M4.35355339,19.6464466 L8,23.2928932 L0,23.2928932 L3.64644661,19.6464466 L3.64644661,19.6464466 C3.84170876,19.4511845 4.15829124,19.4511845 4.35355339,19.6464466 Z" id="Triangle" fill="#E8E8E8" transform="translate(4.000000, 21.396447) scale(1, -1) translate(-4.000000, -21.396447) "></path>
                    </g>
                    <text id="6" font-family="Roboto-Regular, Roboto" font-size="14" font-weight="normal" line-spacing="21" fill="#333333">
                        <tspan x="12" y="22">6</tspan>
                    </text>
                </g>
                <g id="Group-17" transform="translate(382.000000, 345.000000)">
                    <g id="Rectangle-4">
                        <use fill="#FFFFFF" fill-rule="evenodd" xlink:href="#path-6"></use>
                        <rect stroke="#E8E8E8" stroke-width="1" x="0.5" y="0.5" width="99" height="39" rx="2"></rect>
                    </g>
                    <g id="Group-2" transform="translate(84.000000, 8.000000)">
                        <path d="M4.35355339,0.853553391 L8,4.5 L0,4.5 L3.64644661,0.853553391 L3.64644661,0.853553391 C3.84170876,0.658291245 4.15829124,0.658291245 4.35355339,0.853553391 Z" id="Triangle" fill="#888888"></path>
                        <path d="M4.35355339,19.6464466 L8,23.2928932 L0,23.2928932 L3.64644661,19.6464466 L3.64644661,19.6464466 C3.84170876,19.4511845 4.15829124,19.4511845 4.35355339,19.6464466 Z" id="Triangle" fill="#E8E8E8" transform="translate(4.000000, 21.396447) scale(1, -1) translate(-4.000000, -21.396447) "></path>
                    </g>
                    <text id="6" font-family="Roboto-Regular, Roboto" font-size="14" font-weight="normal" line-spacing="21" fill="#333333">
                        <tspan x="12" y="22">6</tspan>
                    </text>
                </g>
                <g id="Group-9" transform="translate(382.000000, 100.000000)">
                    <g id="Rectangle-4-Copy">
                        <use fill="#FFFFFF" fill-rule="evenodd" xlink:href="#path-7"></use>
                        <rect stroke="#BBBBBB" stroke-width="1" x="0.5" y="0.5" width="99" height="39" rx="2"></rect>
                    </g>
                    <text id="0" font-family="Roboto-Regular, Roboto" font-size="14" font-weight="normal" line-spacing="21" fill="#191919">
                        <tspan x="12" y="23">0</tspan>
                    </text>
                    <g id="Group-2-Copy" transform="translate(88.000000, 20.000000) scale(1, -1) translate(-88.000000, -20.000000) translate(83.000000, 8.000000)">
                        <path d="M5.35355339,0.791421356 L10,5.43786797 L0,5.43786797 L4.64644661,0.791421356 L4.64644661,0.791421356 C4.84170876,0.59615921 5.15829124,0.59615921 5.35355339,0.791421356 Z" id="Triangle" fill="#333333"></path>
                        <path d="M5.35355339,19.6464466 L9,23.2928932 L1,23.2928932 L4.64644661,19.6464466 L4.64644661,19.6464466 C4.84170876,19.4511845 5.15829124,19.4511845 5.35355339,19.6464466 Z" id="Triangle" fill="#888888" transform="translate(5.000000, 21.396447) scale(1, -1) translate(-5.000000, -21.396447) "></path>
                    </g>
                </g>
                <g id="Group-10" transform="translate(520.000000, 100.000000)">
                    <g id="Rectangle-4-Copy-2">
                        <use fill="#FFFFFF" fill-rule="evenodd" xlink:href="#path-8"></use>
                        <rect stroke="#BBBBBB" stroke-width="1" x="0.5" y="0.5" width="99" height="39" rx="2"></rect>
                    </g>
                    <text id="2" font-family="Roboto-Regular, Roboto" font-size="14" font-weight="normal" line-spacing="21" fill="#191919">
                        <tspan x="12" y="23">2</tspan>
                    </text>
                    <g id="Group-2-Copy-2" transform="translate(88.000000, 19.500000) scale(1, -1) translate(-88.000000, -19.500000) translate(83.000000, 7.000000)">
                        <path d="M5.35355339,0.836294492 L9,4.4827411 L1,4.4827411 L4.64644661,0.836294492 L4.64644661,0.836294492 C4.84170876,0.641032346 5.15829124,0.641032346 5.35355339,0.836294492 Z" id="Triangle" fill="#888888"></path>
                        <path d="M5.35355339,19.6464466 L10,24.2928932 L0,24.2928932 L4.64644661,19.6464466 L4.64644661,19.6464466 C4.84170876,19.4511845 5.15829124,19.4511845 5.35355339,19.6464466 Z" id="Triangle" fill="#333333" transform="translate(5.000000, 21.896447) scale(1, -1) translate(-5.000000, -21.896447) "></path>
                    </g>
                </g>
            </g>
        </g>
    </g>
</svg>