<?xml version="1.0" encoding="UTF-8"?>
<svg width="483px" height="161px" viewBox="0 0 483 161" version="1.1" xmlns="http://www.w3.org/2000/svg" xmlns:xlink="http://www.w3.org/1999/xlink">
    <!-- Generator: Sketch 47.1 (45422) - http://www.bohemiancoding.com/sketch -->
    <title>Group 65</title>
    <desc>Created with Sketch.</desc>
    <defs>
        <path d="M2,0 L200,0 L200,56 L2,56 L2,56 C0.8954305,56 1.3527075e-16,55.1045695 0,54 L0,2 L0,2 C-1.3527075e-16,0.8954305 0.8954305,2.02906125e-16 2,0 Z" id="path-1"></path>
        <filter x="-0.5%" y="-1.8%" width="101.0%" height="103.6%" filterUnits="objectBoundingBox" id="filter-2">
            <feGaussianBlur stdDeviation="0.5" in="SourceAlpha" result="shadowBlurInner1"></feGaussianBlur>
            <feOffset dx="0" dy="1" in="shadowBlurInner1" result="shadowOffsetInner1"></feOffset>
            <feComposite in="shadowOffsetInner1" in2="SourceAlpha" operator="arithmetic" k2="-1" k3="1" result="shadowInnerInner1"></feComposite>
            <feColorMatrix values="0 0 0 0 0   0 0 0 0 0   0 0 0 0 0  0 0 0 0.05 0" type="matrix" in="shadowInnerInner1"></feColorMatrix>
        </filter>
        <path d="M2,0 L200,0 L200,56 L2,56 L2,56 C0.8954305,56 1.3527075e-16,55.1045695 0,54 L0,2 L0,2 C-1.3527075e-16,0.8954305 0.8954305,2.02906125e-16 2,0 Z" id="path-3"></path>
    </defs>
    <g id="History" stroke="none" stroke-width="1" fill="none" fill-rule="evenodd">
        <g id="V0.9.1" transform="translate(-800.000000, -1673.000000)">
            <g id="Group-3" transform="translate(106.000000, 1199.000000)">
                <g id="Group-65" transform="translate(694.000000, 474.000000)">
                    <rect id="Rectangle-3" fill="#FAFAFA" x="0" y="0" width="483" height="135"></rect>
                    <g id="Group-17" transform="translate(54.000000, 40.000000)">
                        <g id="Rectangle-2">
                            <use fill="#FFFFFF" fill-rule="evenodd" xlink:href="#path-1"></use>
                            <use fill-opacity="0.0600000024" fill="#000000" fill-rule="evenodd" xlink:href="#path-1"></use>
                            <use fill="black" fill-opacity="1" filter="url(#filter-2)" xlink:href="#path-1"></use>
                            <path stroke="#DBDBDB" stroke-width="1" d="M199.5,55.5 L199.5,0.5 L2,0.5 C1.17157288,0.5 0.5,1.17157288 0.5,2 L0.5,54 C0.5,54.8284271 1.17157288,55.5 2,55.5 L199.5,55.5 Z"></path>
                        </g>
                        <text id="Choos-A" font-family="Roboto-Medium, Roboto" font-size="14" font-weight="400" line-spacing="21" fill="#555555">
                            <tspan x="73.5585938" y="22">Choos A</tspan>
                        </text>
                        <text id="Description-text-is" opacity="0.900000036" font-family="Roboto-Regular, Roboto" font-size="11" font-weight="normal" line-spacing="16" fill="#555555">
                            <tspan x="44.0251465" y="42">Description text is here</tspan>
                        </text>
                    </g>
                    <g id="Group-17" transform="translate(253.000000, 40.000000)">
                        <g id="Rectangle-2" transform="translate(100.000000, 28.000000) scale(-1, 1) translate(-100.000000, -28.000000) ">
                            <use fill="#FFFFFF" fill-rule="evenodd" xlink:href="#path-3"></use>
                            <path stroke="#DBDBDB" stroke-width="1" d="M199.5,55.5 L199.5,0.5 L2,0.5 C1.17157288,0.5 0.5,1.17157288 0.5,2 L0.5,54 C0.5,54.8284271 1.17157288,55.5 2,55.5 L199.5,55.5 Z"></path>
                        </g>
                        <text id="Choose-B" font-family="Roboto-Medium, Roboto" font-size="14" font-weight="400" line-spacing="21" fill="#555555">
                            <tspan x="70.0449219" y="22">Choose B</tspan>
                        </text>
                        <text id="Description-text-is" opacity="0.900000036" font-family="Roboto-Regular, Roboto" font-size="11" font-weight="normal" line-spacing="16" fill="#555555">
                            <tspan x="44.0251465" y="42">Description text is here</tspan>
                        </text>
                    </g>
                    <text id="HORIZONTAL" font-family="Roboto-Regular, Roboto" font-size="14" font-weight="normal" fill="#888888">
                        <tspan x="199" y="160">HORIZONTAL</tspan>
                    </text>
                </g>
            </g>
        </g>
    </g>
</svg>