<?xml version="1.0" encoding="UTF-8"?>
<svg width="851px" height="202px" viewBox="0 0 851 202" version="1.1" xmlns="http://www.w3.org/2000/svg" xmlns:xlink="http://www.w3.org/1999/xlink">
    <!-- Generator: Sketch 47.1 (45422) - http://www.bohemiancoding.com/sketch -->
    <title>Group 66</title>
    <desc>Created with Sketch.</desc>
    <defs>
        <path d="M2,0 L95,0 L95,40 L2,40 L2,40 C0.8954305,40 1.3527075e-16,39.1045695 0,38 L0,2 L0,2 C-1.3527075e-16,0.8954305 0.8954305,2.02906125e-16 2,0 Z" id="path-1"></path>
        <rect id="path-2" x="0" y="0" width="62" height="40"></rect>
        <path d="M0,0 L62,0 L62,0 C63.1045695,3.72131305e-15 64,0.8954305 64,2 L64,38 L64,38 C64,39.1045695 63.1045695,40 62,40 L0,40 L0,0 Z" id="path-3"></path>
        <path d="M2,0 L95,0 L95,40 L2,40 L2,40 C0.8954305,40 1.3527075e-16,39.1045695 0,38 L0,2 L0,2 C-1.3527075e-16,0.8954305 0.8954305,2.02906125e-16 2,0 Z" id="path-4"></path>
        <filter x="-1.1%" y="-2.5%" width="102.1%" height="105.0%" filterUnits="objectBoundingBox" id="filter-5">
            <feGaussianBlur stdDeviation="0.5" in="SourceAlpha" result="shadowBlurInner1"></feGaussianBlur>
            <feOffset dx="0" dy="1" in="shadowBlurInner1" result="shadowOffsetInner1"></feOffset>
            <feComposite in="shadowOffsetInner1" in2="SourceAlpha" operator="arithmetic" k2="-1" k3="1" result="shadowInnerInner1"></feComposite>
            <feColorMatrix values="0 0 0 0 0   0 0 0 0 0   0 0 0 0 0  0 0 0 0.05 0" type="matrix" in="shadowInnerInner1"></feColorMatrix>
        </filter>
        <rect id="path-6" x="0" y="0" width="62" height="40"></rect>
        <path d="M0,0 L62,0 L62,0 C63.1045695,3.72131305e-15 64,0.8954305 64,2 L64,38 L64,38 C64,39.1045695 63.1045695,40 62,40 L0,40 L0,0 Z" id="path-7"></path>
        <path d="M2,0 L95,0 L95,40 L2,40 L2,40 C0.8954305,40 1.3527075e-16,39.1045695 0,38 L0,2 L0,2 C-1.3527075e-16,0.8954305 0.8954305,2.02906125e-16 2,0 Z" id="path-8"></path>
        <filter x="-1.1%" y="-2.5%" width="102.1%" height="105.0%" filterUnits="objectBoundingBox" id="filter-9">
            <feGaussianBlur stdDeviation="0.5" in="SourceAlpha" result="shadowBlurInner1"></feGaussianBlur>
            <feOffset dx="0" dy="1" in="shadowBlurInner1" result="shadowOffsetInner1"></feOffset>
            <feComposite in="shadowOffsetInner1" in2="SourceAlpha" operator="arithmetic" k2="-1" k3="1" result="shadowInnerInner1"></feComposite>
            <feColorMatrix values="0 0 0 0 0   0 0 0 0 0   0 0 0 0 0  0 0 0 0.05 0" type="matrix" in="shadowInnerInner1"></feColorMatrix>
        </filter>
        <rect id="path-10" x="0" y="0" width="62" height="40"></rect>
        <path d="M0,0 L62,0 L62,0 C63.1045695,3.72131305e-15 64,0.8954305 64,2 L64,38 L64,38 C64,39.1045695 63.1045695,40 62,40 L0,40 L0,0 Z" id="path-11"></path>
    </defs>
    <g id="History" stroke="none" stroke-width="1" fill="none" fill-rule="evenodd">
        <g id="V0.9.1" transform="translate(-800.000000, -1272.000000)">
            <g id="Group-3" transform="translate(106.000000, 1199.000000)">
                <g id="Group-66" transform="translate(694.000000, 73.000000)">
                    <g id="Group-17" transform="translate(334.000000, 0.000000)">
                        <g id="Rectangle-2">
                            <use fill="#FFFFFF" fill-rule="evenodd" xlink:href="#path-1"></use>
                            <path stroke="#DBDBDB" stroke-width="1" d="M94.5,39.5 L94.5,0.5 L2,0.5 C1.17157288,0.5 0.5,1.17157288 0.5,2 L0.5,38 C0.5,38.8284271 1.17157288,39.5 2,39.5 L94.5,39.5 Z"></path>
                        </g>
                        <text id="Cinderella" font-family="Roboto-Medium, Roboto" font-size="14" font-weight="400" line-spacing="21" fill="#555555">
                            <tspan x="16.0273438" y="22">Cinderella</tspan>
                        </text>
                        <g id="Group-41" transform="translate(94.000000, 0.000000)">
                            <g id="Rectangle-2">
                                <use fill="#FFFFFF" fill-rule="evenodd" xlink:href="#path-2"></use>
                                <rect stroke="#DBDBDB" stroke-width="1" x="0.5" y="0.5" width="61" height="39"></rect>
                            </g>
                            <text id="Ariel" font-family="Roboto-Medium, Roboto" font-size="14" font-weight="400" line-spacing="21" fill="#555555">
                                <tspan x="16.0488281" y="22">Ariel</tspan>
                            </text>
                        </g>
                        <g id="Group-41" transform="translate(155.000000, 0.000000)">
                            <g id="Rectangle-2">
                                <use fill="#FFFFFF" fill-rule="evenodd" xlink:href="#path-3"></use>
                                <path stroke="#DBDBDB" stroke-width="1" d="M0.5,0.5 L0.5,39.5 L62,39.5 C62.8284271,39.5 63.5,38.8284271 63.5,38 L63.5,2 C63.5,1.17157288 62.8284271,0.5 62,0.5 L0.5,0.5 Z"></path>
                            </g>
                            <text id="Belle" font-family="Roboto-Medium, Roboto" font-size="14" font-weight="400" line-spacing="21" fill="#555555">
                                <tspan x="16.4960938" y="22">Belle</tspan>
                            </text>
                        </g>
                    </g>
                    <g id="Group-17" transform="translate(334.000000, 59.000000)">
                        <g id="Rectangle-2">
                            <use fill-opacity="0.0600000024" fill="#000000" fill-rule="evenodd" xlink:href="#path-4"></use>
                            <use fill="black" fill-opacity="1" filter="url(#filter-5)" xlink:href="#path-4"></use>
                            <path stroke="#DBDBDB" stroke-width="1" d="M94.5,39.5 L94.5,0.5 L2,0.5 C1.17157288,0.5 0.5,1.17157288 0.5,2 L0.5,38 C0.5,38.8284271 1.17157288,39.5 2,39.5 L94.5,39.5 Z"></path>
                        </g>
                        <text id="Cinderella" font-family="Roboto-Medium, Roboto" font-size="14" font-weight="400" line-spacing="21" fill="#555555">
                            <tspan x="16.0273438" y="22">Cinderella</tspan>
                        </text>
                        <g id="Group-41" transform="translate(94.000000, 0.000000)">
                            <g id="Rectangle-2">
                                <use fill="#FFFFFF" fill-rule="evenodd" xlink:href="#path-6"></use>
                                <rect stroke="#DBDBDB" stroke-width="1" x="0.5" y="0.5" width="61" height="39"></rect>
                            </g>
                            <text id="Ariel" font-family="Roboto-Medium, Roboto" font-size="14" font-weight="400" line-spacing="21" fill="#555555">
                                <tspan x="16.0488281" y="22">Ariel</tspan>
                            </text>
                        </g>
                        <g id="Group-41" transform="translate(155.000000, 0.000000)">
                            <g id="Rectangle-2">
                                <use fill="#FFFFFF" fill-rule="evenodd" xlink:href="#path-7"></use>
                                <path stroke="#DBDBDB" stroke-width="1" d="M0.5,0.5 L0.5,39.5 L62,39.5 C62.8284271,39.5 63.5,38.8284271 63.5,38 L63.5,2 C63.5,1.17157288 62.8284271,0.5 62,0.5 L0.5,0.5 Z"></path>
                            </g>
                            <text id="Belle" font-family="Roboto-Medium, Roboto" font-size="14" font-weight="400" line-spacing="21" fill="#555555">
                                <tspan x="16.4960938" y="22">Belle</tspan>
                            </text>
                        </g>
                    </g>
                    <g id="Group-17" transform="translate(334.000000, 119.000000)">
                        <g id="Rectangle-2">
                            <use fill="#FFFFFF" fill-rule="evenodd" xlink:href="#path-8"></use>
                            <use fill-opacity="0.0600000024" fill="#000000" fill-rule="evenodd" xlink:href="#path-8"></use>
                            <use fill="black" fill-opacity="1" filter="url(#filter-9)" xlink:href="#path-8"></use>
                            <path stroke="#DBDBDB" stroke-width="1" d="M94.5,39.5 L94.5,0.5 L2,0.5 C1.17157288,0.5 0.5,1.17157288 0.5,2 L0.5,38 C0.5,38.8284271 1.17157288,39.5 2,39.5 L94.5,39.5 Z"></path>
                        </g>
                        <text id="Cinderella" font-family="Roboto-Medium, Roboto" font-size="14" font-weight="400" line-spacing="21" fill="#CCCCCC">
                            <tspan x="16" y="22">Cinderella</tspan>
                        </text>
                        <g id="Group-41" transform="translate(94.000000, 0.000000)">
                            <g id="Rectangle-2">
                                <use fill="#FAFAFA" fill-rule="evenodd" xlink:href="#path-10"></use>
                                <rect stroke="#DBDBDB" stroke-width="1" x="0.5" y="0.5" width="61" height="39"></rect>
                            </g>
                            <text id="Ariel" font-family="Roboto-Medium, Roboto" font-size="14" font-weight="400" line-spacing="21" fill="#CCCCCC">
                                <tspan x="16" y="22">Ariel</tspan>
                            </text>
                        </g>
                        <g id="Group-41" transform="translate(155.000000, 0.000000)">
                            <g id="Rectangle-2">
                                <use fill="#FAFAFA" fill-rule="evenodd" xlink:href="#path-11"></use>
                                <path stroke="#DBDBDB" stroke-width="1" d="M0.5,0.5 L0.5,39.5 L62,39.5 C62.8284271,39.5 63.5,38.8284271 63.5,38 L63.5,2 C63.5,1.17157288 62.8284271,0.5 62,0.5 L0.5,0.5 Z"></path>
                            </g>
                            <text id="Belle" font-family="Roboto-Medium, Roboto" font-size="14" font-weight="400" line-spacing="21" fill="#CCCCCC">
                                <tspan x="16" y="22">Belle</tspan>
                            </text>
                        </g>
                    </g>
                    <text id="Nothing-Selected" font-family="Roboto-Regular, Roboto" font-size="12" font-weight="normal" line-spacing="18" fill="#888888">
                        <tspan x="0" y="21">Nothing Selected</tspan>
                    </text>
                    <text id="First-Option-Selecte" font-family="Roboto-Regular, Roboto" font-size="12" font-weight="normal" line-spacing="18" fill="#888888">
                        <tspan x="0" y="81">First Option Selected</tspan>
                    </text>
                    <text id="Whole-Group-disabled" font-family="Roboto-Regular, Roboto" font-size="12" font-weight="normal" line-spacing="18" fill="#888888">
                        <tspan x="0" y="141">Whole Group disabled with First Option Selected</tspan>
                    </text>
                    <g id="Group-65" transform="translate(632.000000, 0.000000)">
                        <g id="Group-17">
                            <path d="M94.5,39.5 L94.5,0.5 L2,0.5 C1.17157288,0.5 0.5,1.17157288 0.5,2 L0.5,38 C0.5,38.8284271 1.17157288,39.5 2,39.5 L94.5,39.5 Z" id="Rectangle-2" stroke="#FF5722"></path>
                            <text id="Cinderella" font-family="Roboto-Medium, Roboto" font-size="14" font-weight="400" line-spacing="21" fill="#FF5722">
                                <tspan x="16.0273438" y="22">Cinderella</tspan>
                            </text>
                            <g id="Group-41" transform="translate(94.000000, 0.000000)">
                                <rect id="Rectangle-2" stroke="#FF5722" x="0.5" y="0.5" width="61" height="39"></rect>
                                <text id="Ariel" font-family="Roboto-Medium, Roboto" font-size="14" font-weight="400" line-spacing="21" fill="#FF5722">
                                    <tspan x="16.0488281" y="22">Ariel</tspan>
                                </text>
                            </g>
                            <g id="Group-41" transform="translate(155.000000, 0.000000)">
                                <path d="M0.5,0.5 L0.5,39.5 L62,39.5 C62.8284271,39.5 63.5,38.8284271 63.5,38 L63.5,2 C63.5,1.17157288 62.8284271,0.5 62,0.5 L0.5,0.5 Z" id="Rectangle-2" stroke="#FF5722"></path>
                                <text id="Belle" font-family="Roboto-Medium, Roboto" font-size="14" font-weight="400" line-spacing="21" fill="#FF5722">
                                    <tspan x="16.4960938" y="22">Belle</tspan>
                                </text>
                            </g>
                        </g>
                        <g id="Group-17" transform="translate(0.000000, 61.000000)">
                            <path d="M2,0 L95,0 L95,40 L2,40 L2,40 C0.8954305,40 1.3527075e-16,39.1045695 0,38 L0,2 L0,2 C-1.3527075e-16,0.8954305 0.8954305,2.02906125e-16 2,0 Z" id="Rectangle-2" fill="#FF5722"></path>
                            <text id="Cinderella" font-family="Roboto-Medium, Roboto" font-size="14" font-weight="400" line-spacing="21" fill="#FFFFFF">
                                <tspan x="16.0273438" y="22">Cinderella</tspan>
                            </text>
                            <g id="Group-41" transform="translate(94.000000, 0.000000)">
                                <rect id="Rectangle-2" stroke="#FF5722" x="0.5" y="0.5" width="61" height="39"></rect>
                                <text id="Ariel" font-family="Roboto-Medium, Roboto" font-size="14" font-weight="400" line-spacing="21" fill="#FF5722">
                                    <tspan x="16.0488281" y="22">Ariel</tspan>
                                </text>
                            </g>
                            <g id="Group-41" transform="translate(155.000000, 0.000000)">
                                <path d="M0.5,0.5 L0.5,39.5 L62,39.5 C62.8284271,39.5 63.5,38.8284271 63.5,38 L63.5,2 C63.5,1.17157288 62.8284271,0.5 62,0.5 L0.5,0.5 Z" id="Rectangle-2" stroke="#FF5722"></path>
                                <text id="Belle" font-family="Roboto-Medium, Roboto" font-size="14" font-weight="400" line-spacing="21" fill="#FF5722">
                                    <tspan x="16.4960938" y="22">Belle</tspan>
                                </text>
                            </g>
                        </g>
                        <g id="Group-17" opacity="0.439999998" transform="translate(0.000000, 122.000000)">
                            <path d="M2,0 L95,0 L95,40 L2,40 L2,40 C0.8954305,40 1.3527075e-16,39.1045695 0,38 L0,2 L0,2 C-1.3527075e-16,0.8954305 0.8954305,2.02906125e-16 2,0 Z" id="Rectangle-2" fill="#FF5722"></path>
                            <text id="Cinderella" font-family="Roboto-Medium, Roboto" font-size="14" font-weight="400" line-spacing="21" fill="#FFFFFF">
                                <tspan x="16.0273438" y="22">Cinderella</tspan>
                            </text>
                            <g id="Group-41" transform="translate(94.000000, 0.000000)">
                                <rect id="Rectangle-2" stroke="#FF5722" x="0.5" y="0.5" width="61" height="39"></rect>
                                <text id="Ariel" font-family="Roboto-Medium, Roboto" font-size="14" font-weight="400" line-spacing="21" fill="#FF5722">
                                    <tspan x="16.0488281" y="22">Ariel</tspan>
                                </text>
                            </g>
                            <g id="Group-41" transform="translate(155.000000, 0.000000)">
                                <path d="M0.5,0.5 L0.5,39.5 L62,39.5 C62.8284271,39.5 63.5,38.8284271 63.5,38 L63.5,2 C63.5,1.17157288 62.8284271,0.5 62,0.5 L0.5,0.5 Z" id="Rectangle-2" stroke="#FF5722"></path>
                                <text id="Belle" font-family="Roboto-Medium, Roboto" font-size="14" font-weight="400" line-spacing="21" fill="#FF5722">
                                    <tspan x="16.4960938" y="22">Belle</tspan>
                                </text>
                            </g>
                        </g>
                    </g>
                    <text id="Solid-Button" font-family="Roboto-Regular, Roboto" font-size="14" font-weight="normal" fill="#888888">
                        <tspan x="395" y="201">Solid Button</tspan>
                    </text>
                    <text id="Outlined-Button" font-family="Roboto-Regular, Roboto" font-size="14" font-weight="normal" fill="#888888">
                        <tspan x="680" y="201">Outlined Button</tspan>
                    </text>
                </g>
            </g>
        </g>
    </g>
</svg>