<?xml version="1.0" encoding="UTF-8"?>
<svg width="900px" height="200px" viewBox="0 0 900 200" version="1.1" xmlns="http://www.w3.org/2000/svg" xmlns:xlink="http://www.w3.org/1999/xlink">
    <!-- Generator: Sketch 47.1 (45422) - http://www.bohemiancoding.com/sketch -->
    <title>Group 40</title>
    <desc>Created with Sketch.</desc>
    <defs>
        <rect id="path-1" x="188" y="46" width="390" height="40" rx="2"></rect>
        <rect id="path-2" x="188" y="106" width="390" height="40" rx="2"></rect>
    </defs>
    <g id="Final" stroke="none" stroke-width="1" fill="none" fill-rule="evenodd">
        <g id="V1.0.0" transform="translate(-700.000000, -2141.000000)">
            <g id="Group-40" transform="translate(700.000000, 2141.000000)">
                <rect id="Rectangle-2" fill="#FAFAFA" x="0" y="0" width="900" height="200"></rect>
                <text id="Too-long-content" font-family="PingFangSC-Regular, PingFang SC" font-size="14" font-weight="normal" line-spacing="21" fill="#555555">
                    <tspan x="46" y="72">Too long content</tspan>
                </text>
                <g id="Rectangle-4">
                    <use fill="#FFFFFF" fill-rule="evenodd" xlink:href="#path-1"></use>
                    <rect stroke="#E8E8E8" stroke-width="1" x="188.5" y="46.5" width="389" height="39" rx="2"></rect>
                </g>
                <g id="Group-4" transform="translate(586.000000, 58.000000)" fill="#888888">
                    <path d="M8,15 C11.8659932,15 15,11.8659932 15,8 C15,4.13400675 11.8659932,1 8,1 C4.13400675,1 1,4.13400675 1,8 C1,11.8659932 4.13400675,15 8,15 Z M8,16 C3.581722,16 0,12.418278 0,8 C0,3.581722 3.581722,0 8,0 C12.418278,0 16,3.581722 16,8 C16,12.418278 12.418278,16 8,16 Z" id="Oval-2" fill-rule="nonzero"></path>
                    <path d="M7,3 L9,3 L9,5 L7,5 L7,3 Z M7,7 L9,7 L9,12 L7,12 L7,7 Z" id="Combined-Shape"></path>
                </g>
                <text id="Basic-hint" font-family="PingFangSC-Regular, PingFang SC" font-size="14" font-weight="normal" line-spacing="21" fill="#555555">
                    <tspan x="94" y="132">Basic hint</tspan>
                </text>
                <g id="Rectangle-4">
                    <use fill="#FFFFFF" fill-rule="evenodd" xlink:href="#path-2"></use>
                    <rect stroke="#E8E8E8" stroke-width="1" x="188.5" y="106.5" width="389" height="39" rx="2"></rect>
                </g>
                <text id="In-general,-you-can" font-family="PingFangSC-Regular, PingFang SC" font-size="14" font-weight="normal" line-spacing="21" fill="#BBBBBB">
                    <tspan x="200" y="130">In general, you can use placeholder text as help text</tspan>
                </text>
            </g>
        </g>
    </g>
</svg>