<?xml version="1.0" encoding="UTF-8"?>
<svg width="898px" height="721px" viewBox="0 0 898 721" version="1.1" xmlns="http://www.w3.org/2000/svg" xmlns:xlink="http://www.w3.org/1999/xlink">
    <!-- Generator: Sketch 47.1 (45422) - http://www.bohemiancoding.com/sketch -->
    <title>Group 38</title>
    <desc>Created with Sketch.</desc>
    <defs>
        <rect id="path-1" x="0" y="0" width="249" height="171" rx="3"></rect>
        <rect id="path-3" x="0" y="0" width="249" height="87" rx="3"></rect>
        <rect id="path-4" x="0" y="0" width="249" height="87" rx="3"></rect>
        <rect id="path-6" x="0" y="0" width="249" height="171" rx="3"></rect>
        <rect id="path-8" x="0" y="0" width="249" height="171" rx="3"></rect>
        <rect id="path-10" x="52" y="495" width="732" height="179" rx="2"></rect>
        <rect id="path-11" x="0" y="0" width="732" height="179" rx="2"></rect>
    </defs>
    <g id="Final" stroke="none" stroke-width="1" fill="none" fill-rule="evenodd">
        <g id="V1.0.0" transform="translate(-768.000000, -3624.000000)">
            <g id="Group-38" transform="translate(768.000000, 3624.000000)">
                <rect id="Rectangle-2" fill="#FAFAFA" x="0" y="0" width="898" height="721"></rect>
                <g id="Group-19" transform="translate(51.000000, 251.000000)">
                    <g id="Group-14">
                        <mask id="mask-2" fill="white">
                            <use xlink:href="#path-1"></use>
                        </mask>
                        <g id="Rectangle-4">
                            <use fill="#FFFFFF" fill-rule="evenodd" xlink:href="#path-1"></use>
                            <rect stroke="#E8E8E8" stroke-width="1" x="-0.5" y="-0.5" width="250" height="172" rx="3"></rect>
                        </g>
                        <text id="春江潮水连海平，海上明月共潮生。滟滟随波" mask="url(#mask-2)" font-family="PingFangSC-Regular, PingFang SC" font-size="14" font-weight="normal" line-spacing="21" fill-opacity="0.8" fill="#000000">
                            <tspan x="12" y="27">春江潮水连海平，海上明月共潮生。</tspan>
                            <tspan x="12" y="48">滟滟随波千万里，何处春江无月明！</tspan>
                            <tspan x="12" y="69">江流宛转绕芳甸，月照花林皆似霰。</tspan>
                            <tspan x="12" y="90">空里流霜不觉飞，汀上白沙看不见。</tspan>
                            <tspan x="12" y="111">江天一色无纤尘，皎皎空中孤月轮。</tspan>
                            <tspan x="12" y="132">江畔何人初见月？江月何年初照人？</tspan>
                            <tspan x="12" y="153">人生代代无穷已，江月年年望相似。</tspan>
                            <tspan x="12" y="174">不知江月待何人，但见长江送流水。</tspan>
                        </text>
                        <rect id="Rectangle-5" fill="#CCCCCC" mask="url(#mask-2)" x="237" y="5" width="8" height="54" rx="4"></rect>
                        <path d="M247.100537,163.154323 C247.306302,162.948559 247.639912,162.948559 247.845677,163.154323 C248.051441,163.360088 248.051441,163.693698 247.845677,163.899463 L241.899463,169.845677 C241.693698,170.051441 241.360088,170.051441 241.154323,169.845677 C240.948559,169.639912 240.948559,169.306302 241.154323,169.100537 L247.100537,163.154323 Z M247.085302,166.07429 C247.291067,165.868526 247.624677,165.868526 247.830442,166.07429 C248.036206,166.280055 248.036206,166.613665 247.830442,166.81943 L244.849884,169.799988 C244.644119,170.005753 244.310509,170.005753 244.104744,169.799988 C243.898979,169.594223 243.898979,169.260613 244.104744,169.054848 L247.085302,166.07429 Z" id="Combined-Shape" fill-opacity="0.35" fill="#000000" fill-rule="nonzero" mask="url(#mask-2)"></path>
                    </g>
                    <g id="OVERLAY#96C8D24A-E3BC-4A51-A485-6350B1D1A5A1" fill="#FF5500" fill-opacity="0.3">
                        <rect id="overlay" x="0" y="0" width="12" height="171"></rect>
                    </g>
                    <g id="OVERLAY#96C8D24A-E3BC-4A51-A485-6350B1D1A5A1" transform="translate(237.000000, 0.000000)" fill="#FF5500" fill-opacity="0.3">
                        <rect id="overlay" x="0" y="0" width="12" height="171"></rect>
                    </g>
                    <g id="OVERLAY#DC98998F-30E2-4108-9138-5393B68BE375" fill="#FF5500" fill-opacity="0.3">
                        <rect id="overlay" x="0" y="0" width="249" height="12"></rect>
                    </g>
                </g>
                <g id="Group-13" transform="translate(51.000000, 57.000000)">
                    <g id="Group-23">
                        <g id="Rectangle-4">
                            <use fill="#FFFFFF" fill-rule="evenodd" xlink:href="#path-3"></use>
                            <rect stroke="#E8E8E8" stroke-width="1" x="0.5" y="0.5" width="248" height="86" rx="3"></rect>
                        </g>
                        <path d="M246.789159,79.1464466 C246.984421,78.9511845 247.301003,78.9511845 247.496266,79.1464466 C247.691528,79.3417088 247.691528,79.6582912 247.496266,79.8535534 L241.853553,85.4962655 C241.658291,85.6915277 241.341709,85.6915277 241.146447,85.4962655 C240.951184,85.3010034 240.951184,84.9844209 241.146447,84.7891587 L246.789159,79.1464466 Z M246.774702,81.917375 C246.969964,81.7221129 247.286546,81.7221129 247.481808,81.917375 C247.67707,82.1126372 247.67707,82.4292196 247.481808,82.6244818 L244.653381,85.4529089 C244.458119,85.6481711 244.141537,85.6481711 243.946274,85.4529089 C243.751012,85.2576468 243.751012,84.9410643 243.946274,84.7458021 L246.774702,81.917375 Z" id="Combined-Shape" fill-opacity="0.35" fill="#000000" fill-rule="nonzero"></path>
                    </g>
                    <g id="OVERLAY#96C8D24A-E3BC-4A51-A485-6350B1D1A5A1" fill="#FF5500" fill-opacity="0.3">
                        <rect id="overlay" x="0" y="0" width="12" height="87"></rect>
                    </g>
                    <g id="OVERLAY#96C8D24A-E3BC-4A51-A485-6350B1D1A5A1" transform="translate(237.000000, 0.000000)" fill="#FF5500" fill-opacity="0.3">
                        <rect id="overlay" x="0" y="0" width="12" height="87"></rect>
                    </g>
                    <g id="OVERLAY#DC98998F-30E2-4108-9138-5393B68BE375" fill="#FF5500" fill-opacity="0.3">
                        <rect id="overlay" x="0" y="0" width="249" height="12"></rect>
                    </g>
                    <g id="OVERLAY#DC98998F-30E2-4108-9138-5393B68BE375" transform="translate(0.000000, 75.000000)" fill="#FF5500" fill-opacity="0.3">
                        <rect id="overlay" x="0" y="0" width="249" height="12"></rect>
                    </g>
                </g>
                <g id="Group-23" transform="translate(330.000000, 57.000000)">
                    <mask id="mask-5" fill="white">
                        <use xlink:href="#path-4"></use>
                    </mask>
                    <g id="Rectangle-4">
                        <use fill="#FFFFFF" fill-rule="evenodd" xlink:href="#path-4"></use>
                        <rect stroke="#E8E8E8" stroke-width="1" x="0.5" y="0.5" width="248" height="86" rx="3"></rect>
                    </g>
                    <rect id="Rectangle-5" fill="#CCCCCC" mask="url(#mask-5)" x="237" y="10" width="8" height="54" rx="4"></rect>
                    <text id="春江潮水连海平，海上明月共潮生。滟滟随波" mask="url(#mask-5)" font-family="PingFangSC-Regular, PingFang SC" font-size="14" font-weight="normal" line-spacing="21" fill-opacity="0.8" fill="#000000">
                        <tspan x="12" y="27">春江潮水连海平，海上明月共潮生。</tspan>
                        <tspan x="12" y="48">滟滟随波千万里，何处春江无月明！</tspan>
                        <tspan x="12" y="69">江流宛转绕芳甸，月照花林皆似霰。</tspan>
                        <tspan x="12" y="90">空里流霜不觉飞，汀上白沙看不见。</tspan>
                    </text>
                    <path d="M246.789159,79.1464466 C246.984421,78.9511845 247.301003,78.9511845 247.496266,79.1464466 C247.691528,79.3417088 247.691528,79.6582912 247.496266,79.8535534 L241.853553,85.4962655 C241.658291,85.6915277 241.341709,85.6915277 241.146447,85.4962655 C240.951184,85.3010034 240.951184,84.9844209 241.146447,84.7891587 L246.789159,79.1464466 Z M246.774702,81.917375 C246.969964,81.7221129 247.286546,81.7221129 247.481808,81.917375 C247.67707,82.1126372 247.67707,82.4292196 247.481808,82.6244818 L244.653381,85.4529089 C244.458119,85.6481711 244.141537,85.6481711 243.946274,85.4529089 C243.751012,85.2576468 243.751012,84.9410643 243.946274,84.7458021 L246.774702,81.917375 Z" id="Combined-Shape" fill-opacity="0.35" fill="#000000" fill-rule="nonzero" mask="url(#mask-5)"></path>
                </g>
                <g id="Group-17" transform="translate(609.000000, 251.000000)">
                    <g id="Group-14">
                        <mask id="mask-7" fill="white">
                            <use xlink:href="#path-6"></use>
                        </mask>
                        <g id="Rectangle-4">
                            <use fill="#FFFFFF" fill-rule="evenodd" xlink:href="#path-6"></use>
                            <rect stroke="#E8E8E8" stroke-width="1" x="-0.5" y="-0.5" width="250" height="172" rx="3"></rect>
                        </g>
                        <text id="可怜楼上月徘徊，应照离人妆镜台。玉户帘中" mask="url(#mask-7)" font-family="PingFangSC-Regular, PingFang SC" font-size="14" font-weight="normal" line-spacing="21" fill-opacity="0.8" fill="#000000">
                            <tspan x="12" y="6">可怜楼上月徘徊，应照离人妆镜台。</tspan>
                            <tspan x="12" y="27">玉户帘中卷不去，捣衣砧上拂还来。</tspan>
                            <tspan x="12" y="48">此时相望不相闻，愿逐月华流照君。</tspan>
                            <tspan x="12" y="69">鸿雁长飞光不度，鱼龙潜跃水成文。</tspan>
                            <tspan x="12" y="90">昨夜闲潭梦落花，可怜春半不还家。</tspan>
                            <tspan x="12" y="111">江水流春去欲尽，江潭落月复西斜。</tspan>
                            <tspan x="12" y="132">斜月沉沉藏海雾，碣石潇湘无限路。</tspan>
                            <tspan x="12" y="153">不知乘月几人归，落月摇情满江树。</tspan>
                        </text>
                        <rect id="Rectangle-5" fill="#CCCCCC" mask="url(#mask-7)" x="237" y="27" width="8" height="54" rx="4"></rect>
                        <path d="M247.100537,163.154323 C247.306302,162.948559 247.639912,162.948559 247.845677,163.154323 C248.051441,163.360088 248.051441,163.693698 247.845677,163.899463 L241.899463,169.845677 C241.693698,170.051441 241.360088,170.051441 241.154323,169.845677 C240.948559,169.639912 240.948559,169.306302 241.154323,169.100537 L247.100537,163.154323 Z M247.085302,166.07429 C247.291067,165.868526 247.624677,165.868526 247.830442,166.07429 C248.036206,166.280055 248.036206,166.613665 247.830442,166.81943 L244.849884,169.799988 C244.644119,170.005753 244.310509,170.005753 244.104744,169.799988 C243.898979,169.594223 243.898979,169.260613 244.104744,169.054848 L247.085302,166.07429 Z" id="Combined-Shape" fill-opacity="0.35" fill="#000000" fill-rule="nonzero" mask="url(#mask-7)"></path>
                    </g>
                    <g id="OVERLAY#96C8D24A-E3BC-4A51-A485-6350B1D1A5A1" fill="#FF5500" fill-opacity="0.3">
                        <rect id="overlay" x="0" y="0" width="12" height="171"></rect>
                    </g>
                    <g id="OVERLAY#96C8D24A-E3BC-4A51-A485-6350B1D1A5A1" transform="translate(237.000000, 0.000000)" fill="#FF5500" fill-opacity="0.3">
                        <rect id="overlay" x="0" y="0" width="12" height="171"></rect>
                    </g>
                    <g id="OVERLAY#DC98998F-30E2-4108-9138-5393B68BE375" transform="translate(0.000000, 159.000000)" fill="#FF5500" fill-opacity="0.3">
                        <rect id="overlay" x="0" y="0" width="249" height="12"></rect>
                    </g>
                </g>
                <g id="Group-18" transform="translate(330.000000, 251.000000)">
                    <g id="Group-14">
                        <mask id="mask-9" fill="white">
                            <use xlink:href="#path-8"></use>
                        </mask>
                        <g id="Rectangle-4">
                            <use fill="#FFFFFF" fill-rule="evenodd" xlink:href="#path-8"></use>
                            <rect stroke="#E8E8E8" stroke-width="1" x="0.5" y="0.5" width="248" height="170" rx="3"></rect>
                        </g>
                        <text id="春江潮水连海平，海上明月共潮生。滟滟随波" mask="url(#mask-9)" font-family="PingFangSC-Regular, PingFang SC" font-size="14" font-weight="normal" line-spacing="21" fill-opacity="0.8" fill="#000000">
                            <tspan x="12" y="-7">春江潮水连海平，海上明月共潮生。</tspan>
                            <tspan x="12" y="14">滟滟随波千万里，何处春江无月明！</tspan>
                            <tspan x="12" y="35">江流宛转绕芳甸，月照花林皆似霰。</tspan>
                            <tspan x="12" y="56">空里流霜不觉飞，汀上白沙看不见。</tspan>
                            <tspan x="12" y="77">江天一色无纤尘，皎皎空中孤月轮。</tspan>
                            <tspan x="12" y="98">江畔何人初见月？江月何年初照人？</tspan>
                            <tspan x="12" y="119">人生代代无穷已，江月年年望相似。</tspan>
                            <tspan x="12" y="140">不知江月待何人，但见长江送流水。</tspan>
                            <tspan x="12" y="161">白云一片去悠悠，青枫浦上不胜愁。</tspan>
                        </text>
                        <rect id="Rectangle-5" fill="#CCCCCC" mask="url(#mask-9)" x="237" y="27" width="8" height="54" rx="4"></rect>
                        <path d="M247.100537,163.154323 C247.306302,162.948559 247.639912,162.948559 247.845677,163.154323 C248.051441,163.360088 248.051441,163.693698 247.845677,163.899463 L241.899463,169.845677 C241.693698,170.051441 241.360088,170.051441 241.154323,169.845677 C240.948559,169.639912 240.948559,169.306302 241.154323,169.100537 L247.100537,163.154323 Z M247.085302,166.07429 C247.291067,165.868526 247.624677,165.868526 247.830442,166.07429 C248.036206,166.280055 248.036206,166.613665 247.830442,166.81943 L244.849884,169.799988 C244.644119,170.005753 244.310509,170.005753 244.104744,169.799988 C243.898979,169.594223 243.898979,169.260613 244.104744,169.054848 L247.085302,166.07429 Z" id="Combined-Shape" fill-opacity="0.35" fill="#000000" fill-rule="nonzero" mask="url(#mask-9)"></path>
                    </g>
                    <g id="OVERLAY#96C8D24A-E3BC-4A51-A485-6350B1D1A5A1" fill="#FF5500" fill-opacity="0.3">
                        <rect id="overlay" x="0" y="0" width="12" height="171"></rect>
                    </g>
                    <g id="OVERLAY#96C8D24A-E3BC-4A51-A485-6350B1D1A5A1" transform="translate(237.000000, 0.000000)" fill="#FF5500" fill-opacity="0.3">
                        <rect id="overlay" x="0" y="0" width="12" height="171"></rect>
                    </g>
                </g>
                <g id="WIDTH#A89DE6D6-B71A-4FD6-A03F-6496E49896BB" transform="translate(46.000000, 31.000000)" fill="#FF5722">
                    <rect id="ruler-start" x="5" y="20" width="1" height="5"></rect>
                    <rect id="ruler-end" x="16" y="20" width="1" height="5"></rect>
                    <rect id="ruler-line" x="5" y="22" width="12" height="1"></rect>
                    <text id="1-IS" font-family="Roboto-Regular, Roboto" font-size="12" font-weight="normal">
                        <tspan x="0.454101562" y="11">1 IS</tspan>
                    </text>
                </g>
                <g id="Rectangle-4">
                    <use fill="#FFFFFF" fill-rule="evenodd" xlink:href="#path-10"></use>
                    <rect stroke="#E8E8E8" stroke-width="1" x="52.5" y="495.5" width="731" height="178" rx="2"></rect>
                </g>
                <g id="馔呼尽愁儿朝高为昔来但少回裘金。侧得我暮" transform="translate(52.000000, 495.000000)">
                    <mask id="mask-12" fill="white">
                        <use xlink:href="#path-11"></use>
                    </mask>
                    <g id="Mask"></g>
                    <text mask="url(#mask-12)" font-family="PingFangSC-Regular, PingFang SC" font-size="14" font-weight="normal" line-spacing="20" fill-opacity="0.8" fill="#000000">
                        <tspan x="12" y="27">馔呼尽愁儿朝高为昔来但少回裘金。侧得我暮花羊我愿裘同换何长到但。花进生足但五用三有意三有主空美。我的</tspan>
                        <tspan x="712" y="27" font-family="Roboto-Regular, Roboto"></tspan>
                        <tspan x="12" y="47">花昔寞将之雪十三出羊斗丝我明换。钱万与复明平明与听白还意牛其销。进皆进发人莫同百之停海黄五古散。很哈</tspan>
                        <tspan x="712" y="47" font-family="Roboto-Regular, Roboto"></tspan>
                        <tspan x="12" y="67">听烹黄雪用平海金欢王奔见白少高。钱醉长进金丘钟请欢使金子名万同。金回如会贵海言听时马将皆使对高。长进</tspan>
                        <tspan x="12" y="87">金丘钟请欢使金子名万同。金回如会贵海言听时马将皆使对高。馔呼尽愁儿朝高为昔来但少回裘金。侧得我暮花羊</tspan>
                        <tspan x="12" y="107">我愿裘同换何长到但。花进生足但五用三有意三有主空美。花昔寞将之雪十三出羊斗丝我明换。钱万与复明平明与</tspan>
                        <tspan x="12" y="127">听白还意牛其销。进皆进发人莫同百之停海黄五古散。听烹黄雪用平海金欢王奔见白少高。钱醉长进金丘钟请欢使</tspan>
                        <tspan x="12" y="147">金子名万同。金回如会贵海言听时马将皆使对高。长进金丘钟请欢使金子名万同。金回如会贵海言听时马将皆使对</tspan>
                        <tspan x="12" y="167">高。金回如会贵海言听时马将皆使对高。长进金丘钟请欢使金子名万同。金回如会贵海言听。金回如会贵海言听时</tspan>
                        <tspan x="12" y="187">马将皆使对高。长进金丘钟请欢使金子名万同。金回如会贵海言听</tspan>
                    </text>
                </g>
                <rect id="Rectangle-5" fill="#CCCCCC" x="771" y="510" width="8" height="54" rx="4"></rect>
                <path d="M780.100537,664.154323 C780.306302,663.948559 780.639912,663.948559 780.845677,664.154323 C781.051441,664.360088 781.051441,664.693698 780.845677,664.899463 L774.899463,670.845677 C774.693698,671.051441 774.360088,671.051441 774.154323,670.845677 C773.948559,670.639912 773.948559,670.306302 774.154323,670.100537 L780.100537,664.154323 Z M780.085302,667.07429 C780.291067,666.868526 780.624677,666.868526 780.830442,667.07429 C781.036206,667.280055 781.036206,667.613665 780.830442,667.81943 L777.849884,670.799988 C777.644119,671.005753 777.310509,671.005753 777.104744,670.799988 C776.898979,670.594223 776.898979,670.260613 777.104744,670.054848 L780.085302,667.07429 Z" id="Combined-Shape" fill-opacity="0.35" fill="#000000" fill-rule="nonzero"></path>
            </g>
        </g>
    </g>
</svg>