<?xml version="1.0" encoding="UTF-8"?>
<svg width="455px" height="399px" viewBox="0 0 455 399" version="1.1" xmlns="http://www.w3.org/2000/svg" xmlns:xlink="http://www.w3.org/1999/xlink">
    <!-- Generator: Sketch 46.2 (44496) - http://www.bohemiancoding.com/sketch -->
    <title>6666</title>
    <desc>Created with Sketch.</desc>
    <defs>
        <linearGradient x1="0.0138059701%" y1="50.1473881%" x2="100.353358%" y2="50.1473881%" id="linearGradient-1">
            <stop stop-color="#FF4E2A" offset="0%"></stop>
            <stop stop-color="#E9005B" offset="100%"></stop>
        </linearGradient>
    </defs>
    <g id="Page-1" stroke="none" stroke-width="1" fill="none" fill-rule="evenodd">
        <g id="shopee-design-confirm" transform="translate(-1151.000000, -156.000000)">
            <g id="6666" transform="translate(1151.000000, 156.000000)">
                <polygon id="Shape" stroke="#FF742E" stroke-width="10" points="317.9 355 278 355 278 315.1"></polygon>
                <g id="Group" stroke="#FF742E" stroke-width="0.8">
                    <path d="M223.2,197.7 C222.4,199.4 225.8,198.4 225.5,201.6 C225.2,204.7 227.4,201.2 229.9,201 C232.4,200.8 231.5,199.2 229.9,198.9 C228.3,198.6 229.4,196.9 228.9,196 C228.4,195 224.2,195.4 223.2,197.7 Z" id="Shape"></path>
                    <path d="M232.4,189.1 C230.8,186.1 217.7,187.5 214.5,194.5 C212.1,199.9 222.6,196.8 221.7,206.6 C220.8,216.2 227.7,205.4 235.5,204.7 C243.3,204.1 240.4,199.2 235.5,198 C230.7,196.9 234,192 232.4,189.1 Z" id="Shape"></path>
                    <path d="M235.9,182.3 C233.2,177.3 211.1,179.7 205.9,191.4 C201.8,200.4 219.6,195.2 218.1,211.8 C216.7,227.9 228.1,209.7 241.2,208.7 C254.3,207.7 249.4,199.5 241.2,197.5 C233,195.4 238.5,187.1 235.9,182.3 Z" id="Shape"></path>
                    <path d="M239.4,175.5 C235.6,168.5 204.6,171.8 197.2,188.3 C191.5,201 216.4,193.7 214.3,216.9 C212.3,239.5 228.4,214 246.8,212.5 C265.2,211 258.3,199.5 246.8,196.7 C235.3,193.9 243.1,182.3 239.4,175.5 Z" id="Shape"></path>
                    <path d="M242.9,168.7 C238,159.7 198.1,164 188.6,185.1 C181.2,201.5 213.3,192 210.6,221.9 C208,251.1 228.7,218.1 252.4,216.2 C276.1,214.3 267.2,199.5 252.4,195.9 C237.6,192.4 247.6,177.4 242.9,168.7 Z" id="Shape"></path>
                    <path d="M246.4,161.9 C240.4,150.9 191.6,156.1 179.9,182 C170.9,202 210.1,190.5 206.9,227.1 C203.7,262.8 229.1,222.5 258.1,220.1 C287.1,217.8 276.2,199.7 258.1,195.2 C240,190.9 252.2,172.5 246.4,161.9 Z" id="Shape"></path>
                    <path d="M249.9,155.1 C242.8,142 185.1,148.2 171.3,178.9 C160.6,202.6 207.1,188.9 203.2,232.2 C199.4,274.4 229.5,226.7 263.7,224 C298,221.3 285.1,199.8 263.7,194.6 C242.3,189.4 256.7,167.7 249.9,155.1 Z" id="Shape"></path>
                    <path d="M253.4,148.3 C245.2,133.2 178.5,140.4 162.6,175.7 C150.3,203 203.9,187.3 199.4,237.3 C195,286.1 229.7,231 269.3,227.8 C308.9,224.6 294,199.9 269.3,193.8 C244.6,187.7 261.3,162.8 253.4,148.3 Z" id="Shape"></path>
                    <path d="M256.9,141.5 C247.6,124.4 172,132.5 154,172.6 C140,203.6 200.8,185.7 195.7,242.4 C190.7,297.7 230.1,235.2 275,231.6 C319.9,228 303.1,199.9 275,193.1 C246.9,186.3 265.8,157.9 256.9,141.5 Z" id="Shape"></path>
                    <path d="M260.4,134.7 C250,115.6 165.5,124.6 145.3,169.5 C129.7,204.2 197.6,184.2 192,247.5 C186.5,309.3 230.4,239.5 280.6,235.4 C330.8,231.3 312,200 280.6,192.4 C249.2,184.8 270.4,153.1 260.4,134.7 Z" id="Shape"></path>
                    <path d="M263.9,127.9 C252.4,106.8 159,116.8 136.7,166.4 C119.4,204.7 194.6,182.6 188.3,252.7 C182.2,321 230.8,243.8 286.3,239.4 C341.8,235 321,200.3 286.3,191.8 C251.6,183.3 274.9,148.2 263.9,127.9 Z" id="Shape"></path>
                    <path d="M267.4,121.1 C254.8,98 152.5,109 128,163.3 C109.1,205.3 191.4,181.1 184.5,257.8 C177.8,332.7 231,248.1 291.8,243.2 C352.6,238.3 329.8,200.3 291.8,191.1 C253.8,181.9 279.5,143.3 267.4,121.1 Z" id="Shape"></path>
                    <path d="M270.9,114.3 C257.2,89.1 146,101.1 119.4,160.1 C98.8,205.7 188.3,179.4 180.8,262.9 C173.5,344.3 231.4,252.3 297.5,247 C363.6,241.7 338.8,200.4 297.5,190.3 C256.2,180.3 284,138.5 270.9,114.3 Z" id="Shape"></path>
                    <path d="M274.4,107.5 C259.6,80.3 139.4,93.2 110.7,157 C88.5,206.3 185.2,177.9 177.1,268 C169.2,355.9 231.8,256.6 303.1,250.8 C374.5,245.1 347.7,200.4 303.1,189.6 C258.5,178.8 288.6,133.6 274.4,107.5 Z" id="Shape"></path>
                    <path d="M277.9,100.7 C262,71.5 132.9,85.3 102.1,153.9 C78.3,206.9 182.1,176.3 173.4,273.1 C164.9,367.5 232.1,260.8 308.8,254.7 C385.5,248.6 356.7,200.6 308.8,188.9 C260.9,177.2 293.1,128.7 277.9,100.7 Z" id="Shape"></path>
                    <path d="M281.4,93.9 C264.4,62.7 126.4,77.5 93.4,150.7 C67.9,207.3 178.9,174.7 169.6,278.2 C160.5,379.2 232.4,265.1 314.4,258.5 C396.4,251.9 365.6,200.7 314.4,188.2 C263.1,175.7 297.7,123.9 281.4,93.9 Z" id="Shape"></path>
                    <path d="M284.9,87.1 C266.8,53.9 119.9,69.6 84.8,147.6 C57.7,207.9 175.8,173.1 165.9,283.3 C156.3,390.8 232.7,269.3 320,262.3 C407.3,255.3 374.6,200.7 320,187.4 C265.5,174.2 302.2,119 284.9,87.1 Z" id="Shape"></path>
                    <path d="M288.4,80.3 C269.2,45 113.4,61.7 76.1,144.5 C47.3,208.4 172.7,171.6 162.2,288.5 C152,402.5 233.1,273.7 325.7,266.2 C418.3,258.7 383.6,200.9 325.7,186.8 C267.8,172.7 306.8,114.1 288.4,80.3 Z" id="Shape"></path>
                    <path d="M291.9,73.5 C271.6,36.2 106.8,53.9 67.5,141.4 C37,209 169.5,170 158.4,293.6 C147.6,414.1 233.3,277.9 331.2,270.1 C429.1,262.3 392.4,201.1 331.2,186.1 C270,171.1 311.3,109.3 291.9,73.5 Z" id="Shape"></path>
                    <path d="M295.4,66.7 C274,27.4 100.3,46.1 58.8,138.3 C26.7,209.6 166.4,168.5 154.7,298.8 C143.3,425.9 233.7,282.3 336.9,274 C440.1,265.7 401.4,201.2 336.9,185.5 C272.4,169.8 315.9,104.4 295.4,66.7 Z" id="Shape"></path>
                    <path d="M298.9,59.9 C276.4,18.6 93.8,38.2 50.1,135.1 C16.4,210.1 163.3,166.9 151,303.8 C139,437.4 234.1,286.4 342.5,277.7 C451,269 410.3,201.2 342.5,184.7 C274.7,168.2 320.4,99.5 298.9,59.9 Z" id="Shape"></path>
                    <path d="M302.4,53.1 C278.8,9.8 87.3,30.3 41.5,132 C6.1,210.6 160.2,165.3 147.3,308.9 C134.7,449 234.4,290.7 348.2,281.5 C462,272.4 419.3,201.2 348.2,183.9 C277.1,166.6 325,94.7 302.4,53.1 Z" id="Shape"></path>
                    <path d="M305.9,46.3 C281.2,1 80.7,22.5 32.8,128.9 C-4.2,211.2 157,163.7 143.5,314.1 C130.3,460.7 234.7,295 353.8,285.5 C472.9,276 428.2,201.5 353.8,183.4 C279.4,165.3 329.5,89.8 305.9,46.3 Z" id="Shape"></path>
                    <path d="M309.4,39.5 C283.6,-7.8 74.2,14.6 24.2,125.8 C-14.5,211.7 153.9,162.2 139.8,319.2 C126.1,472.4 235,299.3 359.4,289.3 C483.8,279.3 437.1,201.6 359.4,182.6 C281.7,163.6 334.1,84.9 309.4,39.5 Z" id="Shape"></path>
                    <path d="M312.9,32.7 C286,-16.6 67.7,6.7 15.5,122.6 C-24.8,212.2 150.8,160.5 136.1,324.3 C121.8,484 235.4,303.5 365.1,293.1 C494.8,282.7 446.2,201.6 365.1,181.9 C284,162.2 338.6,80.1 312.9,32.7 Z" id="Shape"></path>
                    <path d="M6.9,119.5 C-35.1,212.7 147.7,159 132.4,329.4 C117.5,495.6 235.7,307.8 370.7,296.9 C505.7,286 455.1,201.7 370.7,181.1 C286.3,160.5 343.2,75.1 316.4,25.8 C288.4,-25.5 61.2,-1.1 6.9,119.5 Z" id="Shape"></path>
                </g>
                <rect id="Rectangle-path" stroke="#FF742E" x="237.2" y="90.5" width="145.3" height="145.3"></rect>
                <circle id="Oval" fill="url(#linearGradient-1)" fill-rule="nonzero" cx="382.3" cy="119.6" r="13.4"></circle>
            </g>
        </g>
    </g>
</svg>